<ttFont>
    <TTGlyph name=".notdef" xMin="256" yMin="0" xMax="1280" yMax="1280">
      <contour>
        <pt x="256" y="0" on="1"/>
        <pt x="256" y="1280" on="1"/>
        <pt x="1280" y="1280" on="1"/>
        <pt x="1280" y="0" on="1"/>
      </contour>
      <contour>
        <pt x="288" y="32" on="1"/>
        <pt x="1248" y="32" on="1"/>
        <pt x="1248" y="1248" on="1"/>
        <pt x="288" y="1248" on="1"/>
      </contour>
    </TTGlyph>
    <TTGlyph name="ampersand" xMin="106" yMin="-47" xMax="1304" yMax="1452">
      <contour>
        <pt x="1009" y="684" on="1"/>
        <pt x="1173" y="684" on="1"/>
        <pt x="1173" y="492" on="0"/>
        <pt x="1054" y="309" on="1"/>
        <pt x="1304" y="0" on="1"/>
        <pt x="1081" y="0" on="1"/>
        <pt x="954" y="160" on="1"/>
        <pt x="854" y="61" on="0"/>
        <pt x="796" y="27" on="1"/>
        <pt x="681" y="-47" on="0"/>
        <pt x="526" y="-47" on="1"/>
        <pt x="288" y="-47" on="0"/>
        <pt x="174" y="121" on="1"/>
        <pt x="106" y="221" on="0"/>
        <pt x="106" y="360" on="1"/>
        <pt x="106" y="526" on="0"/>
        <pt x="212" y="635" on="1"/>
        <pt x="286" y="709" on="0"/>
        <pt x="438" y="797" on="1"/>
        <pt x="294" y="977" on="0"/>
        <pt x="276" y="1075" on="1"/>
        <pt x="272" y="1102" on="0"/>
        <pt x="272" y="1130" on="1"/>
        <pt x="272" y="1288" on="0"/>
        <pt x="405" y="1384" on="1"/>
        <pt x="499" y="1452" on="0"/>
        <pt x="622" y="1452" on="1"/>
        <pt x="806" y="1452" on="0"/>
        <pt x="901" y="1317" on="1"/>
        <pt x="931" y="1260" on="1"/>
        <pt x="950" y="1217" on="0"/>
        <pt x="954" y="1167" on="1"/>
        <pt x="956" y="1149" on="0"/>
        <pt x="956" y="1130" on="1"/>
        <pt x="956" y="989" on="0"/>
        <pt x="843" y="889" on="1"/>
        <pt x="784" y="836" on="0"/>
        <pt x="673" y="774" on="1"/>
        <pt x="946" y="440" on="1"/>
        <pt x="1009" y="552" on="0"/>
        <pt x="1009" y="676" on="1"/>
      </contour>
      <contour>
        <pt x="583" y="883" on="1"/>
        <pt x="749" y="987" on="0"/>
        <pt x="780" y="1063" on="1"/>
        <pt x="794" y="1094" on="0"/>
        <pt x="794" y="1135" on="1"/>
        <pt x="794" y="1241" on="0"/>
        <pt x="702" y="1288" on="1"/>
        <pt x="663" y="1309" on="0"/>
        <pt x="616" y="1309" on="1"/>
        <pt x="493" y="1309" on="0"/>
        <pt x="452" y="1206" on="1"/>
        <pt x="440" y="1174" on="0"/>
        <pt x="440" y="1133" on="1"/>
        <pt x="440" y="1065" on="0"/>
        <pt x="491" y="993" on="1"/>
      </contour>
      <contour>
        <pt x="856" y="281" on="1"/>
        <pt x="528" y="690" on="1"/>
        <pt x="335" y="567" on="0"/>
        <pt x="294" y="465" on="1"/>
        <pt x="278" y="424" on="0"/>
        <pt x="278" y="375" on="1"/>
        <pt x="278" y="242" on="0"/>
        <pt x="389" y="164" on="1"/>
        <pt x="460" y="113" on="0"/>
        <pt x="546" y="113" on="1"/>
        <pt x="684" y="113" on="0"/>
        <pt x="823" y="246" on="1"/>
        <pt x="839" y="262" on="0"/>
      </contour>
    </TTGlyph>
    <TTGlyph name="asterisk" xMin="450" yMin="903" xMax="1071" yMax="1493">
      <contour>
        <pt x="696" y="1493" on="1"/>
        <pt x="825" y="1493" on="1"/>
        <pt x="815" y="1264" on="1"/>
        <pt x="1032" y="1341" on="1"/>
        <pt x="1071" y="1221" on="1"/>
        <pt x="849" y="1159" on="1"/>
        <pt x="993" y="977" on="1"/>
        <pt x="888" y="903" on="1"/>
        <pt x="761" y="1094" on="1"/>
        <pt x="632" y="903" on="1"/>
        <pt x="530" y="977" on="1"/>
        <pt x="671" y="1159" on="1"/>
        <pt x="450" y="1221" on="1"/>
        <pt x="489" y="1341" on="1"/>
        <pt x="706" y="1264" on="1"/>
      </contour>
    </TTGlyph>
    <TTGlyph name="at" xMin="69" yMin="-290" xMax="1947" yMax="1518">
      <contour>
        <pt x="1361" y="1026" on="1"/>
        <pt x="1531" y="1026" on="1"/>
        <pt x="1347" y="453" on="1"/>
        <pt x="1322" y="381" on="0"/>
        <pt x="1322" y="350" on="1"/>
        <pt x="1322" y="295" on="0"/>
        <pt x="1382" y="268" on="1"/>
        <pt x="1402" y="260" on="0"/>
        <pt x="1425" y="260" on="1"/>
        <pt x="1556" y="260" on="0"/>
        <pt x="1664" y="408" on="1"/>
        <pt x="1769" y="553" on="0"/>
        <pt x="1769" y="731" on="1"/>
        <pt x="1769" y="977" on="0"/>
        <pt x="1570" y="1159" on="1"/>
        <pt x="1367" y="1348" on="0"/>
        <pt x="1079" y="1360" on="1"/>
        <pt x="1048" y="1360" on="1"/>
        <pt x="747" y="1360" on="0"/>
        <pt x="515" y="1151" on="1"/>
        <pt x="446" y="1081" on="1"/>
        <pt x="243" y="850" on="0"/>
        <pt x="243" y="559" on="1"/>
        <pt x="243" y="270" on="0"/>
        <pt x="458" y="72" on="1"/>
        <pt x="679" y="-133" on="0"/>
        <pt x="1011" y="-133" on="1"/>
        <pt x="1173" y="-133" on="0"/>
        <pt x="1406" y="-67" on="1"/>
        <pt x="1464" y="-204" on="1"/>
        <pt x="1234" y="-290" on="0"/>
        <pt x="1001" y="-290" on="1"/>
        <pt x="632" y="-290" on="0"/>
        <pt x="364" y="-71" on="1"/>
        <pt x="114" y="133" on="0"/>
        <pt x="75" y="434" on="1"/>
        <pt x="69" y="481" on="0"/>
        <pt x="69" y="528" on="1"/>
        <pt x="69" y="844" on="0"/>
        <pt x="264" y="1110" on="1"/>
        <pt x="321" y="1190" on="0"/>
        <pt x="393" y="1253" on="1"/>
        <pt x="614" y="1454" on="0"/>
        <pt x="923" y="1505" on="1"/>
        <pt x="999" y="1518" on="0"/>
        <pt x="1075" y="1518" on="1"/>
        <pt x="1415" y="1518" on="0"/>
        <pt x="1666" y="1311" on="1"/>
        <pt x="1904" y="1118" on="0"/>
        <pt x="1941" y="842" on="1"/>
        <pt x="1947" y="799" on="0"/>
        <pt x="1947" y="756" on="1"/>
        <pt x="1947" y="508" on="0"/>
        <pt x="1771" y="299" on="1"/>
        <pt x="1615" y="117" on="0"/>
        <pt x="1390" y="117" on="1"/>
        <pt x="1193" y="117" on="0"/>
        <pt x="1165" y="274" on="1"/>
        <pt x="1030" y="127" on="0"/>
        <pt x="874" y="127" on="1"/>
        <pt x="706" y="127" on="0"/>
        <pt x="610" y="268" on="1"/>
        <pt x="540" y="369" on="0"/>
        <pt x="540" y="502" on="1"/>
        <pt x="540" y="725" on="0"/>
        <pt x="702" y="897" on="1"/>
        <pt x="860" y="1067" on="0"/>
        <pt x="1066" y="1069" on="1"/>
        <pt x="1238" y="1069" on="0"/>
        <pt x="1316" y="891" on="1"/>
      </contour>
      <contour>
        <pt x="1054" y="938" on="1"/>
        <pt x="919" y="938" on="0"/>
        <pt x="817" y="793" on="1"/>
        <pt x="724" y="664" on="0"/>
        <pt x="724" y="500" on="1"/>
        <pt x="724" y="362" on="0"/>
        <pt x="821" y="293" on="1"/>
        <pt x="870" y="258" on="0"/>
        <pt x="927" y="258" on="1"/>
        <pt x="1046" y="258" on="0"/>
        <pt x="1136" y="391" on="1"/>
        <pt x="1204" y="489" on="0"/>
        <pt x="1236" y="662" on="1"/>
        <pt x="1245" y="707" on="0"/>
        <pt x="1247" y="741" on="1"/>
        <pt x="1247" y="755" on="1"/>
        <pt x="1247" y="856" on="0"/>
        <pt x="1163" y="909" on="1"/>
        <pt x="1113" y="938" on="0"/>
      </contour>
    </TTGlyph>
    <TTGlyph name="colon" xMin="225" yMin="0" xMax="438" yMax="1073">
      <contour>
        <pt x="438" y="213" on="1"/>
        <pt x="438" y="0" on="1"/>
        <pt x="225" y="0" on="1"/>
        <pt x="225" y="213" on="1"/>
      </contour>
      <contour>
        <pt x="438" y="1073" on="1"/>
        <pt x="438" y="860" on="1"/>
        <pt x="225" y="860" on="1"/>
        <pt x="225" y="1073" on="1"/>
      </contour>
    </TTGlyph>
    <TTGlyph name="comma" xMin="178" yMin="-301" xMax="393" yMax="213">
      <contour>
        <pt x="178" y="213" on="1"/>
        <pt x="393" y="213" on="1"/>
        <pt x="393" y="-32" on="1"/>
        <pt x="393" y="-301" on="0"/>
        <pt x="178" y="-301" on="1"/>
        <pt x="178" y="-223" on="1"/>
        <pt x="266" y="-219" on="0"/>
        <pt x="287" y="-155" on="1"/>
        <pt x="301" y="-116" on="0"/>
        <pt x="301" y="-36" on="1"/>
        <pt x="301" y="0" on="1"/>
        <pt x="178" y="0" on="1"/>
      </contour>
    </TTGlyph>
    <TTGlyph name="dollar" xMin="70" yMin="-258" xMax="1064" yMax="1577">
      <contour>
        <pt x="501" y="1577" on="1"/>
        <pt x="622" y="1577" on="1"/>
        <pt x="622" y="1466" on="1"/>
        <pt x="880" y="1448" on="0"/>
        <pt x="976" y="1257" on="1"/>
        <pt x="1015" y="1180" on="0"/>
        <pt x="1019" y="1083" on="1"/>
        <pt x="1019" y="1063" on="1"/>
        <pt x="858" y="1063" on="1"/>
        <pt x="856" y="1221" on="0"/>
        <pt x="739" y="1290" on="1"/>
        <pt x="698" y="1313" on="0"/>
        <pt x="649" y="1321" on="1"/>
        <pt x="636" y="1323" on="0"/>
        <pt x="622" y="1323" on="1"/>
        <pt x="622" y="813" on="1"/>
        <pt x="827" y="750" on="0"/>
        <pt x="890" y="715" on="1"/>
        <pt x="1064" y="616" on="0"/>
        <pt x="1064" y="399" on="1"/>
        <pt x="1064" y="186" on="0"/>
        <pt x="925" y="61" on="1"/>
        <pt x="903" y="41" on="0"/>
        <pt x="876" y="25" on="1"/>
        <pt x="776" y="-34" on="0"/>
        <pt x="622" y="-47" on="1"/>
        <pt x="622" y="-258" on="1"/>
        <pt x="501" y="-258" on="1"/>
        <pt x="501" y="-47" on="1"/>
        <pt x="186" y="-26" on="0"/>
        <pt x="98" y="213" on="1"/>
        <pt x="70" y="293" on="0"/>
        <pt x="70" y="390" on="1"/>
        <pt x="70" y="408" on="0"/>
        <pt x="71" y="426" on="1"/>
        <pt x="233" y="426" on="1"/>
        <pt x="247" y="274" on="0"/>
        <pt x="276" y="225" on="1"/>
        <pt x="280" y="219" on="0"/>
        <pt x="284" y="211" on="1"/>
        <pt x="356" y="113" on="0"/>
        <pt x="501" y="94" on="1"/>
        <pt x="501" y="651" on="1"/>
        <pt x="311" y="709" on="0"/>
        <pt x="243" y="758" on="1"/>
        <pt x="98" y="862" on="0"/>
        <pt x="98" y="1057" on="1"/>
        <pt x="98" y="1356" on="0"/>
        <pt x="384" y="1442" on="1"/>
        <pt x="438" y="1458" on="0"/>
        <pt x="501" y="1466" on="1"/>
      </contour>
      <contour>
        <pt x="501" y="829" on="1"/>
        <pt x="501" y="1321" on="1"/>
        <pt x="305" y="1294" on="0"/>
        <pt x="270" y="1139" on="1"/>
        <pt x="264" y="1110" on="0"/>
        <pt x="264" y="1077" on="1"/>
        <pt x="264" y="893" on="0"/>
      </contour>
      <contour>
        <pt x="622" y="633" on="1"/>
        <pt x="622" y="94" on="1"/>
        <pt x="747" y="109" on="0"/>
        <pt x="810" y="170" on="1"/>
        <pt x="896" y="252" on="0"/>
        <pt x="896" y="375" on="1"/>
        <pt x="896" y="500" on="0"/>
        <pt x="800" y="561" on="1"/>
        <pt x="741" y="598" on="0"/>
      </contour>
    </TTGlyph>
    <TTGlyph name="eight" xMin="74" yMin="0" xMax="1004" yMax="1500">
      <contour>
        <pt x="539" y="1350" on="1"/>
        <pt x="254" y="1350" on="0"/>
        <pt x="254" y="1100" on="1"/>
        <pt x="254" y="850" on="0"/>
        <pt x="539" y="850" on="1"/>
        <pt x="824" y="850" on="0"/>
        <pt x="824" y="1100" on="1"/>
        <pt x="824" y="1350" on="0"/>
      </contour>
      <contour>
        <pt x="539" y="700" on="1"/>
        <pt x="224" y="700" on="0"/>
        <pt x="224" y="425" on="1"/>
        <pt x="224" y="150" on="0"/>
        <pt x="539" y="150" on="1"/>
        <pt x="854" y="150" on="0"/>
        <pt x="854" y="425" on="1"/>
        <pt x="854" y="700" on="0"/>
      </contour>
      <contour>
        <pt x="237" y="780" on="1"/>
        <pt x="104" y="878" on="0"/>
        <pt x="104" y="1100" on="1"/>
        <pt x="104" y="1500" on="0"/>
        <pt x="539" y="1500" on="1"/>
        <pt x="974" y="1500" on="0"/>
        <pt x="974" y="1100" on="1"/>
        <pt x="974" y="878" on="0"/>
        <pt x="841" y="780" on="1"/>
        <pt x="1004" y="677" on="0"/>
        <pt x="1004" y="425" on="1"/>
        <pt x="1004" y="0" on="0"/>
        <pt x="539" y="0" on="1"/>
        <pt x="74" y="0" on="0"/>
        <pt x="74" y="425" on="1"/>
        <pt x="74" y="677" on="0"/>
      </contour>
    </TTGlyph>
    <TTGlyph name="equal" xMin="102" yMin="227" xMax="1093" yMax="723">
      <contour>
        <pt x="1093" y="723" on="1"/>
        <pt x="1093" y="580" on="1"/>
        <pt x="102" y="580" on="1"/>
        <pt x="102" y="723" on="1"/>
      </contour>
      <contour>
        <pt x="1093" y="371" on="1"/>
        <pt x="1093" y="227" on="1"/>
        <pt x="102" y="227" on="1"/>
        <pt x="102" y="371" on="1"/>
      </contour>
    </TTGlyph>
    <TTGlyph name="exclam" xMin="450" yMin="0" xMax="622" yMax="1493">
      <contour>
        <pt x="612" y="1493" on="1"/>
        <pt x="612" y="801" on="1"/>
        <pt x="572" y="344" on="1"/>
        <pt x="502" y="344" on="1"/>
        <pt x="462" y="801" on="1"/>
        <pt x="462" y="1493" on="1"/>
      </contour>
      <contour>
        <pt x="622" y="213" on="1"/>
        <pt x="622" y="0" on="1"/>
        <pt x="450" y="0" on="1"/>
        <pt x="450" y="213" on="1"/>
      </contour>
    </TTGlyph>
    <TTGlyph name="five" xMin="124" yMin="0" xMax="1039" yMax="1500">
      <contour>
        <pt x="1039" y="500" on="1"/>
        <pt x="1039" y="0" on="0"/>
        <pt x="602" y="0" on="1"/>
        <pt x="174" y="0" on="0"/>
        <pt x="124" y="397" on="1"/>
        <pt x="274" y="397" on="1"/>
        <pt x="324" y="150" on="0"/>
        <pt x="602" y="150" on="1"/>
        <pt x="889" y="150" on="0"/>
        <pt x="889" y="500" on="1"/>
        <pt x="889" y="850" on="0"/>
        <pt x="612" y="850" on="1"/>
        <pt x="410" y="850" on="0"/>
        <pt x="324" y="722" on="1"/>
        <pt x="179" y="722" on="1"/>
        <pt x="249" y="1500" on="1"/>
        <pt x="969" y="1500" on="1"/>
        <pt x="969" y="1350" on="1"/>
        <pt x="384" y="1350" on="1"/>
        <pt x="347" y="949" on="1"/>
        <pt x="454" y="1000" on="0"/>
        <pt x="612" y="1000" on="1"/>
        <pt x="1039" y="1000" on="0"/>
      </contour>
    </TTGlyph>
    <TTGlyph name="four" xMin="40" yMin="0" xMax="1040" yMax="1500">
      <contour>
        <pt x="698" y="1231" on="1"/>
        <pt x="221" y="519" on="1"/>
        <pt x="698" y="519" on="1"/>
      </contour>
      <contour>
        <pt x="698" y="1500" on="1"/>
        <pt x="848" y="1500" on="1"/>
        <pt x="848" y="519" on="1"/>
        <pt x="1040" y="519" on="1"/>
        <pt x="1040" y="369" on="1"/>
        <pt x="848" y="369" on="1"/>
        <pt x="848" y="0" on="1"/>
        <pt x="698" y="0" on="1"/>
        <pt x="698" y="369" on="1"/>
        <pt x="40" y="369" on="1"/>
        <pt x="40" y="519" on="1"/>
      </contour>
    </TTGlyph>
    <TTGlyph name="glyph139" xMin="-1190" yMin="-950" xMax="700" yMax="1500">
      <contour>
        <pt x="-383" y="-844" on="1"/>
        <pt x="-457" y="-920" on="0"/>
        <pt x="-598" y="-950" on="1"/>
        <pt x="-852" y="-950" on="1"/>
        <pt x="-931" y="-950" on="0"/>
        <pt x="-1170" y="-774" on="0"/>
        <pt x="-1190" y="-680" on="1"/>
        <pt x="-991" y="-450" on="1"/>
        <pt x="-985" y="-411" on="1"/>
        <pt x="-984" y="-405" on="0"/>
        <pt x="-984" y="-399" on="1"/>
        <pt x="-984" y="-366" on="0"/>
        <pt x="-1006" y="-326" on="1"/>
        <pt x="-1029" y="-288" on="0"/>
        <pt x="-1046" y="-288" on="1"/>
        <pt x="-1049" y="-288" on="0"/>
        <pt x="-1052" y="-289" on="1"/>
        <pt x="-1060" y="-293" on="0"/>
        <pt x="-1060" y="-302" on="1"/>
        <pt x="-1060" y="-315" on="0"/>
        <pt x="-1043" y="-338" on="1"/>
        <pt x="-1030" y="-356" on="0"/>
        <pt x="-1030" y="-373" on="1"/>
        <pt x="-1030" y="-393" on="0"/>
        <pt x="-1049" y="-413" on="1"/>
        <pt x="-1070" y="-435" on="0"/>
        <pt x="-1097" y="-435" on="1"/>
        <pt x="-1116" y="-435" on="0"/>
        <pt x="-1137" y="-425" on="1"/>
        <pt x="-1190" y="-401" on="0"/>
        <pt x="-1190" y="-320" on="1"/>
        <pt x="-1190" y="-239" on="0"/>
        <pt x="-1050" y="-100" on="0"/>
        <pt x="-993" y="-100" on="1"/>
        <pt x="-936" y="-100" on="0"/>
        <pt x="-795" y="-344" on="0"/>
        <pt x="-795" y="-396" on="1"/>
        <pt x="-795" y="-449" on="1"/>
        <pt x="-795" y="-491" on="0"/>
        <pt x="-926" y="-673" on="1"/>
        <pt x="-892" y="-736" on="0"/>
        <pt x="-812" y="-750" on="1"/>
        <pt x="-598" y="-750" on="1"/>
        <pt x="-482" y="-724" on="0"/>
        <pt x="-482" y="-624" on="1"/>
        <pt x="-482" y="-610" on="0"/>
        <pt x="-484" y="-596" on="1"/>
        <pt x="-484" y="-503" on="1"/>
        <pt x="-490" y="-426" on="0"/>
        <pt x="-605" y="-403" on="1"/>
        <pt x="-410" y="-100" on="1"/>
        <pt x="-271" y="-191" on="0"/>
        <pt x="-211" y="-191" on="1"/>
        <pt x="-200" y="-191" on="0"/>
        <pt x="-191" y="-188" on="1"/>
        <pt x="-204" y="-320" on="0"/>
        <pt x="-245" y="-333" on="1"/>
        <pt x="-253" y="-336" on="0"/>
        <pt x="-264" y="-336" on="1"/>
        <pt x="-309" y="-336" on="0"/>
        <pt x="-402" y="-292" on="1"/>
        <pt x="-424" y="-343" on="1"/>
        <pt x="-316" y="-392" on="0"/>
        <pt x="-303" y="-492" on="1"/>
        <pt x="-303" y="-664" on="1"/>
        <pt x="-256" y="-710" on="0"/>
        <pt x="-162" y="-750" on="1"/>
        <pt x="90" y="-750" on="1"/>
        <pt x="245" y="-700" on="0"/>
        <pt x="300" y="-600" on="1"/>
        <pt x="300" y="876" on="1"/>
        <pt x="300" y="1012" on="0"/>
        <pt x="100" y="1052" on="1"/>
        <pt x="386" y="1500" on="1"/>
        <pt x="583" y="1337" on="0"/>
        <pt x="670" y="1337" on="1"/>
        <pt x="687" y="1337" on="0"/>
        <pt x="700" y="1343" on="1"/>
        <pt x="680" y="1200" on="0"/>
        <pt x="618" y="1176" on="1"/>
        <pt x="605" y="1171" on="0"/>
        <pt x="589" y="1171" on="1"/>
        <pt x="524" y="1171" on="0"/>
        <pt x="399" y="1249" on="1"/>
        <pt x="341" y="1164" on="1"/>
        <pt x="500" y="1082" on="0"/>
        <pt x="500" y="946" on="1"/>
        <pt x="500" y="-640" on="1"/>
        <pt x="425" y="-870" on="0"/>
        <pt x="140" y="-950" on="1"/>
        <pt x="-188" y="-950" on="1"/>
        <pt x="-271" y="-950" on="0"/>
      </contour>
    </TTGlyph>
    <TTGlyph name="glyph144" xMin="-1470" yMin="-950" xMax="700" yMax="1500">
      <contour>
        <pt x="-223" y="-844" on="1"/>
        <pt x="-297" y="-920" on="0"/>
        <pt x="-438" y="-950" on="1"/>
        <pt x="-622" y="-950" on="1"/>
        <pt x="-701" y="-950" on="0"/>
        <pt x="-940" y="-774" on="0"/>
        <pt x="-960" y="-680" on="1"/>
        <pt x="-761" y="-450" on="1"/>
        <pt x="-759" y="-444" on="0"/>
        <pt x="-759" y="-438" on="1"/>
        <pt x="-759" y="-404" on="0"/>
        <pt x="-812" y="-377" on="1"/>
        <pt x="-1000" y="-283" on="1"/>
        <pt x="-1270" y="-409" on="1"/>
        <pt x="-1270" y="-520" on="1"/>
        <pt x="-1270" y="-678" on="0"/>
        <pt x="-1177" y="-724" on="1"/>
        <pt x="-1107" y="-759" on="0"/>
        <pt x="-1107" y="-820" on="1"/>
        <pt x="-1107" y="-839" on="0"/>
        <pt x="-1113" y="-860" on="1"/>
        <pt x="-1142" y="-950" on="0"/>
        <pt x="-1230" y="-950" on="1"/>
        <pt x="-1311" y="-950" on="0"/>
        <pt x="-1470" y="-770" on="0"/>
        <pt x="-1470" y="-708" on="1"/>
        <pt x="-1470" y="-372" on="1"/>
        <pt x="-1470" y="-315" on="0"/>
        <pt x="-1407" y="-286" on="1"/>
        <pt x="-1000" y="-100" on="1"/>
        <pt x="-612" y="-286" on="1"/>
        <pt x="-557" y="-312" on="0"/>
        <pt x="-557" y="-385" on="1"/>
        <pt x="-557" y="-403" on="1"/>
        <pt x="-565" y="-491" on="0"/>
        <pt x="-696" y="-673" on="1"/>
        <pt x="-662" y="-736" on="0"/>
        <pt x="-582" y="-750" on="1"/>
        <pt x="-438" y="-750" on="1"/>
        <pt x="-322" y="-724" on="0"/>
        <pt x="-322" y="-624" on="1"/>
        <pt x="-322" y="-610" on="0"/>
        <pt x="-324" y="-596" on="1"/>
        <pt x="-324" y="-503" on="1"/>
        <pt x="-330" y="-426" on="0"/>
        <pt x="-445" y="-403" on="1"/>
        <pt x="-250" y="-100" on="1"/>
        <pt x="-111" y="-191" on="0"/>
        <pt x="-51" y="-191" on="1"/>
        <pt x="-40" y="-191" on="0"/>
        <pt x="-31" y="-188" on="1"/>
        <pt x="-44" y="-320" on="0"/>
        <pt x="-85" y="-333" on="1"/>
        <pt x="-93" y="-336" on="0"/>
        <pt x="-104" y="-336" on="1"/>
        <pt x="-149" y="-336" on="0"/>
        <pt x="-242" y="-292" on="1"/>
        <pt x="-264" y="-343" on="1"/>
        <pt x="-156" y="-392" on="0"/>
        <pt x="-143" y="-492" on="1"/>
        <pt x="-143" y="-664" on="1"/>
        <pt x="-96" y="-710" on="0"/>
        <pt x="-2" y="-750" on="1"/>
        <pt x="160" y="-750" on="1"/>
        <pt x="245" y="-700" on="0"/>
        <pt x="300" y="-600" on="1"/>
        <pt x="300" y="876" on="1"/>
        <pt x="300" y="1012" on="0"/>
        <pt x="100" y="1052" on="1"/>
        <pt x="386" y="1500" on="1"/>
        <pt x="583" y="1337" on="0"/>
        <pt x="670" y="1337" on="1"/>
        <pt x="687" y="1337" on="0"/>
        <pt x="700" y="1343" on="1"/>
        <pt x="680" y="1200" on="0"/>
        <pt x="618" y="1176" on="1"/>
        <pt x="605" y="1171" on="0"/>
        <pt x="589" y="1171" on="1"/>
        <pt x="524" y="1171" on="0"/>
        <pt x="399" y="1249" on="1"/>
        <pt x="341" y="1164" on="1"/>
        <pt x="500" y="1082" on="0"/>
        <pt x="500" y="946" on="1"/>
        <pt x="500" y="-640" on="1"/>
        <pt x="425" y="-870" on="0"/>
        <pt x="210" y="-950" on="1"/>
        <pt x="-28" y="-950" on="1"/>
        <pt x="-111" y="-950" on="0"/>
      </contour>
    </TTGlyph>
    <TTGlyph name="glyph146" xMin="-2450" yMin="-1000" xMax="-300" yMax="-100">
      <contour>
        <pt x="-500" y="-819" on="0"/>
        <pt x="-500" y="-783" on="1"/>
        <pt x="-500" y="-762" on="0"/>
        <pt x="-537" y="-762" on="1"/>
        <pt x="-560" y="-762" on="0"/>
        <pt x="-598" y="-770" on="1"/>
        <pt x="-684" y="-770" on="0"/>
        <pt x="-684" y="-722" on="1"/>
        <pt x="-684" y="-675" on="0"/>
        <pt x="-598" y="-675" on="1"/>
        <pt x="-300" y="-675" on="0"/>
        <pt x="-300" y="-783" on="1"/>
        <pt x="-300" y="-877" on="0"/>
        <pt x="-713" y="-1000" on="0"/>
        <pt x="-1257" y="-1000" on="1"/>
        <pt x="-1645" y="-1000" on="0"/>
        <pt x="-2169" y="-880" on="0"/>
        <pt x="-2393" y="-782" on="1"/>
        <pt x="-2450" y="-754" on="0"/>
        <pt x="-2450" y="-726" on="1"/>
        <pt x="-2450" y="-699" on="0"/>
        <pt x="-2353" y="-699" on="1"/>
        <pt x="-2257" y="-699" on="0"/>
        <pt x="-2214" y="-726" on="1"/>
        <pt x="-1871" y="-867" on="0"/>
        <pt x="-1257" y="-867" on="1"/>
        <pt x="-809" y="-867" on="0"/>
      </contour>
      <contour>
        <pt x="-2250" y="-513" on="1"/>
        <pt x="-2230" y="-551" on="0"/>
        <pt x="-2163" y="-566" on="1"/>
        <pt x="-2127" y="-566" on="0"/>
        <pt x="-2080" y="-525" on="0"/>
        <pt x="-2080" y="-499" on="1"/>
        <pt x="-2080" y="-461" on="0"/>
        <pt x="-2143" y="-461" on="1"/>
        <pt x="-2250" y="-461" on="0"/>
      </contour>
      <contour>
        <pt x="-1250" y="-352" on="1"/>
        <pt x="-1250" y="-613" on="1"/>
        <pt x="-1250" y="-660" on="0"/>
        <pt x="-1331" y="-660" on="1"/>
        <pt x="-1413" y="-660" on="0"/>
        <pt x="-1600" y="-608" on="0"/>
        <pt x="-1600" y="-578" on="1"/>
        <pt x="-1600" y="-549" on="0"/>
        <pt x="-1450" y="-489" on="0"/>
        <pt x="-1450" y="-451" on="1"/>
        <pt x="-1450" y="-303" on="1"/>
        <pt x="-1611" y="-240" on="1"/>
        <pt x="-1851" y="-319" on="1"/>
        <pt x="-2091" y="-240" on="1"/>
        <pt x="-2250" y="-303" on="1"/>
        <pt x="-2250" y="-391" on="1"/>
        <pt x="-2219" y="-370" on="0"/>
        <pt x="-2143" y="-370" on="1"/>
        <pt x="-1960" y="-370" on="0"/>
        <pt x="-1960" y="-499" on="1"/>
        <pt x="-1960" y="-544" on="0"/>
        <pt x="-2057" y="-660" on="0"/>
        <pt x="-2163" y="-660" on="1"/>
        <pt x="-2260" y="-660" on="0"/>
        <pt x="-2450" y="-544" on="0"/>
        <pt x="-2450" y="-513" on="1"/>
        <pt x="-2450" y="-273" on="1"/>
        <pt x="-2450" y="-237" on="0"/>
        <pt x="-2363" y="-202" on="1"/>
        <pt x="-2105" y="-100" on="1"/>
        <pt x="-1851" y="-184" on="1"/>
        <pt x="-1598" y="-100" on="1"/>
        <pt x="-1339" y="-202" on="1"/>
        <pt x="-1312" y="-212" on="0"/>
        <pt x="-1294" y="-222" on="1"/>
        <pt x="-978" y="-100" on="0"/>
        <pt x="-925" y="-100" on="1"/>
        <pt x="-866" y="-100" on="0"/>
        <pt x="-300" y="-271" on="1"/>
        <pt x="-300" y="-613" on="1"/>
        <pt x="-300" y="-660" on="0"/>
        <pt x="-381" y="-660" on="1"/>
        <pt x="-463" y="-660" on="0"/>
        <pt x="-650" y="-608" on="0"/>
        <pt x="-650" y="-578" on="1"/>
        <pt x="-650" y="-549" on="0"/>
        <pt x="-500" y="-489" on="0"/>
        <pt x="-500" y="-451" on="1"/>
        <pt x="-500" y="-344" on="1"/>
        <pt x="-931" y="-227" on="1"/>
      </contour>
    </TTGlyph>
    <TTGlyph name="glyph150" xMin="-1400" yMin="-950" xMax="700" yMax="1500">
      <contour>
        <pt x="-1200" y="-737" on="1"/>
        <pt x="-1180" y="-798" on="0"/>
        <pt x="-1155" y="-798" on="1"/>
        <pt x="-1130" y="-798" on="0"/>
        <pt x="-1091" y="-757" on="0"/>
        <pt x="-1091" y="-715" on="1"/>
        <pt x="-1091" y="-654" on="0"/>
        <pt x="-1124" y="-654" on="1"/>
        <pt x="-1200" y="-654" on="0"/>
      </contour>
      <contour>
        <pt x="-600" y="-394" on="1"/>
        <pt x="-700" y="-314" on="1"/>
        <pt x="-900" y="-449" on="1"/>
        <pt x="-1100" y="-314" on="1"/>
        <pt x="-1200" y="-394" on="1"/>
        <pt x="-1200" y="-543" on="1"/>
        <pt x="-1167" y="-510" on="0"/>
        <pt x="-1124" y="-510" on="1"/>
        <pt x="-925" y="-510" on="0"/>
        <pt x="-925" y="-715" on="1"/>
        <pt x="-925" y="-802" on="0"/>
        <pt x="-1072" y="-950" on="0"/>
        <pt x="-1160" y="-950" on="1"/>
        <pt x="-1241" y="-950" on="0"/>
        <pt x="-1400" y="-802" on="0"/>
        <pt x="-1400" y="-737" on="1"/>
        <pt x="-1400" y="-370" on="1"/>
        <pt x="-1400" y="-312" on="0"/>
        <pt x="-1327" y="-256" on="1"/>
        <pt x="-1112" y="-94" on="1"/>
        <pt x="-900" y="-228" on="1"/>
        <pt x="-690" y="-94" on="1"/>
        <pt x="-474" y="-256" on="1"/>
        <pt x="-400" y="-312" on="0"/>
        <pt x="-400" y="-370" on="1"/>
        <pt x="-400" y="-500" on="1"/>
        <pt x="-277" y="-500" on="1"/>
        <pt x="-87" y="-500" on="0"/>
        <pt x="24" y="-687" on="1"/>
        <pt x="61" y="-750" on="0"/>
        <pt x="161" y="-750" on="1"/>
        <pt x="300" y="-750" on="0"/>
        <pt x="300" y="-550" on="1"/>
        <pt x="300" y="876" on="1"/>
        <pt x="300" y="1012" on="0"/>
        <pt x="100" y="1052" on="1"/>
        <pt x="386" y="1500" on="1"/>
        <pt x="583" y="1337" on="0"/>
        <pt x="670" y="1337" on="1"/>
        <pt x="687" y="1337" on="0"/>
        <pt x="700" y="1343" on="1"/>
        <pt x="680" y="1200" on="0"/>
        <pt x="618" y="1176" on="1"/>
        <pt x="605" y="1171" on="0"/>
        <pt x="589" y="1171" on="1"/>
        <pt x="524" y="1171" on="0"/>
        <pt x="399" y="1249" on="1"/>
        <pt x="341" y="1164" on="1"/>
        <pt x="500" y="1082" on="0"/>
        <pt x="500" y="946" on="1"/>
        <pt x="500" y="-550" on="1"/>
        <pt x="500" y="-950" on="0"/>
        <pt x="163" y="-950" on="1"/>
        <pt x="-8" y="-950" on="0"/>
        <pt x="-109" y="-794" on="1"/>
        <pt x="-169" y="-700" on="0"/>
        <pt x="-274" y="-700" on="1"/>
        <pt x="-400" y="-700" on="1"/>
        <pt x="-400" y="-825" on="1"/>
        <pt x="-400" y="-950" on="0"/>
        <pt x="-500" y="-950" on="1"/>
        <pt x="-600" y="-950" on="0"/>
        <pt x="-750" y="-741" on="0"/>
        <pt x="-750" y="-620" on="1"/>
        <pt x="-750" y="-500" on="0"/>
        <pt x="-600" y="-500" on="1"/>
      </contour>
    </TTGlyph>
    <TTGlyph name="glyph157" xMin="-650" yMin="-950" xMax="700" yMax="1500">
      <contour>
        <pt x="500" y="-728" on="1"/>
        <pt x="440" y="-890" on="0"/>
        <pt x="267" y="-950" on="1"/>
        <pt x="1" y="-739" on="1"/>
        <pt x="-149" y="-894" on="1"/>
        <pt x="-187" y="-950" on="0"/>
        <pt x="-276" y="-950" on="1"/>
        <pt x="-366" y="-950" on="0"/>
        <pt x="-437" y="-896" on="1"/>
        <pt x="-579" y="-788" on="1"/>
        <pt x="-650" y="-734" on="0"/>
        <pt x="-650" y="-674" on="1"/>
        <pt x="-650" y="-585" on="0"/>
        <pt x="-595" y="-524" on="1"/>
        <pt x="-389" y="-297" on="1"/>
        <pt x="-356" y="-259" on="0"/>
        <pt x="-321" y="-259" on="1"/>
        <pt x="-291" y="-259" on="0"/>
        <pt x="-259" y="-288" on="1"/>
        <pt x="-222" y="-323" on="0"/>
        <pt x="-222" y="-362" on="1"/>
        <pt x="-222" y="-393" on="0"/>
        <pt x="-247" y="-428" on="1"/>
        <pt x="-433" y="-637" on="1"/>
        <pt x="-300" y="-752" on="1"/>
        <pt x="-9" y="-478" on="1"/>
        <pt x="300" y="-728" on="1"/>
        <pt x="300" y="876" on="1"/>
        <pt x="300" y="1012" on="0"/>
        <pt x="100" y="1052" on="1"/>
        <pt x="386" y="1500" on="1"/>
        <pt x="583" y="1337" on="0"/>
        <pt x="670" y="1337" on="1"/>
        <pt x="687" y="1337" on="0"/>
        <pt x="700" y="1343" on="1"/>
        <pt x="680" y="1200" on="0"/>
        <pt x="618" y="1176" on="1"/>
        <pt x="605" y="1171" on="0"/>
        <pt x="589" y="1171" on="1"/>
        <pt x="524" y="1171" on="0"/>
        <pt x="399" y="1249" on="1"/>
        <pt x="341" y="1164" on="1"/>
        <pt x="500" y="1082" on="0"/>
        <pt x="500" y="946" on="1"/>
      </contour>
    </TTGlyph>
    <TTGlyph name="glyph162" xMin="-500" yMin="-950" xMax="700" yMax="1500">
      <contour>
        <pt x="300" y="876" on="1"/>
        <pt x="300" y="1012" on="0"/>
        <pt x="100" y="1052" on="1"/>
        <pt x="386" y="1500" on="1"/>
        <pt x="583" y="1337" on="0"/>
        <pt x="670" y="1337" on="1"/>
        <pt x="687" y="1337" on="0"/>
        <pt x="700" y="1343" on="1"/>
        <pt x="680" y="1200" on="0"/>
        <pt x="608" y="1176" on="1"/>
        <pt x="593" y="1171" on="0"/>
        <pt x="576" y="1171" on="1"/>
        <pt x="508" y="1171" on="0"/>
        <pt x="399" y="1249" on="1"/>
        <pt x="341" y="1164" on="1"/>
        <pt x="500" y="1082" on="0"/>
        <pt x="500" y="946" on="1"/>
        <pt x="500" y="-600" on="1"/>
        <pt x="500" y="-950" on="0"/>
        <pt x="150" y="-950" on="1"/>
        <pt x="-150" y="-950" on="1"/>
        <pt x="-500" y="-950" on="0"/>
        <pt x="-500" y="-600" on="1"/>
        <pt x="-500" y="-340" on="1"/>
        <pt x="-500" y="-200" on="0"/>
        <pt x="-350" y="-200" on="1"/>
        <pt x="-200" y="-200" on="0"/>
        <pt x="-200" y="-300" on="1"/>
        <pt x="-200" y="-400" on="0"/>
        <pt x="-300" y="-400" on="1"/>
        <pt x="-300" y="-600" on="1"/>
        <pt x="-300" y="-750" on="0"/>
        <pt x="-150" y="-750" on="1"/>
        <pt x="150" y="-750" on="1"/>
        <pt x="300" y="-750" on="0"/>
        <pt x="300" y="-600" on="1"/>
      </contour>
    </TTGlyph>
    <TTGlyph name="glyph166" xMin="-650" yMin="-950" xMax="750" yMax="1500">
      <contour>
        <pt x="500" y="-315" on="1"/>
        <pt x="500" y="-728" on="1"/>
        <pt x="500" y="-950" on="0"/>
        <pt x="384" y="-950" on="1"/>
        <pt x="267" y="-950" on="0"/>
        <pt x="179" y="-894" on="1"/>
        <pt x="92" y="-838" on="1"/>
        <pt x="-49" y="-748" on="1"/>
        <pt x="-149" y="-894" on="1"/>
        <pt x="-187" y="-950" on="0"/>
        <pt x="-276" y="-950" on="1"/>
        <pt x="-366" y="-950" on="0"/>
        <pt x="-439" y="-918" on="1"/>
        <pt x="-511" y="-887" on="1"/>
        <pt x="-650" y="-824" on="0"/>
        <pt x="-650" y="-734" on="1"/>
        <pt x="-650" y="-645" on="0"/>
        <pt x="-595" y="-584" on="1"/>
        <pt x="-539" y="-523" on="1"/>
        <pt x="-500" y="-483" on="0"/>
        <pt x="-500" y="-441" on="1"/>
        <pt x="-500" y="-400" on="0"/>
        <pt x="-549" y="-400" on="1"/>
        <pt x="-646" y="-400" on="0"/>
        <pt x="-646" y="-305" on="1"/>
        <pt x="-646" y="-302" on="0"/>
        <pt x="-645" y="-300" on="1"/>
        <pt x="-643" y="-200" on="0"/>
        <pt x="-546" y="-200" on="1"/>
        <pt x="-300" y="-200" on="0"/>
        <pt x="-300" y="-441" on="1"/>
        <pt x="-300" y="-527" on="0"/>
        <pt x="-376" y="-607" on="1"/>
        <pt x="-453" y="-687" on="1"/>
        <pt x="-300" y="-752" on="1"/>
        <pt x="-77" y="-506" on="1"/>
        <pt x="300" y="-728" on="1"/>
        <pt x="300" y="-265" on="1"/>
        <pt x="239" y="-249" on="1"/>
        <pt x="155" y="-227" on="0"/>
        <pt x="155" y="-161" on="1"/>
        <pt x="155" y="-145" on="0"/>
        <pt x="161" y="-125" on="1"/>
        <pt x="182" y="-49" on="0"/>
        <pt x="247" y="-49" on="1"/>
        <pt x="265" y="-49" on="0"/>
        <pt x="286" y="-55" on="1"/>
        <pt x="300" y="-58" on="1"/>
        <pt x="300" y="876" on="1"/>
        <pt x="300" y="1012" on="0"/>
        <pt x="100" y="1052" on="1"/>
        <pt x="386" y="1500" on="1"/>
        <pt x="583" y="1337" on="0"/>
        <pt x="670" y="1337" on="1"/>
        <pt x="687" y="1337" on="0"/>
        <pt x="700" y="1343" on="1"/>
        <pt x="680" y="1200" on="0"/>
        <pt x="618" y="1176" on="1"/>
        <pt x="605" y="1171" on="0"/>
        <pt x="589" y="1171" on="1"/>
        <pt x="524" y="1171" on="0"/>
        <pt x="399" y="1249" on="1"/>
        <pt x="341" y="1164" on="1"/>
        <pt x="500" y="1082" on="0"/>
        <pt x="500" y="946" on="1"/>
        <pt x="500" y="-112" on="1"/>
        <pt x="588" y="-138" on="0"/>
        <pt x="670" y="-184" on="1"/>
        <pt x="750" y="-227" on="0"/>
        <pt x="750" y="-269" on="1"/>
        <pt x="750" y="-276" on="0"/>
        <pt x="748" y="-282" on="1"/>
        <pt x="735" y="-329" on="0"/>
        <pt x="636" y="-329" on="1"/>
        <pt x="632" y="-329" on="1"/>
        <pt x="565" y="-327" on="0"/>
      </contour>
    </TTGlyph>
    <TTGlyph name="glyph169" xMin="-730" yMin="-1600" xMax="-400" yMax="-1000">
      <contour>
        <pt x="-400" y="-1000" on="0"/>
        <pt x="-400" y="-1150" on="1"/>
        <pt x="-400" y="-1525" on="1"/>
        <pt x="-400" y="-1600" on="0"/>
        <pt x="-500" y="-1600" on="1"/>
        <pt x="-600" y="-1600" on="0"/>
        <pt x="-600" y="-1525" on="1"/>
        <pt x="-600" y="-1225" on="1"/>
        <pt x="-600" y="-1172" on="0"/>
        <pt x="-730" y="-1142" on="0"/>
        <pt x="-730" y="-1071" on="1"/>
        <pt x="-730" y="-1000" on="0"/>
        <pt x="-600" y="-1000" on="1"/>
      </contour>
    </TTGlyph>
    <TTGlyph name="glyph170" xMin="-1150" yMin="-1600" xMax="-250" yMax="-1000">
      <contour>
        <pt x="-750" y="-1333" on="0"/>
        <pt x="-933" y="-1424" on="1"/>
        <pt x="-933" y="-1429" on="1"/>
        <pt x="-933" y="-1463" on="0"/>
        <pt x="-870" y="-1468" on="1"/>
        <pt x="-861" y="-1468" on="1"/>
        <pt x="-794" y="-1468" on="0"/>
        <pt x="-679" y="-1399" on="1"/>
        <pt x="-556" y="-1326" on="0"/>
        <pt x="-421" y="-1202" on="1"/>
        <pt x="-295" y="-1086" on="0"/>
        <pt x="-271" y="-1086" on="1"/>
        <pt x="-269" y="-1086" on="0"/>
        <pt x="-268" y="-1087" on="1"/>
        <pt x="-250" y="-1096" on="0"/>
        <pt x="-250" y="-1134" on="1"/>
        <pt x="-250" y="-1172" on="0"/>
        <pt x="-287" y="-1225" on="1"/>
        <pt x="-555" y="-1600" on="0"/>
        <pt x="-888" y="-1600" on="1"/>
        <pt x="-1058" y="-1600" on="0"/>
        <pt x="-1129" y="-1501" on="1"/>
        <pt x="-1150" y="-1470" on="0"/>
        <pt x="-1150" y="-1442" on="1"/>
        <pt x="-1150" y="-1376" on="0"/>
        <pt x="-1039" y="-1316" on="1"/>
        <pt x="-783" y="-1147" on="0"/>
        <pt x="-746" y="-1112" on="1"/>
        <pt x="-796" y="-1088" on="0"/>
        <pt x="-796" y="-1060" on="1"/>
        <pt x="-796" y="-1050" on="0"/>
        <pt x="-789" y="-1039" on="1"/>
        <pt x="-766" y="-1000" on="0"/>
        <pt x="-662" y="-1000" on="1"/>
        <pt x="-572" y="-1000" on="0"/>
        <pt x="-544" y="-1055" on="1"/>
        <pt x="-537" y="-1070" on="0"/>
        <pt x="-537" y="-1086" on="1"/>
        <pt x="-537" y="-1130" on="0"/>
        <pt x="-590" y="-1184" on="1"/>
      </contour>
    </TTGlyph>
    <TTGlyph name="glyph171" xMin="-1250" yMin="-1600" xMax="-250" yMax="-1000">
      <contour>
        <pt x="-661" y="-1434" on="1"/>
        <pt x="-556" y="-1376" on="0"/>
        <pt x="-445" y="-1203" on="0"/>
        <pt x="-408" y="-1122" on="1"/>
        <pt x="-377" y="-1057" on="0"/>
        <pt x="-321" y="-1057" on="1"/>
        <pt x="-317" y="-1057" on="1"/>
        <pt x="-259" y="-1059" on="0"/>
        <pt x="-251" y="-1096" on="1"/>
        <pt x="-250" y="-1105" on="0"/>
        <pt x="-250" y="-1114" on="1"/>
        <pt x="-250" y="-1146" on="0"/>
        <pt x="-268" y="-1190" on="1"/>
        <pt x="-397" y="-1532" on="0"/>
        <pt x="-675" y="-1600" on="1"/>
        <pt x="-803" y="-1498" on="1"/>
        <pt x="-931" y="-1600" on="0"/>
        <pt x="-1045" y="-1600" on="1"/>
        <pt x="-1175" y="-1591" on="0"/>
        <pt x="-1233" y="-1472" on="1"/>
        <pt x="-1250" y="-1441" on="0"/>
        <pt x="-1250" y="-1412" on="1"/>
        <pt x="-1250" y="-1334" on="0"/>
        <pt x="-1132" y="-1280" on="1"/>
        <pt x="-970" y="-1205" on="0"/>
        <pt x="-864" y="-1135" on="1"/>
        <pt x="-771" y="-1074" on="0"/>
        <pt x="-771" y="-1035" on="1"/>
        <pt x="-771" y="-1029" on="0"/>
        <pt x="-773" y="-1024" on="1"/>
        <pt x="-717" y="-1000" on="0"/>
        <pt x="-655" y="-1000" on="1"/>
        <pt x="-593" y="-1000" on="0"/>
        <pt x="-588" y="-1040" on="1"/>
        <pt x="-588" y="-1045" on="1"/>
        <pt x="-588" y="-1086" on="0"/>
        <pt x="-669" y="-1168" on="1"/>
        <pt x="-755" y="-1256" on="0"/>
        <pt x="-1034" y="-1396" on="1"/>
        <pt x="-1060" y="-1413" on="0"/>
        <pt x="-1060" y="-1429" on="1"/>
        <pt x="-1060" y="-1449" on="0"/>
        <pt x="-1016" y="-1468" on="1"/>
        <pt x="-958" y="-1468" on="0"/>
        <pt x="-800" y="-1347" on="1"/>
      </contour>
    </TTGlyph>
    <TTGlyph name="glyph172" xMin="-1460" yMin="2150" xMax="-340" yMax="2750">
      <contour>
        <pt x="-1460" y="2250" on="1"/>
        <pt x="-1460" y="2350" on="0"/>
        <pt x="-1400" y="2450" on="1"/>
        <pt x="-1280" y="2650" on="1"/>
        <pt x="-1220" y="2750" on="0"/>
        <pt x="-1169" y="2750" on="1"/>
        <pt x="-1118" y="2750" on="0"/>
        <pt x="-1040" y="2706" on="1"/>
        <pt x="-497" y="2401" on="1"/>
        <pt x="-342" y="2315" on="0"/>
        <pt x="-341" y="2233" on="1"/>
        <pt x="-340" y="2232" on="0"/>
        <pt x="-340" y="2231" on="1"/>
        <pt x="-340" y="2150" on="0"/>
        <pt x="-485" y="2150" on="1"/>
        <pt x="-1240" y="2150" on="1"/>
        <pt x="-1460" y="2150" on="0"/>
      </contour>
      <contour>
        <pt x="-1240" y="2350" on="1"/>
        <pt x="-780" y="2350" on="1"/>
        <pt x="-1142" y="2529" on="1"/>
      </contour>
    </TTGlyph>
    <TTGlyph name="glyph173" xMin="-1460" yMin="2150" xMax="-340" yMax="2800">
      <contour>
        <pt x="-1240" y="2350" on="1"/>
        <pt x="-780" y="2350" on="1"/>
        <pt x="-1142" y="2529" on="1"/>
      </contour>
      <contour>
        <pt x="-340" y="2233" on="1"/>
        <pt x="-340" y="2150" on="0"/>
        <pt x="-485" y="2150" on="1"/>
        <pt x="-1240" y="2150" on="1"/>
        <pt x="-1460" y="2150" on="0"/>
        <pt x="-1460" y="2250" on="1"/>
        <pt x="-1460" y="2350" on="0"/>
        <pt x="-1400" y="2450" on="1"/>
        <pt x="-1280" y="2650" on="1"/>
        <pt x="-1220" y="2750" on="0"/>
        <pt x="-1169" y="2750" on="1"/>
        <pt x="-1118" y="2750" on="0"/>
        <pt x="-1040" y="2706" on="1"/>
        <pt x="-540" y="2425" on="1"/>
        <pt x="-540" y="2700" on="1"/>
        <pt x="-540" y="2800" on="0"/>
        <pt x="-440" y="2800" on="1"/>
        <pt x="-340" y="2800" on="0"/>
        <pt x="-340" y="2700" on="1"/>
      </contour>
    </TTGlyph>
    <TTGlyph name="glyph174" xMin="-1460" yMin="2150" xMax="-340" yMax="2800">
      <contour>
        <pt x="-1240" y="2350" on="1"/>
        <pt x="-780" y="2350" on="1"/>
        <pt x="-1142" y="2529" on="1"/>
      </contour>
      <contour>
        <pt x="-665" y="2550" on="1"/>
        <pt x="-665" y="2513" on="0"/>
        <pt x="-645" y="2494" on="1"/>
        <pt x="-626" y="2475" on="0"/>
        <pt x="-590" y="2475" on="1"/>
        <pt x="-551" y="2475" on="0"/>
        <pt x="-533" y="2494" on="1"/>
        <pt x="-515" y="2513" on="0"/>
        <pt x="-515" y="2550" on="1"/>
        <pt x="-515" y="2588" on="0"/>
        <pt x="-533" y="2606" on="1"/>
        <pt x="-551" y="2625" on="0"/>
        <pt x="-590" y="2625" on="1"/>
        <pt x="-626" y="2625" on="0"/>
        <pt x="-645" y="2606" on="1"/>
        <pt x="-665" y="2588" on="0"/>
      </contour>
      <contour>
        <pt x="-416" y="2348" on="1"/>
        <pt x="-341" y="2290" on="0"/>
        <pt x="-341" y="2233" on="1"/>
        <pt x="-340" y="2232" on="0"/>
        <pt x="-340" y="2231" on="1"/>
        <pt x="-340" y="2150" on="0"/>
        <pt x="-485" y="2150" on="1"/>
        <pt x="-1240" y="2150" on="1"/>
        <pt x="-1460" y="2150" on="0"/>
        <pt x="-1460" y="2250" on="1"/>
        <pt x="-1460" y="2350" on="0"/>
        <pt x="-1400" y="2450" on="1"/>
        <pt x="-1280" y="2650" on="1"/>
        <pt x="-1220" y="2750" on="0"/>
        <pt x="-1169" y="2750" on="1"/>
        <pt x="-1118" y="2750" on="0"/>
        <pt x="-1040" y="2706" on="1"/>
        <pt x="-838" y="2593" on="1"/>
        <pt x="-828" y="2686" on="0"/>
        <pt x="-777" y="2738" on="1"/>
        <pt x="-715" y="2800" on="0"/>
        <pt x="-590" y="2800" on="1"/>
        <pt x="-463" y="2800" on="0"/>
        <pt x="-401" y="2738" on="1"/>
        <pt x="-340" y="2675" on="0"/>
        <pt x="-340" y="2550" on="1"/>
        <pt x="-340" y="2425" on="0"/>
        <pt x="-401" y="2362" on="1"/>
        <pt x="-408" y="2355" on="0"/>
      </contour>
    </TTGlyph>
    <TTGlyph name="glyph175" xMin="-1460" yMin="2150" xMax="-340" yMax="2800">
      <contour>
        <pt x="-1240" y="2350" on="1"/>
        <pt x="-780" y="2350" on="1"/>
        <pt x="-1142" y="2529" on="1"/>
      </contour>
      <contour>
        <pt x="-650" y="2487" on="1"/>
        <pt x="-540" y="2425" on="1"/>
        <pt x="-540" y="2700" on="1"/>
        <pt x="-540" y="2800" on="0"/>
        <pt x="-440" y="2800" on="1"/>
        <pt x="-340" y="2800" on="0"/>
        <pt x="-340" y="2700" on="1"/>
        <pt x="-340" y="2233" on="1"/>
        <pt x="-340" y="2150" on="0"/>
        <pt x="-485" y="2150" on="1"/>
        <pt x="-1240" y="2150" on="1"/>
        <pt x="-1460" y="2150" on="0"/>
        <pt x="-1460" y="2250" on="1"/>
        <pt x="-1460" y="2350" on="0"/>
        <pt x="-1400" y="2450" on="1"/>
        <pt x="-1280" y="2650" on="1"/>
        <pt x="-1220" y="2750" on="0"/>
        <pt x="-1169" y="2750" on="1"/>
        <pt x="-1118" y="2750" on="0"/>
        <pt x="-1040" y="2706" on="1"/>
        <pt x="-850" y="2599" on="1"/>
        <pt x="-850" y="2700" on="1"/>
        <pt x="-850" y="2800" on="0"/>
        <pt x="-750" y="2800" on="1"/>
        <pt x="-650" y="2800" on="0"/>
        <pt x="-650" y="2700" on="1"/>
      </contour>
    </TTGlyph>
    <TTGlyph name="glyph176" xMin="-1175" yMin="2150" xMax="-675" yMax="2650">
      <contour>
        <pt x="-1000" y="2400" on="1"/>
        <pt x="-1000" y="2363" on="0"/>
        <pt x="-980" y="2344" on="1"/>
        <pt x="-961" y="2325" on="0"/>
        <pt x="-925" y="2325" on="1"/>
        <pt x="-886" y="2325" on="0"/>
        <pt x="-868" y="2344" on="1"/>
        <pt x="-850" y="2363" on="0"/>
        <pt x="-850" y="2400" on="1"/>
        <pt x="-850" y="2438" on="0"/>
        <pt x="-868" y="2456" on="1"/>
        <pt x="-886" y="2475" on="0"/>
        <pt x="-925" y="2475" on="1"/>
        <pt x="-961" y="2475" on="0"/>
        <pt x="-980" y="2456" on="1"/>
        <pt x="-1000" y="2438" on="0"/>
      </contour>
      <contour>
        <pt x="-675" y="2400" on="1"/>
        <pt x="-675" y="2275" on="0"/>
        <pt x="-736" y="2212" on="1"/>
        <pt x="-798" y="2150" on="0"/>
        <pt x="-925" y="2150" on="1"/>
        <pt x="-1050" y="2150" on="0"/>
        <pt x="-1112" y="2212" on="1"/>
        <pt x="-1175" y="2275" on="0"/>
        <pt x="-1175" y="2400" on="1"/>
        <pt x="-1175" y="2525" on="0"/>
        <pt x="-1112" y="2588" on="1"/>
        <pt x="-1050" y="2650" on="0"/>
        <pt x="-925" y="2650" on="1"/>
        <pt x="-798" y="2650" on="0"/>
        <pt x="-736" y="2588" on="1"/>
        <pt x="-675" y="2525" on="0"/>
      </contour>
    </TTGlyph>
    <TTGlyph name="glyph177" xMin="-1200" yMin="2150" xMax="-600" yMax="2749">
      <contour>
        <pt x="-1000" y="2349" on="1"/>
        <pt x="-1200" y="2349" on="1"/>
        <pt x="-1200" y="2550" on="1"/>
        <pt x="-1000" y="2550" on="1"/>
        <pt x="-1000" y="2749" on="1"/>
        <pt x="-800" y="2749" on="1"/>
        <pt x="-800" y="2550" on="1"/>
        <pt x="-600" y="2550" on="1"/>
        <pt x="-600" y="2349" on="1"/>
        <pt x="-800" y="2349" on="1"/>
        <pt x="-800" y="2150" on="1"/>
        <pt x="-1000" y="2150" on="1"/>
      </contour>
    </TTGlyph>
    <TTGlyph name="glyph178" xMin="-1194" yMin="2150" xMax="-300" yMax="2950">
      <contour>
        <pt x="-1093" y="2493" on="1"/>
        <pt x="-1004" y="2482" on="0"/>
        <pt x="-1004" y="2434" on="1"/>
        <pt x="-1004" y="2430" on="1"/>
        <pt x="-1004" y="2382" on="0"/>
        <pt x="-925" y="2340" on="0"/>
        <pt x="-814" y="2340" on="1"/>
        <pt x="-676" y="2340" on="0"/>
        <pt x="-504" y="2566" on="0"/>
        <pt x="-481" y="2662" on="1"/>
        <pt x="-473" y="2696" on="0"/>
        <pt x="-473" y="2728" on="1"/>
        <pt x="-473" y="2783" on="0"/>
        <pt x="-498" y="2830" on="1"/>
        <pt x="-512" y="2855" on="0"/>
        <pt x="-512" y="2876" on="1"/>
        <pt x="-512" y="2915" on="0"/>
        <pt x="-463" y="2941" on="1"/>
        <pt x="-447" y="2950" on="0"/>
        <pt x="-431" y="2950" on="1"/>
        <pt x="-376" y="2950" on="0"/>
        <pt x="-332" y="2846" on="1"/>
        <pt x="-300" y="2771" on="0"/>
        <pt x="-300" y="2688" on="1"/>
        <pt x="-300" y="2623" on="0"/>
        <pt x="-319" y="2554" on="1"/>
        <pt x="-364" y="2395" on="0"/>
        <pt x="-615" y="2150" on="0"/>
        <pt x="-814" y="2150" on="1"/>
        <pt x="-954" y="2150" on="0"/>
        <pt x="-1194" y="2280" on="0"/>
        <pt x="-1194" y="2400" on="1"/>
        <pt x="-1187" y="2493" on="0"/>
        <pt x="-1110" y="2493" on="1"/>
      </contour>
    </TTGlyph>
    <TTGlyph name="glyph179" xMin="300" yMin="0" xMax="2450" yMax="1500">
      <contour>
        <pt x="500" y="370" on="1"/>
        <pt x="520" y="230" on="0"/>
        <pt x="587" y="200" on="1"/>
        <pt x="623" y="200" on="0"/>
        <pt x="670" y="344" on="0"/>
        <pt x="670" y="400" on="1"/>
        <pt x="670" y="480" on="0"/>
        <pt x="607" y="480" on="1"/>
        <pt x="500" y="480" on="0"/>
      </contour>
      <contour>
        <pt x="1500" y="1000" on="1"/>
        <pt x="1500" y="100" on="1"/>
        <pt x="1500" y="0" on="0"/>
        <pt x="1419" y="0" on="1"/>
        <pt x="1337" y="0" on="0"/>
        <pt x="1150" y="110" on="0"/>
        <pt x="1150" y="193" on="1"/>
        <pt x="1150" y="276" on="0"/>
        <pt x="1300" y="420" on="0"/>
        <pt x="1300" y="500" on="1"/>
        <pt x="1300" y="1103" on="1"/>
        <pt x="1139" y="1235" on="1"/>
        <pt x="899" y="1070" on="1"/>
        <pt x="659" y="1235" on="1"/>
        <pt x="500" y="1103" on="1"/>
        <pt x="500" y="626" on="1"/>
        <pt x="531" y="670" on="0"/>
        <pt x="607" y="670" on="1"/>
        <pt x="870" y="670" on="0"/>
        <pt x="870" y="400" on="1"/>
        <pt x="870" y="245" on="0"/>
        <pt x="693" y="0" on="0"/>
        <pt x="587" y="0" on="1"/>
        <pt x="490" y="0" on="0"/>
        <pt x="300" y="245" on="0"/>
        <pt x="300" y="370" on="1"/>
        <pt x="300" y="1135" on="1"/>
        <pt x="300" y="1211" on="0"/>
        <pt x="387" y="1285" on="1"/>
        <pt x="645" y="1500" on="1"/>
        <pt x="899" y="1322" on="1"/>
        <pt x="1152" y="1500" on="1"/>
        <pt x="1411" y="1285" on="1"/>
        <pt x="1438" y="1263" on="0"/>
        <pt x="1456" y="1241" on="1"/>
        <pt x="1772" y="1500" on="0"/>
        <pt x="1825" y="1500" on="1"/>
        <pt x="1884" y="1500" on="0"/>
        <pt x="2450" y="1140" on="1"/>
        <pt x="2450" y="100" on="1"/>
        <pt x="2450" y="0" on="0"/>
        <pt x="2369" y="0" on="1"/>
        <pt x="2287" y="0" on="0"/>
        <pt x="2100" y="110" on="0"/>
        <pt x="2100" y="193" on="1"/>
        <pt x="2100" y="276" on="0"/>
        <pt x="2250" y="420" on="0"/>
        <pt x="2250" y="500" on="1"/>
        <pt x="2250" y="1032" on="1"/>
        <pt x="1819" y="1277" on="1"/>
      </contour>
    </TTGlyph>
    <TTGlyph name="glyph180" xMin="-2507" yMin="-950" xMax="-1507" yMax="-100">
      <contour>
        <pt x="-2307" y="-708" on="1"/>
        <pt x="-2307" y="-781" on="0"/>
        <pt x="-2267" y="-803" on="1"/>
        <pt x="-2237" y="-803" on="0"/>
        <pt x="-2198" y="-727" on="0"/>
        <pt x="-2198" y="-686" on="1"/>
        <pt x="-2198" y="-627" on="0"/>
        <pt x="-2251" y="-627" on="1"/>
        <pt x="-2307" y="-627" on="0"/>
      </contour>
      <contour>
        <pt x="-2307" y="-520" on="1"/>
        <pt x="-2284" y="-488" on="0"/>
        <pt x="-2251" y="-488" on="1"/>
        <pt x="-2032" y="-488" on="0"/>
        <pt x="-2032" y="-686" on="1"/>
        <pt x="-2032" y="-770" on="0"/>
        <pt x="-2179" y="-950" on="0"/>
        <pt x="-2267" y="-950" on="1"/>
        <pt x="-2348" y="-950" on="0"/>
        <pt x="-2507" y="-770" on="0"/>
        <pt x="-2507" y="-708" on="1"/>
        <pt x="-2507" y="-372" on="1"/>
        <pt x="-2507" y="-315" on="0"/>
        <pt x="-2444" y="-286" on="1"/>
        <pt x="-2007" y="-100" on="1"/>
        <pt x="-1569" y="-286" on="1"/>
        <pt x="-1507" y="-315" on="0"/>
        <pt x="-1507" y="-372" on="1"/>
        <pt x="-1507" y="-876" on="1"/>
        <pt x="-1507" y="-950" on="0"/>
        <pt x="-1574" y="-950" on="1"/>
        <pt x="-1642" y="-950" on="0"/>
        <pt x="-1798" y="-869" on="0"/>
        <pt x="-1798" y="-808" on="1"/>
        <pt x="-1798" y="-747" on="0"/>
        <pt x="-1707" y="-642" on="0"/>
        <pt x="-1707" y="-583" on="1"/>
        <pt x="-1707" y="-409" on="1"/>
        <pt x="-2007" y="-283" on="1"/>
        <pt x="-2307" y="-409" on="1"/>
      </contour>
    </TTGlyph>
    <TTGlyph name="glyph181" xMin="-1837" yMin="-1600" xMax="-1507" yMax="-1000">
      <contour>
        <pt x="-1507" y="-1000" on="0"/>
        <pt x="-1507" y="-1150" on="1"/>
        <pt x="-1507" y="-1525" on="1"/>
        <pt x="-1507" y="-1600" on="0"/>
        <pt x="-1607" y="-1600" on="1"/>
        <pt x="-1707" y="-1600" on="0"/>
        <pt x="-1707" y="-1525" on="1"/>
        <pt x="-1707" y="-1225" on="1"/>
        <pt x="-1707" y="-1172" on="0"/>
        <pt x="-1837" y="-1142" on="0"/>
        <pt x="-1837" y="-1071" on="1"/>
        <pt x="-1837" y="-1000" on="0"/>
        <pt x="-1707" y="-1000" on="1"/>
      </contour>
    </TTGlyph>
    <TTGlyph name="glyph182" xMin="-2300" yMin="-1600" xMax="-1400" yMax="-1000">
      <contour>
        <pt x="-1900" y="-1333" on="0"/>
        <pt x="-2083" y="-1424" on="1"/>
        <pt x="-2083" y="-1429" on="1"/>
        <pt x="-2083" y="-1463" on="0"/>
        <pt x="-2020" y="-1468" on="1"/>
        <pt x="-2011" y="-1468" on="1"/>
        <pt x="-1944" y="-1468" on="0"/>
        <pt x="-1829" y="-1399" on="1"/>
        <pt x="-1706" y="-1326" on="0"/>
        <pt x="-1571" y="-1202" on="1"/>
        <pt x="-1445" y="-1086" on="0"/>
        <pt x="-1421" y="-1086" on="1"/>
        <pt x="-1419" y="-1086" on="0"/>
        <pt x="-1418" y="-1087" on="1"/>
        <pt x="-1400" y="-1096" on="0"/>
        <pt x="-1400" y="-1134" on="1"/>
        <pt x="-1400" y="-1172" on="0"/>
        <pt x="-1437" y="-1225" on="1"/>
        <pt x="-1705" y="-1600" on="0"/>
        <pt x="-2038" y="-1600" on="1"/>
        <pt x="-2208" y="-1600" on="0"/>
        <pt x="-2279" y="-1501" on="1"/>
        <pt x="-2300" y="-1470" on="0"/>
        <pt x="-2300" y="-1442" on="1"/>
        <pt x="-2300" y="-1376" on="0"/>
        <pt x="-2189" y="-1316" on="1"/>
        <pt x="-1933" y="-1147" on="0"/>
        <pt x="-1896" y="-1112" on="1"/>
        <pt x="-1946" y="-1088" on="0"/>
        <pt x="-1946" y="-1060" on="1"/>
        <pt x="-1946" y="-1050" on="0"/>
        <pt x="-1939" y="-1039" on="1"/>
        <pt x="-1916" y="-1000" on="0"/>
        <pt x="-1812" y="-1000" on="1"/>
        <pt x="-1722" y="-1000" on="0"/>
        <pt x="-1694" y="-1055" on="1"/>
        <pt x="-1687" y="-1070" on="0"/>
        <pt x="-1687" y="-1086" on="1"/>
        <pt x="-1687" y="-1130" on="0"/>
        <pt x="-1740" y="-1184" on="1"/>
      </contour>
    </TTGlyph>
    <TTGlyph name="glyph183" xMin="-2400" yMin="-1600" xMax="-1400" yMax="-1000">
      <contour>
        <pt x="-1811" y="-1434" on="1"/>
        <pt x="-1706" y="-1376" on="0"/>
        <pt x="-1595" y="-1203" on="0"/>
        <pt x="-1558" y="-1122" on="1"/>
        <pt x="-1527" y="-1057" on="0"/>
        <pt x="-1471" y="-1057" on="1"/>
        <pt x="-1467" y="-1057" on="1"/>
        <pt x="-1409" y="-1059" on="0"/>
        <pt x="-1401" y="-1096" on="1"/>
        <pt x="-1400" y="-1105" on="0"/>
        <pt x="-1400" y="-1114" on="1"/>
        <pt x="-1400" y="-1146" on="0"/>
        <pt x="-1418" y="-1190" on="1"/>
        <pt x="-1547" y="-1532" on="0"/>
        <pt x="-1825" y="-1600" on="1"/>
        <pt x="-1953" y="-1498" on="1"/>
        <pt x="-2081" y="-1600" on="0"/>
        <pt x="-2195" y="-1600" on="1"/>
        <pt x="-2325" y="-1591" on="0"/>
        <pt x="-2383" y="-1472" on="1"/>
        <pt x="-2400" y="-1441" on="0"/>
        <pt x="-2400" y="-1412" on="1"/>
        <pt x="-2400" y="-1334" on="0"/>
        <pt x="-2282" y="-1280" on="1"/>
        <pt x="-2120" y="-1205" on="0"/>
        <pt x="-2014" y="-1135" on="1"/>
        <pt x="-1921" y="-1074" on="0"/>
        <pt x="-1921" y="-1035" on="1"/>
        <pt x="-1921" y="-1029" on="0"/>
        <pt x="-1923" y="-1024" on="1"/>
        <pt x="-1867" y="-1000" on="0"/>
        <pt x="-1805" y="-1000" on="1"/>
        <pt x="-1743" y="-1000" on="0"/>
        <pt x="-1738" y="-1040" on="1"/>
        <pt x="-1738" y="-1045" on="1"/>
        <pt x="-1738" y="-1086" on="0"/>
        <pt x="-1819" y="-1168" on="1"/>
        <pt x="-1905" y="-1256" on="0"/>
        <pt x="-2184" y="-1396" on="1"/>
        <pt x="-2210" y="-1413" on="0"/>
        <pt x="-2210" y="-1429" on="1"/>
        <pt x="-2210" y="-1449" on="0"/>
        <pt x="-2166" y="-1468" on="1"/>
        <pt x="-2108" y="-1468" on="0"/>
        <pt x="-1950" y="-1347" on="1"/>
      </contour>
    </TTGlyph>
    <TTGlyph name="glyph185" xMin="-800" yMin="-1600" xMax="500" yMax="2650">
      <contour>
        <pt x="-580" y="2200" on="1"/>
        <pt x="-120" y="2200" on="1"/>
        <pt x="-482" y="2379" on="1"/>
      </contour>
      <contour>
        <pt x="320" y="2125" on="1"/>
        <pt x="500" y="1980" on="0"/>
        <pt x="500" y="1620" on="1"/>
        <pt x="500" y="-1300" on="1"/>
        <pt x="500" y="-1600" on="0"/>
        <pt x="200" y="-1600" on="1"/>
        <pt x="-200" y="-1600" on="1"/>
        <pt x="-500" y="-1600" on="0"/>
        <pt x="-500" y="-1300" on="1"/>
        <pt x="-500" y="-1100" on="1"/>
        <pt x="-500" y="-1000" on="0"/>
        <pt x="-400" y="-1000" on="1"/>
        <pt x="-300" y="-1000" on="0"/>
        <pt x="-300" y="-1100" on="1"/>
        <pt x="-300" y="-1300" on="1"/>
        <pt x="-300" y="-1400" on="0"/>
        <pt x="-200" y="-1400" on="1"/>
        <pt x="200" y="-1400" on="1"/>
        <pt x="300" y="-1400" on="0"/>
        <pt x="300" y="-1300" on="1"/>
        <pt x="300" y="1620" on="1"/>
        <pt x="300" y="1939" on="0"/>
        <pt x="55" y="2000" on="1"/>
        <pt x="-580" y="2000" on="1"/>
        <pt x="-800" y="2000" on="0"/>
        <pt x="-800" y="2100" on="1"/>
        <pt x="-800" y="2200" on="0"/>
        <pt x="-740" y="2300" on="1"/>
        <pt x="-620" y="2500" on="1"/>
        <pt x="-560" y="2600" on="0"/>
        <pt x="-509" y="2600" on="1"/>
        <pt x="-458" y="2600" on="0"/>
        <pt x="-380" y="2556" on="1"/>
        <pt x="-190" y="2449" on="1"/>
        <pt x="-190" y="2550" on="1"/>
        <pt x="-190" y="2650" on="0"/>
        <pt x="-90" y="2650" on="1"/>
        <pt x="10" y="2650" on="0"/>
        <pt x="10" y="2550" on="1"/>
        <pt x="10" y="2337" on="1"/>
        <pt x="120" y="2275" on="1"/>
        <pt x="120" y="2550" on="1"/>
        <pt x="120" y="2650" on="0"/>
        <pt x="220" y="2650" on="1"/>
        <pt x="320" y="2650" on="0"/>
        <pt x="320" y="2550" on="1"/>
      </contour>
    </TTGlyph>
    <TTGlyph name="glyph186" xMin="-505" yMin="-1600" xMax="500" yMax="2700">
      <contour>
        <pt x="500" y="-1300" on="1"/>
        <pt x="500" y="-1600" on="0"/>
        <pt x="200" y="-1600" on="1"/>
        <pt x="-200" y="-1600" on="1"/>
        <pt x="-500" y="-1600" on="0"/>
        <pt x="-500" y="-1300" on="1"/>
        <pt x="-500" y="-1090" on="1"/>
        <pt x="-500" y="-990" on="0"/>
        <pt x="-400" y="-990" on="1"/>
        <pt x="-300" y="-990" on="0"/>
        <pt x="-300" y="-1090" on="1"/>
        <pt x="-300" y="-1300" on="1"/>
        <pt x="-300" y="-1400" on="0"/>
        <pt x="-200" y="-1400" on="1"/>
        <pt x="200" y="-1400" on="1"/>
        <pt x="300" y="-1400" on="0"/>
        <pt x="300" y="-1300" on="1"/>
        <pt x="300" y="1700" on="1"/>
        <pt x="300" y="2100" on="0"/>
        <pt x="100" y="2100" on="1"/>
        <pt x="-178" y="2100" on="0"/>
        <pt x="-281" y="2003" on="1"/>
        <pt x="-348" y="1926" on="0"/>
        <pt x="-408" y="1926" on="1"/>
        <pt x="-438" y="1926" on="0"/>
        <pt x="-466" y="1945" on="1"/>
        <pt x="-505" y="1971" on="0"/>
        <pt x="-505" y="2011" on="1"/>
        <pt x="-505" y="2060" on="0"/>
        <pt x="-449" y="2130" on="1"/>
        <pt x="-264" y="2358" on="0"/>
        <pt x="-231" y="2615" on="1"/>
        <pt x="-220" y="2700" on="0"/>
        <pt x="-115" y="2700" on="1"/>
        <pt x="-41" y="2700" on="0"/>
        <pt x="-41" y="2581" on="1"/>
        <pt x="-41" y="2531" on="0"/>
        <pt x="-54" y="2460" on="1"/>
        <pt x="-71" y="2368" on="0"/>
        <pt x="-108" y="2276" on="1"/>
        <pt x="-42" y="2300" on="0"/>
        <pt x="100" y="2300" on="1"/>
        <pt x="500" y="2300" on="0"/>
        <pt x="500" y="1700" on="1"/>
      </contour>
    </TTGlyph>
    <TTGlyph name="glyph187" xMin="-1190" yMin="-1600" xMax="700" yMax="1500">
      <contour>
        <pt x="300" y="876" on="1"/>
        <pt x="300" y="1012" on="0"/>
        <pt x="100" y="1052" on="1"/>
        <pt x="386" y="1500" on="1"/>
        <pt x="583" y="1337" on="0"/>
        <pt x="670" y="1337" on="1"/>
        <pt x="687" y="1337" on="0"/>
        <pt x="700" y="1343" on="1"/>
        <pt x="680" y="1200" on="0"/>
        <pt x="618" y="1176" on="1"/>
        <pt x="605" y="1171" on="0"/>
        <pt x="589" y="1171" on="1"/>
        <pt x="524" y="1171" on="0"/>
        <pt x="399" y="1249" on="1"/>
        <pt x="341" y="1164" on="1"/>
        <pt x="500" y="1082" on="0"/>
        <pt x="500" y="946" on="1"/>
        <pt x="500" y="-1381" on="1"/>
        <pt x="425" y="-1543" on="0"/>
        <pt x="140" y="-1600" on="1"/>
        <pt x="-188" y="-1600" on="1"/>
        <pt x="-271" y="-1600" on="0"/>
        <pt x="-383" y="-1525" on="1"/>
        <pt x="-457" y="-1578" on="0"/>
        <pt x="-598" y="-1600" on="1"/>
        <pt x="-852" y="-1600" on="1"/>
        <pt x="-931" y="-1600" on="0"/>
        <pt x="-1170" y="-1475" on="0"/>
        <pt x="-1190" y="-1409" on="1"/>
        <pt x="-991" y="-1247" on="1"/>
        <pt x="-985" y="-1219" on="1"/>
        <pt x="-984" y="-1215" on="0"/>
        <pt x="-984" y="-1210" on="1"/>
        <pt x="-984" y="-1187" on="0"/>
        <pt x="-1006" y="-1159" on="1"/>
        <pt x="-1029" y="-1132" on="0"/>
        <pt x="-1046" y="-1132" on="1"/>
        <pt x="-1049" y="-1132" on="0"/>
        <pt x="-1052" y="-1133" on="1"/>
        <pt x="-1060" y="-1136" on="0"/>
        <pt x="-1060" y="-1142" on="1"/>
        <pt x="-1060" y="-1151" on="0"/>
        <pt x="-1043" y="-1167" on="1"/>
        <pt x="-1030" y="-1180" on="0"/>
        <pt x="-1030" y="-1192" on="1"/>
        <pt x="-1030" y="-1207" on="0"/>
        <pt x="-1049" y="-1220" on="1"/>
        <pt x="-1070" y="-1236" on="0"/>
        <pt x="-1097" y="-1236" on="1"/>
        <pt x="-1116" y="-1236" on="0"/>
        <pt x="-1137" y="-1229" on="1"/>
        <pt x="-1190" y="-1212" on="0"/>
        <pt x="-1190" y="-1155" on="1"/>
        <pt x="-1190" y="-1098" on="0"/>
        <pt x="-1050" y="-1000" on="0"/>
        <pt x="-993" y="-1000" on="1"/>
        <pt x="-936" y="-1000" on="0"/>
        <pt x="-795" y="-1172" on="0"/>
        <pt x="-795" y="-1208" on="1"/>
        <pt x="-795" y="-1246" on="1"/>
        <pt x="-795" y="-1276" on="0"/>
        <pt x="-926" y="-1404" on="1"/>
        <pt x="-892" y="-1448" on="0"/>
        <pt x="-812" y="-1458" on="1"/>
        <pt x="-598" y="-1458" on="1"/>
        <pt x="-482" y="-1440" on="0"/>
        <pt x="-482" y="-1369" on="1"/>
        <pt x="-482" y="-1360" on="0"/>
        <pt x="-484" y="-1350" on="1"/>
        <pt x="-484" y="-1284" on="1"/>
        <pt x="-490" y="-1230" on="0"/>
        <pt x="-605" y="-1213" on="1"/>
        <pt x="-410" y="-1000" on="1"/>
        <pt x="-270" y="-1064" on="0"/>
        <pt x="-210" y="-1064" on="1"/>
        <pt x="-199" y="-1064" on="0"/>
        <pt x="-191" y="-1062" on="1"/>
        <pt x="-204" y="-1155" on="0"/>
        <pt x="-245" y="-1164" on="1"/>
        <pt x="-253" y="-1166" on="0"/>
        <pt x="-264" y="-1166" on="1"/>
        <pt x="-309" y="-1166" on="0"/>
        <pt x="-402" y="-1135" on="1"/>
        <pt x="-424" y="-1171" on="1"/>
        <pt x="-316" y="-1206" on="0"/>
        <pt x="-303" y="-1276" on="1"/>
        <pt x="-303" y="-1398" on="1"/>
        <pt x="-256" y="-1430" on="0"/>
        <pt x="-162" y="-1458" on="1"/>
        <pt x="90" y="-1458" on="1"/>
        <pt x="245" y="-1423" on="0"/>
        <pt x="300" y="-1352" on="1"/>
      </contour>
    </TTGlyph>
    <TTGlyph name="glyph188" xMin="-1470" yMin="-1600" xMax="700" yMax="1500">
      <contour>
        <pt x="500" y="-1381" on="1"/>
        <pt x="425" y="-1543" on="0"/>
        <pt x="210" y="-1600" on="1"/>
        <pt x="-28" y="-1600" on="1"/>
        <pt x="-111" y="-1600" on="0"/>
        <pt x="-223" y="-1525" on="1"/>
        <pt x="-297" y="-1578" on="0"/>
        <pt x="-438" y="-1600" on="1"/>
        <pt x="-622" y="-1600" on="1"/>
        <pt x="-701" y="-1600" on="0"/>
        <pt x="-940" y="-1475" on="0"/>
        <pt x="-960" y="-1409" on="1"/>
        <pt x="-761" y="-1247" on="1"/>
        <pt x="-759" y="-1243" on="0"/>
        <pt x="-759" y="-1238" on="1"/>
        <pt x="-759" y="-1215" on="0"/>
        <pt x="-812" y="-1195" on="1"/>
        <pt x="-1000" y="-1129" on="1"/>
        <pt x="-1270" y="-1218" on="1"/>
        <pt x="-1270" y="-1296" on="1"/>
        <pt x="-1270" y="-1408" on="0"/>
        <pt x="-1177" y="-1440" on="1"/>
        <pt x="-1107" y="-1464" on="0"/>
        <pt x="-1107" y="-1508" on="1"/>
        <pt x="-1107" y="-1521" on="0"/>
        <pt x="-1113" y="-1536" on="1"/>
        <pt x="-1142" y="-1600" on="0"/>
        <pt x="-1230" y="-1600" on="1"/>
        <pt x="-1311" y="-1600" on="0"/>
        <pt x="-1470" y="-1472" on="0"/>
        <pt x="-1470" y="-1429" on="1"/>
        <pt x="-1470" y="-1192" on="1"/>
        <pt x="-1470" y="-1151" on="0"/>
        <pt x="-1407" y="-1131" on="1"/>
        <pt x="-1000" y="-1000" on="1"/>
        <pt x="-612" y="-1131" on="1"/>
        <pt x="-557" y="-1149" on="0"/>
        <pt x="-557" y="-1201" on="1"/>
        <pt x="-557" y="-1213" on="1"/>
        <pt x="-565" y="-1276" on="0"/>
        <pt x="-696" y="-1404" on="1"/>
        <pt x="-662" y="-1448" on="0"/>
        <pt x="-582" y="-1458" on="1"/>
        <pt x="-438" y="-1458" on="1"/>
        <pt x="-322" y="-1440" on="0"/>
        <pt x="-322" y="-1369" on="1"/>
        <pt x="-322" y="-1360" on="0"/>
        <pt x="-324" y="-1350" on="1"/>
        <pt x="-324" y="-1284" on="1"/>
        <pt x="-330" y="-1230" on="0"/>
        <pt x="-445" y="-1213" on="1"/>
        <pt x="-250" y="-1000" on="1"/>
        <pt x="-110" y="-1064" on="0"/>
        <pt x="-50" y="-1064" on="1"/>
        <pt x="-39" y="-1064" on="0"/>
        <pt x="-31" y="-1062" on="1"/>
        <pt x="-44" y="-1155" on="0"/>
        <pt x="-85" y="-1164" on="1"/>
        <pt x="-93" y="-1166" on="0"/>
        <pt x="-104" y="-1166" on="1"/>
        <pt x="-149" y="-1166" on="0"/>
        <pt x="-242" y="-1135" on="1"/>
        <pt x="-264" y="-1171" on="1"/>
        <pt x="-156" y="-1206" on="0"/>
        <pt x="-143" y="-1276" on="1"/>
        <pt x="-143" y="-1398" on="1"/>
        <pt x="-96" y="-1430" on="0"/>
        <pt x="-2" y="-1458" on="1"/>
        <pt x="160" y="-1458" on="1"/>
        <pt x="245" y="-1423" on="0"/>
        <pt x="300" y="-1352" on="1"/>
        <pt x="300" y="876" on="1"/>
        <pt x="300" y="1012" on="0"/>
        <pt x="100" y="1052" on="1"/>
        <pt x="386" y="1500" on="1"/>
        <pt x="583" y="1337" on="0"/>
        <pt x="670" y="1337" on="1"/>
        <pt x="687" y="1337" on="0"/>
        <pt x="700" y="1343" on="1"/>
        <pt x="680" y="1200" on="0"/>
        <pt x="618" y="1176" on="1"/>
        <pt x="605" y="1171" on="0"/>
        <pt x="589" y="1171" on="1"/>
        <pt x="524" y="1171" on="0"/>
        <pt x="399" y="1249" on="1"/>
        <pt x="341" y="1164" on="1"/>
        <pt x="500" y="1082" on="0"/>
        <pt x="500" y="946" on="1"/>
      </contour>
    </TTGlyph>
    <TTGlyph name="glyph189" xMin="-1400" yMin="-1600" xMax="700" yMax="1500">
      <contour>
        <pt x="-1200" y="-1450" on="1"/>
        <pt x="-1180" y="-1493" on="0"/>
        <pt x="-1155" y="-1493" on="1"/>
        <pt x="-1130" y="-1493" on="0"/>
        <pt x="-1091" y="-1464" on="0"/>
        <pt x="-1091" y="-1435" on="1"/>
        <pt x="-1091" y="-1392" on="0"/>
        <pt x="-1124" y="-1392" on="1"/>
        <pt x="-1200" y="-1392" on="0"/>
      </contour>
      <contour>
        <pt x="500" y="-1319" on="1"/>
        <pt x="500" y="-1600" on="0"/>
        <pt x="163" y="-1600" on="1"/>
        <pt x="-8" y="-1600" on="0"/>
        <pt x="-109" y="-1490" on="1"/>
        <pt x="-169" y="-1424" on="0"/>
        <pt x="-274" y="-1424" on="1"/>
        <pt x="-400" y="-1424" on="1"/>
        <pt x="-400" y="-1512" on="1"/>
        <pt x="-400" y="-1600" on="0"/>
        <pt x="-500" y="-1600" on="1"/>
        <pt x="-600" y="-1600" on="0"/>
        <pt x="-750" y="-1453" on="0"/>
        <pt x="-750" y="-1368" on="1"/>
        <pt x="-750" y="-1284" on="0"/>
        <pt x="-600" y="-1284" on="1"/>
        <pt x="-600" y="-1210" on="1"/>
        <pt x="-700" y="-1154" on="1"/>
        <pt x="-900" y="-1248" on="1"/>
        <pt x="-1100" y="-1154" on="1"/>
        <pt x="-1200" y="-1210" on="1"/>
        <pt x="-1200" y="-1314" on="1"/>
        <pt x="-1167" y="-1291" on="0"/>
        <pt x="-1124" y="-1291" on="1"/>
        <pt x="-925" y="-1291" on="0"/>
        <pt x="-925" y="-1435" on="1"/>
        <pt x="-925" y="-1496" on="0"/>
        <pt x="-1072" y="-1600" on="0"/>
        <pt x="-1160" y="-1600" on="1"/>
        <pt x="-1241" y="-1600" on="0"/>
        <pt x="-1400" y="-1496" on="0"/>
        <pt x="-1400" y="-1450" on="1"/>
        <pt x="-1400" y="-1193" on="1"/>
        <pt x="-1400" y="-1152" on="0"/>
        <pt x="-1327" y="-1113" on="1"/>
        <pt x="-1112" y="-1000" on="1"/>
        <pt x="-900" y="-1093" on="1"/>
        <pt x="-690" y="-1000" on="1"/>
        <pt x="-474" y="-1113" on="1"/>
        <pt x="-400" y="-1152" on="0"/>
        <pt x="-400" y="-1193" on="1"/>
        <pt x="-400" y="-1284" on="1"/>
        <pt x="-277" y="-1284" on="1"/>
        <pt x="-87" y="-1284" on="0"/>
        <pt x="24" y="-1415" on="1"/>
        <pt x="61" y="-1459" on="0"/>
        <pt x="161" y="-1459" on="1"/>
        <pt x="300" y="-1459" on="0"/>
        <pt x="300" y="-1319" on="1"/>
        <pt x="300" y="876" on="1"/>
        <pt x="300" y="1012" on="0"/>
        <pt x="100" y="1052" on="1"/>
        <pt x="386" y="1500" on="1"/>
        <pt x="583" y="1337" on="0"/>
        <pt x="670" y="1337" on="1"/>
        <pt x="687" y="1337" on="0"/>
        <pt x="700" y="1343" on="1"/>
        <pt x="680" y="1200" on="0"/>
        <pt x="618" y="1176" on="1"/>
        <pt x="605" y="1171" on="0"/>
        <pt x="589" y="1171" on="1"/>
        <pt x="524" y="1171" on="0"/>
        <pt x="399" y="1249" on="1"/>
        <pt x="341" y="1164" on="1"/>
        <pt x="500" y="1082" on="0"/>
        <pt x="500" y="946" on="1"/>
      </contour>
    </TTGlyph>
    <TTGlyph name="glyph190" xMin="-650" yMin="-1600" xMax="700" yMax="1500">
      <contour>
        <pt x="500" y="-1407" on="1"/>
        <pt x="440" y="-1547" on="0"/>
        <pt x="267" y="-1600" on="1"/>
        <pt x="1" y="-1416" on="1"/>
        <pt x="-149" y="-1551" on="1"/>
        <pt x="-187" y="-1600" on="0"/>
        <pt x="-276" y="-1600" on="1"/>
        <pt x="-366" y="-1600" on="0"/>
        <pt x="-437" y="-1553" on="1"/>
        <pt x="-579" y="-1459" on="1"/>
        <pt x="-650" y="-1412" on="0"/>
        <pt x="-650" y="-1360" on="1"/>
        <pt x="-650" y="-1282" on="0"/>
        <pt x="-595" y="-1229" on="1"/>
        <pt x="-389" y="-1032" on="1"/>
        <pt x="-356" y="-1000" on="0"/>
        <pt x="-322" y="-1000" on="1"/>
        <pt x="-291" y="-1000" on="0"/>
        <pt x="-259" y="-1025" on="1"/>
        <pt x="-222" y="-1055" on="0"/>
        <pt x="-222" y="-1088" on="1"/>
        <pt x="-222" y="-1116" on="0"/>
        <pt x="-247" y="-1146" on="1"/>
        <pt x="-433" y="-1328" on="1"/>
        <pt x="-300" y="-1428" on="1"/>
        <pt x="-9" y="-1190" on="1"/>
        <pt x="300" y="-1407" on="1"/>
        <pt x="300" y="876" on="1"/>
        <pt x="300" y="1012" on="0"/>
        <pt x="100" y="1052" on="1"/>
        <pt x="386" y="1500" on="1"/>
        <pt x="583" y="1337" on="0"/>
        <pt x="670" y="1337" on="1"/>
        <pt x="687" y="1337" on="0"/>
        <pt x="700" y="1343" on="1"/>
        <pt x="680" y="1200" on="0"/>
        <pt x="618" y="1176" on="1"/>
        <pt x="605" y="1171" on="0"/>
        <pt x="589" y="1171" on="1"/>
        <pt x="524" y="1171" on="0"/>
        <pt x="399" y="1249" on="1"/>
        <pt x="341" y="1164" on="1"/>
        <pt x="500" y="1082" on="0"/>
        <pt x="500" y="946" on="1"/>
      </contour>
    </TTGlyph>
    <TTGlyph name="glyph191" xMin="-500" yMin="-1600" xMax="700" yMax="1500">
      <contour>
        <pt x="500" y="-1320" on="1"/>
        <pt x="500" y="-1600" on="0"/>
        <pt x="150" y="-1600" on="1"/>
        <pt x="-150" y="-1600" on="1"/>
        <pt x="-500" y="-1600" on="0"/>
        <pt x="-500" y="-1320" on="1"/>
        <pt x="-500" y="-1112" on="1"/>
        <pt x="-500" y="-1000" on="0"/>
        <pt x="-350" y="-1000" on="1"/>
        <pt x="-200" y="-1000" on="0"/>
        <pt x="-200" y="-1080" on="1"/>
        <pt x="-200" y="-1160" on="0"/>
        <pt x="-300" y="-1160" on="1"/>
        <pt x="-300" y="-1320" on="1"/>
        <pt x="-300" y="-1440" on="0"/>
        <pt x="-150" y="-1440" on="1"/>
        <pt x="150" y="-1440" on="1"/>
        <pt x="300" y="-1440" on="0"/>
        <pt x="300" y="-1320" on="1"/>
        <pt x="300" y="876" on="1"/>
        <pt x="300" y="1012" on="0"/>
        <pt x="100" y="1052" on="1"/>
        <pt x="386" y="1500" on="1"/>
        <pt x="583" y="1337" on="0"/>
        <pt x="670" y="1337" on="1"/>
        <pt x="687" y="1337" on="0"/>
        <pt x="700" y="1343" on="1"/>
        <pt x="680" y="1200" on="0"/>
        <pt x="608" y="1176" on="1"/>
        <pt x="593" y="1171" on="0"/>
        <pt x="576" y="1171" on="1"/>
        <pt x="508" y="1171" on="0"/>
        <pt x="399" y="1249" on="1"/>
        <pt x="341" y="1164" on="1"/>
        <pt x="500" y="1082" on="0"/>
        <pt x="500" y="946" on="1"/>
      </contour>
    </TTGlyph>
    <TTGlyph name="glyph192" xMin="300" yMin="-1600" xMax="2019" yMax="2900">
      <contour>
        <pt x="300" y="2400" on="1"/>
        <pt x="500" y="2700" on="0"/>
        <pt x="800" y="2900" on="1"/>
        <pt x="1600" y="2900" on="1"/>
        <pt x="1856" y="2730" on="0"/>
        <pt x="1970" y="2583" on="1"/>
        <pt x="2019" y="2517" on="0"/>
        <pt x="2019" y="2471" on="1"/>
        <pt x="2019" y="2431" on="0"/>
        <pt x="1983" y="2405" on="1"/>
        <pt x="1953" y="2383" on="0"/>
        <pt x="1924" y="2383" on="1"/>
        <pt x="1877" y="2383" on="0"/>
        <pt x="1832" y="2441" on="1"/>
        <pt x="1737" y="2559" on="0"/>
        <pt x="1540" y="2700" on="1"/>
        <pt x="860" y="2700" on="1"/>
        <pt x="650" y="2550" on="0"/>
        <pt x="500" y="2350" on="1"/>
        <pt x="500" y="-1050" on="1"/>
        <pt x="650" y="-1250" on="0"/>
        <pt x="860" y="-1400" on="1"/>
        <pt x="1540" y="-1400" on="1"/>
        <pt x="1737" y="-1259" on="0"/>
        <pt x="1832" y="-1141" on="1"/>
        <pt x="1877" y="-1083" on="0"/>
        <pt x="1924" y="-1083" on="1"/>
        <pt x="1953" y="-1083" on="0"/>
        <pt x="1983" y="-1105" on="1"/>
        <pt x="2019" y="-1131" on="0"/>
        <pt x="2019" y="-1171" on="1"/>
        <pt x="2019" y="-1217" on="0"/>
        <pt x="1970" y="-1283" on="1"/>
        <pt x="1856" y="-1430" on="0"/>
        <pt x="1600" y="-1600" on="1"/>
        <pt x="800" y="-1600" on="1"/>
        <pt x="500" y="-1400" on="0"/>
        <pt x="300" y="-1100" on="1"/>
      </contour>
    </TTGlyph>
    <TTGlyph name="glyph193" xMin="-650" yMin="-1600" xMax="750" yMax="1500">
      <contour>
        <pt x="500" y="-1422" on="1"/>
        <pt x="500" y="-1600" on="0"/>
        <pt x="384" y="-1600" on="1"/>
        <pt x="267" y="-1600" on="0"/>
        <pt x="179" y="-1555" on="1"/>
        <pt x="92" y="-1510" on="1"/>
        <pt x="-49" y="-1438" on="1"/>
        <pt x="-149" y="-1555" on="1"/>
        <pt x="-187" y="-1600" on="0"/>
        <pt x="-276" y="-1600" on="1"/>
        <pt x="-366" y="-1600" on="0"/>
        <pt x="-439" y="-1574" on="1"/>
        <pt x="-511" y="-1549" on="1"/>
        <pt x="-650" y="-1499" on="0"/>
        <pt x="-650" y="-1427" on="1"/>
        <pt x="-650" y="-1356" on="0"/>
        <pt x="-595" y="-1307" on="1"/>
        <pt x="-539" y="-1258" on="1"/>
        <pt x="-500" y="-1226" on="0"/>
        <pt x="-500" y="-1192" on="1"/>
        <pt x="-500" y="-1160" on="0"/>
        <pt x="-549" y="-1160" on="1"/>
        <pt x="-646" y="-1160" on="0"/>
        <pt x="-646" y="-1084" on="1"/>
        <pt x="-646" y="-1082" on="0"/>
        <pt x="-645" y="-1080" on="1"/>
        <pt x="-643" y="-1000" on="0"/>
        <pt x="-546" y="-1000" on="1"/>
        <pt x="-300" y="-1000" on="0"/>
        <pt x="-300" y="-1192" on="1"/>
        <pt x="-300" y="-1261" on="0"/>
        <pt x="-376" y="-1325" on="1"/>
        <pt x="-453" y="-1389" on="1"/>
        <pt x="-300" y="-1441" on="1"/>
        <pt x="-77" y="-1244" on="1"/>
        <pt x="300" y="-1422" on="1"/>
        <pt x="300" y="-265" on="1"/>
        <pt x="239" y="-249" on="1"/>
        <pt x="155" y="-227" on="0"/>
        <pt x="155" y="-161" on="1"/>
        <pt x="155" y="-145" on="0"/>
        <pt x="161" y="-125" on="1"/>
        <pt x="182" y="-49" on="0"/>
        <pt x="247" y="-49" on="1"/>
        <pt x="265" y="-49" on="0"/>
        <pt x="286" y="-55" on="1"/>
        <pt x="300" y="-58" on="1"/>
        <pt x="300" y="876" on="1"/>
        <pt x="300" y="1012" on="0"/>
        <pt x="100" y="1052" on="1"/>
        <pt x="386" y="1500" on="1"/>
        <pt x="583" y="1337" on="0"/>
        <pt x="670" y="1337" on="1"/>
        <pt x="687" y="1337" on="0"/>
        <pt x="700" y="1343" on="1"/>
        <pt x="680" y="1200" on="0"/>
        <pt x="618" y="1176" on="1"/>
        <pt x="605" y="1171" on="0"/>
        <pt x="589" y="1171" on="1"/>
        <pt x="524" y="1171" on="0"/>
        <pt x="399" y="1249" on="1"/>
        <pt x="341" y="1164" on="1"/>
        <pt x="500" y="1082" on="0"/>
        <pt x="500" y="946" on="1"/>
        <pt x="500" y="-112" on="1"/>
        <pt x="588" y="-138" on="0"/>
        <pt x="670" y="-184" on="1"/>
        <pt x="750" y="-227" on="0"/>
        <pt x="750" y="-269" on="1"/>
        <pt x="750" y="-276" on="0"/>
        <pt x="748" y="-282" on="1"/>
        <pt x="735" y="-329" on="0"/>
        <pt x="636" y="-329" on="1"/>
        <pt x="632" y="-329" on="1"/>
        <pt x="565" y="-327" on="0"/>
        <pt x="500" y="-315" on="1"/>
      </contour>
    </TTGlyph>
    <TTGlyph name="glyph194" xMin="-1120" yMin="1850" xMax="0" yMax="2450">
      <contour>
        <pt x="-1120" y="1950" on="1"/>
        <pt x="-1120" y="2050" on="0"/>
        <pt x="-1060" y="2150" on="1"/>
        <pt x="-940" y="2350" on="1"/>
        <pt x="-880" y="2450" on="0"/>
        <pt x="-829" y="2450" on="1"/>
        <pt x="-778" y="2450" on="0"/>
        <pt x="-700" y="2406" on="1"/>
        <pt x="-157" y="2101" on="1"/>
        <pt x="-2" y="2015" on="0"/>
        <pt x="-1" y="1933" on="1"/>
        <pt x="0" y="1932" on="0"/>
        <pt x="0" y="1931" on="1"/>
        <pt x="0" y="1850" on="0"/>
        <pt x="-145" y="1850" on="1"/>
        <pt x="-900" y="1850" on="1"/>
        <pt x="-1120" y="1850" on="0"/>
      </contour>
      <contour>
        <pt x="-900" y="2050" on="1"/>
        <pt x="-440" y="2050" on="1"/>
        <pt x="-802" y="2229" on="1"/>
      </contour>
    </TTGlyph>
    <TTGlyph name="glyph195" xMin="-1120" yMin="1850" xMax="0" yMax="2500">
      <contour>
        <pt x="-900" y="2050" on="1"/>
        <pt x="-440" y="2050" on="1"/>
        <pt x="-802" y="2229" on="1"/>
      </contour>
      <contour>
        <pt x="0" y="1933" on="1"/>
        <pt x="0" y="1850" on="0"/>
        <pt x="-145" y="1850" on="1"/>
        <pt x="-900" y="1850" on="1"/>
        <pt x="-1120" y="1850" on="0"/>
        <pt x="-1120" y="1950" on="1"/>
        <pt x="-1120" y="2050" on="0"/>
        <pt x="-1060" y="2150" on="1"/>
        <pt x="-940" y="2350" on="1"/>
        <pt x="-880" y="2450" on="0"/>
        <pt x="-829" y="2450" on="1"/>
        <pt x="-778" y="2450" on="0"/>
        <pt x="-700" y="2406" on="1"/>
        <pt x="-200" y="2125" on="1"/>
        <pt x="-200" y="2400" on="1"/>
        <pt x="-200" y="2500" on="0"/>
        <pt x="-100" y="2500" on="1"/>
        <pt x="0" y="2500" on="0"/>
        <pt x="0" y="2400" on="1"/>
      </contour>
    </TTGlyph>
    <TTGlyph name="glyph196" xMin="-1120" yMin="1850" xMax="0" yMax="2500">
      <contour>
        <pt x="-900" y="2050" on="1"/>
        <pt x="-440" y="2050" on="1"/>
        <pt x="-802" y="2229" on="1"/>
      </contour>
      <contour>
        <pt x="-325" y="2250" on="1"/>
        <pt x="-325" y="2213" on="0"/>
        <pt x="-305" y="2194" on="1"/>
        <pt x="-286" y="2175" on="0"/>
        <pt x="-250" y="2175" on="1"/>
        <pt x="-211" y="2175" on="0"/>
        <pt x="-193" y="2194" on="1"/>
        <pt x="-175" y="2213" on="0"/>
        <pt x="-175" y="2250" on="1"/>
        <pt x="-175" y="2288" on="0"/>
        <pt x="-193" y="2306" on="1"/>
        <pt x="-211" y="2325" on="0"/>
        <pt x="-250" y="2325" on="1"/>
        <pt x="-286" y="2325" on="0"/>
        <pt x="-305" y="2306" on="1"/>
        <pt x="-325" y="2288" on="0"/>
      </contour>
      <contour>
        <pt x="-76" y="2048" on="1"/>
        <pt x="-1" y="1990" on="0"/>
        <pt x="-1" y="1933" on="1"/>
        <pt x="0" y="1932" on="0"/>
        <pt x="0" y="1931" on="1"/>
        <pt x="0" y="1850" on="0"/>
        <pt x="-145" y="1850" on="1"/>
        <pt x="-900" y="1850" on="1"/>
        <pt x="-1120" y="1850" on="0"/>
        <pt x="-1120" y="1950" on="1"/>
        <pt x="-1120" y="2050" on="0"/>
        <pt x="-1060" y="2150" on="1"/>
        <pt x="-940" y="2350" on="1"/>
        <pt x="-880" y="2450" on="0"/>
        <pt x="-829" y="2450" on="1"/>
        <pt x="-778" y="2450" on="0"/>
        <pt x="-700" y="2406" on="1"/>
        <pt x="-498" y="2293" on="1"/>
        <pt x="-488" y="2386" on="0"/>
        <pt x="-437" y="2438" on="1"/>
        <pt x="-375" y="2500" on="0"/>
        <pt x="-250" y="2500" on="1"/>
        <pt x="-123" y="2500" on="0"/>
        <pt x="-61" y="2438" on="1"/>
        <pt x="0" y="2375" on="0"/>
        <pt x="0" y="2250" on="1"/>
        <pt x="0" y="2125" on="0"/>
        <pt x="-61" y="2062" on="1"/>
        <pt x="-68" y="2055" on="0"/>
      </contour>
    </TTGlyph>
    <TTGlyph name="glyph197" xMin="-1120" yMin="1850" xMax="0" yMax="2500">
      <contour>
        <pt x="-900" y="2050" on="1"/>
        <pt x="-440" y="2050" on="1"/>
        <pt x="-802" y="2229" on="1"/>
      </contour>
      <contour>
        <pt x="-310" y="2187" on="1"/>
        <pt x="-200" y="2125" on="1"/>
        <pt x="-200" y="2400" on="1"/>
        <pt x="-200" y="2500" on="0"/>
        <pt x="-100" y="2500" on="1"/>
        <pt x="0" y="2500" on="0"/>
        <pt x="0" y="2400" on="1"/>
        <pt x="0" y="1933" on="1"/>
        <pt x="0" y="1850" on="0"/>
        <pt x="-145" y="1850" on="1"/>
        <pt x="-900" y="1850" on="1"/>
        <pt x="-1120" y="1850" on="0"/>
        <pt x="-1120" y="1950" on="1"/>
        <pt x="-1120" y="2050" on="0"/>
        <pt x="-1060" y="2150" on="1"/>
        <pt x="-940" y="2350" on="1"/>
        <pt x="-880" y="2450" on="0"/>
        <pt x="-829" y="2450" on="1"/>
        <pt x="-778" y="2450" on="0"/>
        <pt x="-700" y="2406" on="1"/>
        <pt x="-510" y="2299" on="1"/>
        <pt x="-510" y="2400" on="1"/>
        <pt x="-510" y="2500" on="0"/>
        <pt x="-410" y="2500" on="1"/>
        <pt x="-310" y="2500" on="0"/>
        <pt x="-310" y="2400" on="1"/>
      </contour>
    </TTGlyph>
    <TTGlyph name="glyph198" xMin="-705" yMin="1850" xMax="-205" yMax="2350">
      <contour>
        <pt x="-530" y="2100" on="1"/>
        <pt x="-530" y="2063" on="0"/>
        <pt x="-510" y="2044" on="1"/>
        <pt x="-491" y="2025" on="0"/>
        <pt x="-455" y="2025" on="1"/>
        <pt x="-416" y="2025" on="0"/>
        <pt x="-398" y="2044" on="1"/>
        <pt x="-380" y="2063" on="0"/>
        <pt x="-380" y="2100" on="1"/>
        <pt x="-380" y="2138" on="0"/>
        <pt x="-398" y="2156" on="1"/>
        <pt x="-416" y="2175" on="0"/>
        <pt x="-455" y="2175" on="1"/>
        <pt x="-491" y="2175" on="0"/>
        <pt x="-510" y="2156" on="1"/>
        <pt x="-530" y="2138" on="0"/>
      </contour>
      <contour>
        <pt x="-205" y="2100" on="1"/>
        <pt x="-205" y="1975" on="0"/>
        <pt x="-266" y="1912" on="1"/>
        <pt x="-328" y="1850" on="0"/>
        <pt x="-455" y="1850" on="1"/>
        <pt x="-580" y="1850" on="0"/>
        <pt x="-642" y="1912" on="1"/>
        <pt x="-705" y="1975" on="0"/>
        <pt x="-705" y="2100" on="1"/>
        <pt x="-705" y="2225" on="0"/>
        <pt x="-642" y="2288" on="1"/>
        <pt x="-580" y="2350" on="0"/>
        <pt x="-455" y="2350" on="1"/>
        <pt x="-328" y="2350" on="0"/>
        <pt x="-266" y="2288" on="1"/>
        <pt x="-205" y="2225" on="0"/>
      </contour>
    </TTGlyph>
    <TTGlyph name="glyph199" xMin="-870" yMin="1850" xMax="-200" yMax="2500">
      <contour>
        <pt x="-200" y="1984" on="1"/>
        <pt x="-200" y="1877" on="0"/>
        <pt x="-300" y="1850" on="1"/>
        <pt x="-400" y="1877" on="0"/>
        <pt x="-400" y="1984" on="1"/>
        <pt x="-400" y="2270" on="1"/>
        <pt x="-400" y="2310" on="0"/>
        <pt x="-470" y="2350" on="0"/>
        <pt x="-470" y="2425" on="1"/>
        <pt x="-470" y="2500" on="0"/>
        <pt x="-370" y="2500" on="1"/>
        <pt x="-200" y="2500" on="0"/>
        <pt x="-200" y="2270" on="1"/>
      </contour>
      <contour>
        <pt x="-600" y="1984" on="1"/>
        <pt x="-600" y="1877" on="0"/>
        <pt x="-700" y="1850" on="1"/>
        <pt x="-800" y="1877" on="0"/>
        <pt x="-800" y="1984" on="1"/>
        <pt x="-800" y="2270" on="1"/>
        <pt x="-800" y="2310" on="0"/>
        <pt x="-870" y="2350" on="0"/>
        <pt x="-870" y="2425" on="1"/>
        <pt x="-870" y="2500" on="0"/>
        <pt x="-770" y="2500" on="1"/>
        <pt x="-600" y="2500" on="0"/>
        <pt x="-600" y="2270" on="1"/>
      </contour>
    </TTGlyph>
    <TTGlyph name="glyph200" xMin="-808" yMin="1850" xMax="300" yMax="2798">
      <contour>
        <pt x="298" y="2728" on="1"/>
        <pt x="300" y="2715" on="0"/>
        <pt x="300" y="2702" on="1"/>
        <pt x="300" y="2653" on="0"/>
        <pt x="261" y="2599" on="1"/>
        <pt x="210" y="2530" on="0"/>
        <pt x="-73" y="2244" on="0"/>
        <pt x="-254" y="2162" on="0"/>
        <pt x="-299" y="2162" on="1"/>
        <pt x="-396" y="2244" on="0"/>
        <pt x="-479" y="2244" on="1"/>
        <pt x="-538" y="2244" on="0"/>
        <pt x="-608" y="2161" on="0"/>
        <pt x="-608" y="2122" on="1"/>
        <pt x="-608" y="2047" on="0"/>
        <pt x="-532" y="2047" on="1"/>
        <pt x="-466" y="2047" on="0"/>
        <pt x="-466" y="2073" on="1"/>
        <pt x="-466" y="2089" on="0"/>
        <pt x="-374" y="2089" on="1"/>
        <pt x="-282" y="2089" on="0"/>
        <pt x="-282" y="2024" on="1"/>
        <pt x="-282" y="1938" on="0"/>
        <pt x="-340" y="1894" on="1"/>
        <pt x="-398" y="1850" on="0"/>
        <pt x="-525" y="1850" on="1"/>
        <pt x="-662" y="1850" on="0"/>
        <pt x="-808" y="1979" on="0"/>
        <pt x="-808" y="2120" on="1"/>
        <pt x="-808" y="2277" on="0"/>
        <pt x="-650" y="2450" on="0"/>
        <pt x="-518" y="2450" on="1"/>
        <pt x="-352" y="2450" on="0"/>
        <pt x="-288" y="2377" on="1"/>
        <pt x="-189" y="2414" on="0"/>
        <pt x="96" y="2720" on="0"/>
        <pt x="125" y="2763" on="1"/>
        <pt x="149" y="2798" on="0"/>
        <pt x="197" y="2798" on="1"/>
        <pt x="208" y="2798" on="0"/>
        <pt x="219" y="2796" on="1"/>
        <pt x="284" y="2787" on="0"/>
      </contour>
    </TTGlyph>
    <TTGlyph name="glyph201" xMin="-1120" yMin="1850" xMax="398" yMax="2608">
      <contour>
        <pt x="-900" y="2050" on="1"/>
        <pt x="-440" y="2050" on="1"/>
        <pt x="-802" y="2229" on="1"/>
      </contour>
      <contour>
        <pt x="-28" y="2002" on="1"/>
        <pt x="-1" y="1967" on="0"/>
        <pt x="-1" y="1933" on="1"/>
        <pt x="0" y="1932" on="0"/>
        <pt x="0" y="1931" on="1"/>
        <pt x="0" y="1850" on="0"/>
        <pt x="-145" y="1850" on="1"/>
        <pt x="-900" y="1850" on="1"/>
        <pt x="-1120" y="1850" on="0"/>
        <pt x="-1120" y="1950" on="1"/>
        <pt x="-1120" y="2050" on="0"/>
        <pt x="-1060" y="2150" on="1"/>
        <pt x="-940" y="2350" on="1"/>
        <pt x="-880" y="2450" on="0"/>
        <pt x="-829" y="2450" on="1"/>
        <pt x="-778" y="2450" on="0"/>
        <pt x="-700" y="2406" on="1"/>
        <pt x="-450" y="2266" on="1"/>
        <pt x="-437" y="2364" on="0"/>
        <pt x="-380" y="2424" on="1"/>
        <pt x="-306" y="2500" on="0"/>
        <pt x="-184" y="2500" on="1"/>
        <pt x="-29" y="2500" on="0"/>
        <pt x="30" y="2435" on="1"/>
        <pt x="122" y="2468" on="0"/>
        <pt x="221" y="2572" on="1"/>
        <pt x="259" y="2608" on="0"/>
        <pt x="296" y="2608" on="1"/>
        <pt x="330" y="2608" on="0"/>
        <pt x="363" y="2578" on="1"/>
        <pt x="398" y="2547" on="0"/>
        <pt x="398" y="2514" on="1"/>
        <pt x="398" y="2480" on="0"/>
        <pt x="362" y="2444" on="1"/>
        <pt x="230" y="2318" on="0"/>
        <pt x="62" y="2245" on="0"/>
        <pt x="20" y="2245" on="1"/>
        <pt x="-70" y="2318" on="0"/>
        <pt x="-147" y="2318" on="1"/>
        <pt x="-202" y="2318" on="0"/>
        <pt x="-267" y="2245" on="0"/>
        <pt x="-267" y="2210" on="1"/>
        <pt x="-267" y="2144" on="0"/>
        <pt x="-197" y="2144" on="1"/>
        <pt x="-135" y="2144" on="0"/>
        <pt x="-135" y="2167" on="1"/>
        <pt x="-135" y="2181" on="0"/>
        <pt x="-50" y="2181" on="1"/>
        <pt x="36" y="2181" on="0"/>
        <pt x="36" y="2124" on="1"/>
        <pt x="36" y="2048" on="0"/>
        <pt x="-18" y="2009" on="1"/>
        <pt x="-23" y="2005" on="0"/>
      </contour>
    </TTGlyph>
    <TTGlyph name="glyph202" xMin="-1700" yMin="-950" xMax="400" yMax="-100">
      <contour>
        <pt x="400" y="-850" on="1"/>
        <pt x="400" y="-950" on="0"/>
        <pt x="319" y="-950" on="1"/>
        <pt x="237" y="-950" on="0"/>
        <pt x="50" y="-870" on="0"/>
        <pt x="50" y="-787" on="1"/>
        <pt x="50" y="-704" on="0"/>
        <pt x="200" y="-620" on="0"/>
        <pt x="200" y="-560" on="1"/>
        <pt x="200" y="-502" on="1"/>
        <pt x="-180" y="-303" on="1"/>
        <pt x="-550" y="-502" on="1"/>
        <pt x="-550" y="-850" on="1"/>
        <pt x="-550" y="-950" on="0"/>
        <pt x="-631" y="-950" on="1"/>
        <pt x="-713" y="-950" on="0"/>
        <pt x="-900" y="-890" on="0"/>
        <pt x="-900" y="-807" on="1"/>
        <pt x="-900" y="-724" on="0"/>
        <pt x="-750" y="-620" on="0"/>
        <pt x="-750" y="-560" on="1"/>
        <pt x="-750" y="-502" on="1"/>
        <pt x="-1130" y="-303" on="1"/>
        <pt x="-1500" y="-502" on="1"/>
        <pt x="-1500" y="-580" on="1"/>
        <pt x="-1500" y="-620" on="0"/>
        <pt x="-1396" y="-677" on="1"/>
        <pt x="-1322" y="-718" on="0"/>
        <pt x="-1322" y="-786" on="1"/>
        <pt x="-1322" y="-812" on="0"/>
        <pt x="-1333" y="-842" on="1"/>
        <pt x="-1373" y="-950" on="0"/>
        <pt x="-1468" y="-950" on="1"/>
        <pt x="-1563" y="-950" on="0"/>
        <pt x="-1700" y="-800" on="0"/>
        <pt x="-1700" y="-660" on="1"/>
        <pt x="-1700" y="-452" on="1"/>
        <pt x="-1700" y="-374" on="0"/>
        <pt x="-1629" y="-335" on="1"/>
        <pt x="-1130" y="-100" on="1"/>
        <pt x="-650" y="-324" on="1"/>
        <pt x="-180" y="-100" on="1"/>
        <pt x="319" y="-335" on="1"/>
        <pt x="400" y="-374" on="0"/>
        <pt x="400" y="-452" on="1"/>
      </contour>
    </TTGlyph>
    <TTGlyph name="glyph203" xMin="-1000" yMin="-950" xMax="0" yMax="-80">
      <contour>
        <pt x="-1000" y="-321" on="1"/>
        <pt x="-1000" y="-202" on="0"/>
        <pt x="-705" y="-80" on="0"/>
        <pt x="-500" y="-80" on="1"/>
        <pt x="-294" y="-80" on="0"/>
        <pt x="0" y="-196" on="0"/>
        <pt x="0" y="-349" on="1"/>
        <pt x="0" y="-471" on="0"/>
        <pt x="-524" y="-745" on="1"/>
        <pt x="-452" y="-789" on="1"/>
        <pt x="-90" y="-532" on="1"/>
        <pt x="-89" y="-543" on="0"/>
        <pt x="-89" y="-554" on="1"/>
        <pt x="-89" y="-660" on="0"/>
        <pt x="-229" y="-796" on="1"/>
        <pt x="-385" y="-947" on="0"/>
        <pt x="-460" y="-950" on="1"/>
        <pt x="-535" y="-950" on="0"/>
        <pt x="-682" y="-812" on="1"/>
        <pt x="-761" y="-739" on="0"/>
        <pt x="-761" y="-689" on="1"/>
        <pt x="-761" y="-645" on="0"/>
        <pt x="-700" y="-618" on="1"/>
        <pt x="-200" y="-414" on="0"/>
        <pt x="-200" y="-349" on="1"/>
        <pt x="-200" y="-253" on="0"/>
        <pt x="-500" y="-253" on="1"/>
        <pt x="-800" y="-253" on="0"/>
        <pt x="-800" y="-321" on="1"/>
        <pt x="-800" y="-394" on="0"/>
        <pt x="-752" y="-394" on="1"/>
        <pt x="-752" y="-326" on="0"/>
        <pt x="-664" y="-315" on="1"/>
        <pt x="-650" y="-314" on="0"/>
        <pt x="-637" y="-314" on="1"/>
        <pt x="-572" y="-314" on="0"/>
        <pt x="-548" y="-358" on="1"/>
        <pt x="-539" y="-376" on="0"/>
        <pt x="-539" y="-396" on="1"/>
        <pt x="-539" y="-434" on="0"/>
        <pt x="-574" y="-478" on="1"/>
        <pt x="-628" y="-546" on="0"/>
        <pt x="-752" y="-546" on="1"/>
        <pt x="-1000" y="-546" on="0"/>
      </contour>
    </TTGlyph>
    <TTGlyph name="glyph204" xMin="-1000" yMin="-950" xMax="0" yMax="-100">
      <contour>
        <pt x="-1000" y="-372" on="1"/>
        <pt x="-1000" y="-315" on="0"/>
        <pt x="-937" y="-286" on="1"/>
        <pt x="-500" y="-100" on="1"/>
        <pt x="-62" y="-286" on="1"/>
        <pt x="0" y="-315" on="0"/>
        <pt x="0" y="-372" on="1"/>
        <pt x="0" y="-876" on="1"/>
        <pt x="0" y="-950" on="0"/>
        <pt x="-67" y="-950" on="1"/>
        <pt x="-135" y="-950" on="0"/>
        <pt x="-291" y="-869" on="0"/>
        <pt x="-291" y="-808" on="1"/>
        <pt x="-291" y="-747" on="0"/>
        <pt x="-200" y="-642" on="0"/>
        <pt x="-200" y="-583" on="1"/>
        <pt x="-200" y="-429" on="1"/>
        <pt x="-500" y="-303" on="1"/>
        <pt x="-800" y="-429" on="1"/>
        <pt x="-800" y="-598" on="1"/>
        <pt x="-800" y="-627" on="0"/>
        <pt x="-730" y="-691" on="1"/>
        <pt x="-683" y="-734" on="0"/>
        <pt x="-683" y="-793" on="1"/>
        <pt x="-683" y="-821" on="0"/>
        <pt x="-693" y="-852" on="1"/>
        <pt x="-727" y="-950" on="0"/>
        <pt x="-806" y="-950" on="1"/>
        <pt x="-885" y="-950" on="0"/>
        <pt x="-1000" y="-840" on="0"/>
        <pt x="-1000" y="-737" on="1"/>
      </contour>
    </TTGlyph>
    <TTGlyph name="glyph205" xMin="-1068" yMin="-950" xMax="0" yMax="-100">
      <contour>
        <pt x="-667" y="-950" on="1"/>
        <pt x="-867" y="-950" on="0"/>
        <pt x="-967" y="-854" on="1"/>
        <pt x="-1068" y="-756" on="0"/>
        <pt x="-1068" y="-613" on="1"/>
        <pt x="-1068" y="-459" on="0"/>
        <pt x="-1018" y="-381" on="1"/>
        <pt x="-967" y="-304" on="0"/>
        <pt x="-867" y="-304" on="1"/>
        <pt x="-801" y="-304" on="0"/>
        <pt x="-767" y="-343" on="1"/>
        <pt x="-734" y="-381" on="0"/>
        <pt x="-734" y="-459" on="1"/>
        <pt x="-801" y="-459" on="0"/>
        <pt x="-868" y="-536" on="0"/>
        <pt x="-868" y="-613" on="1"/>
        <pt x="-868" y="-750" on="0"/>
        <pt x="-667" y="-750" on="1"/>
        <pt x="-457" y="-750" on="0"/>
        <pt x="-260" y="-457" on="0"/>
        <pt x="-126" y="-138" on="0"/>
        <pt x="-110" y="-118" on="1"/>
        <pt x="-94" y="-100" on="0"/>
        <pt x="-66" y="-100" on="1"/>
        <pt x="0" y="-100" on="0"/>
        <pt x="0" y="-177" on="1"/>
        <pt x="0" y="-259" on="0"/>
        <pt x="-116" y="-602" on="0"/>
        <pt x="-200" y="-718" on="1"/>
        <pt x="-284" y="-834" on="0"/>
        <pt x="-400" y="-891" on="1"/>
        <pt x="-516" y="-950" on="0"/>
      </contour>
    </TTGlyph>
    <TTGlyph name="glyph206" xMin="-914" yMin="-950" xMax="-65" yMax="-100">
      <contour>
        <pt x="-510" y="-100" on="1"/>
        <pt x="-430" y="-100" on="0"/>
        <pt x="-430" y="-196" on="1"/>
        <pt x="-430" y="-222" on="0"/>
        <pt x="-435" y="-254" on="1"/>
        <pt x="-463" y="-409" on="0"/>
        <pt x="-612" y="-653" on="0"/>
        <pt x="-701" y="-724" on="1"/>
        <pt x="-701" y="-750" on="0"/>
        <pt x="-595" y="-750" on="1"/>
        <pt x="-447" y="-750" on="0"/>
        <pt x="-372" y="-563" on="1"/>
        <pt x="-423" y="-543" on="0"/>
        <pt x="-423" y="-456" on="1"/>
        <pt x="-423" y="-368" on="0"/>
        <pt x="-343" y="-301" on="0"/>
        <pt x="-263" y="-301" on="1"/>
        <pt x="-194" y="-301" on="0"/>
        <pt x="-125" y="-378" on="0"/>
        <pt x="-125" y="-426" on="1"/>
        <pt x="-125" y="-454" on="0"/>
        <pt x="-142" y="-497" on="1"/>
        <pt x="-65" y="-497" on="0"/>
        <pt x="-65" y="-563" on="1"/>
        <pt x="-65" y="-629" on="0"/>
        <pt x="-157" y="-641" on="1"/>
        <pt x="-171" y="-641" on="0"/>
        <pt x="-197" y="-640" on="0"/>
        <pt x="-209" y="-638" on="1"/>
        <pt x="-223" y="-664" on="0"/>
        <pt x="-256" y="-723" on="0"/>
        <pt x="-274" y="-755" on="1"/>
        <pt x="-308" y="-820" on="0"/>
        <pt x="-398" y="-885" on="1"/>
        <pt x="-488" y="-950" on="0"/>
        <pt x="-595" y="-950" on="1"/>
        <pt x="-754" y="-950" on="0"/>
        <pt x="-834" y="-878" on="1"/>
        <pt x="-914" y="-807" on="0"/>
        <pt x="-914" y="-724" on="1"/>
        <pt x="-914" y="-627" on="0"/>
        <pt x="-791" y="-546" on="0"/>
        <pt x="-677" y="-375" on="0"/>
        <pt x="-612" y="-100" on="0"/>
      </contour>
    </TTGlyph>
    <TTGlyph name="glyph207" xMin="-1200" yMin="-950" xMax="0" yMax="-100">
      <contour>
        <pt x="-850" y="-100" on="1"/>
        <pt x="-850" y="-500" on="1"/>
        <pt x="-777" y="-500" on="1"/>
        <pt x="-587" y="-500" on="0"/>
        <pt x="-476" y="-687" on="1"/>
        <pt x="-439" y="-750" on="0"/>
        <pt x="-339" y="-750" on="1"/>
        <pt x="-200" y="-750" on="0"/>
        <pt x="-200" y="-550" on="1"/>
        <pt x="-200" y="-450" on="0"/>
        <pt x="-260" y="-450" on="1"/>
        <pt x="-320" y="-450" on="0"/>
        <pt x="-360" y="-510" on="1"/>
        <pt x="-450" y="-480" on="0"/>
        <pt x="-450" y="-410" on="1"/>
        <pt x="-450" y="-250" on="0"/>
        <pt x="-260" y="-250" on="1"/>
        <pt x="0" y="-250" on="0"/>
        <pt x="0" y="-550" on="1"/>
        <pt x="0" y="-950" on="0"/>
        <pt x="-337" y="-950" on="1"/>
        <pt x="-508" y="-950" on="0"/>
        <pt x="-609" y="-794" on="1"/>
        <pt x="-669" y="-700" on="0"/>
        <pt x="-774" y="-700" on="1"/>
        <pt x="-850" y="-700" on="1"/>
        <pt x="-850" y="-825" on="1"/>
        <pt x="-850" y="-950" on="0"/>
        <pt x="-950" y="-950" on="1"/>
        <pt x="-1050" y="-950" on="0"/>
        <pt x="-1200" y="-741" on="0"/>
        <pt x="-1200" y="-620" on="1"/>
        <pt x="-1200" y="-500" on="0"/>
        <pt x="-1050" y="-500" on="1"/>
        <pt x="-1050" y="-100" on="1"/>
      </contour>
    </TTGlyph>
    <TTGlyph name="glyph208" xMin="-1157" yMin="-942" xMax="120" yMax="-100">
      <contour>
        <pt x="-280" y="-283" on="1"/>
        <pt x="-312" y="-283" on="0"/>
        <pt x="-324" y="-311" on="0"/>
        <pt x="-324" y="-349" on="1"/>
        <pt x="-324" y="-406" on="0"/>
        <pt x="-263" y="-406" on="1"/>
        <pt x="-215" y="-406" on="1"/>
        <pt x="-201" y="-406" on="0"/>
        <pt x="-200" y="-404" on="1"/>
        <pt x="-234" y="-283" on="0"/>
      </contour>
      <contour>
        <pt x="88" y="-341" on="1"/>
        <pt x="120" y="-341" on="0"/>
        <pt x="120" y="-392" on="1"/>
        <pt x="120" y="-461" on="0"/>
        <pt x="56" y="-491" on="1"/>
        <pt x="42" y="-498" on="0"/>
        <pt x="13" y="-510" on="0"/>
        <pt x="-4" y="-516" on="1"/>
        <pt x="-4" y="-528" on="1"/>
        <pt x="-4" y="-658" on="0"/>
        <pt x="-183" y="-942" on="0"/>
        <pt x="-313" y="-942" on="1"/>
        <pt x="-378" y="-942" on="0"/>
        <pt x="-446" y="-902" on="1"/>
        <pt x="-514" y="-860" on="0"/>
        <pt x="-581" y="-756" on="1"/>
        <pt x="-658" y="-862" on="0"/>
        <pt x="-722" y="-902" on="1"/>
        <pt x="-786" y="-942" on="0"/>
        <pt x="-851" y="-942" on="1"/>
        <pt x="-979" y="-942" on="0"/>
        <pt x="-1157" y="-657" on="0"/>
        <pt x="-1157" y="-527" on="1"/>
        <pt x="-1157" y="-314" on="0"/>
        <pt x="-969" y="-100" on="0"/>
        <pt x="-841" y="-100" on="1"/>
        <pt x="-777" y="-100" on="0"/>
        <pt x="-777" y="-176" on="1"/>
        <pt x="-777" y="-253" on="0"/>
        <pt x="-841" y="-253" on="1"/>
        <pt x="-873" y="-253" on="0"/>
        <pt x="-957" y="-390" on="0"/>
        <pt x="-957" y="-527" on="1"/>
        <pt x="-957" y="-580" on="0"/>
        <pt x="-883" y="-750" on="0"/>
        <pt x="-851" y="-750" on="1"/>
        <pt x="-819" y="-750" on="0"/>
        <pt x="-710" y="-642" on="0"/>
        <pt x="-581" y="-489" on="1"/>
        <pt x="-455" y="-642" on="0"/>
        <pt x="-377" y="-750" on="0"/>
        <pt x="-310" y="-750" on="1"/>
        <pt x="-279" y="-750" on="0"/>
        <pt x="-197" y="-596" on="0"/>
        <pt x="-196" y="-556" on="1"/>
        <pt x="-211" y="-557" on="0"/>
        <pt x="-244" y="-559" on="0"/>
        <pt x="-260" y="-559" on="1"/>
        <pt x="-356" y="-559" on="0"/>
        <pt x="-482" y="-444" on="0"/>
        <pt x="-482" y="-349" on="1"/>
        <pt x="-482" y="-214" on="0"/>
        <pt x="-376" y="-100" on="0"/>
        <pt x="-280" y="-100" on="1"/>
        <pt x="-178" y="-100" on="0"/>
        <pt x="-45" y="-237" on="0"/>
        <pt x="-14" y="-374" on="1"/>
        <pt x="4" y="-367" on="0"/>
        <pt x="40" y="-357" on="0"/>
        <pt x="56" y="-349" on="1"/>
        <pt x="64" y="-348" on="0"/>
        <pt x="76" y="-344" on="0"/>
        <pt x="79" y="-343" on="1"/>
        <pt x="85" y="-341" on="0"/>
      </contour>
    </TTGlyph>
    <TTGlyph name="glyph209" xMin="-1384" yMin="-800" xMax="0" yMax="-100">
      <contour>
        <pt x="-200" y="-449" on="0"/>
        <pt x="-200" y="-372" on="1"/>
        <pt x="-200" y="-300" on="0"/>
        <pt x="-278" y="-300" on="1"/>
        <pt x="-364" y="-300" on="0"/>
        <pt x="-364" y="-200" on="1"/>
        <pt x="-364" y="-100" on="0"/>
        <pt x="-278" y="-100" on="1"/>
        <pt x="0" y="-100" on="0"/>
        <pt x="0" y="-372" on="1"/>
        <pt x="0" y="-546" on="0"/>
        <pt x="-293" y="-800" on="0"/>
        <pt x="-557" y="-800" on="1"/>
        <pt x="-835" y="-800" on="0"/>
        <pt x="-1229" y="-580" on="0"/>
        <pt x="-1358" y="-344" on="1"/>
        <pt x="-1384" y="-295" on="0"/>
        <pt x="-1384" y="-254" on="1"/>
        <pt x="-1384" y="-229" on="0"/>
        <pt x="-1375" y="-208" on="1"/>
        <pt x="-1350" y="-150" on="0"/>
        <pt x="-1278" y="-150" on="1"/>
        <pt x="-1207" y="-150" on="0"/>
        <pt x="-1169" y="-217" on="1"/>
        <pt x="-1054" y="-421" on="0"/>
        <pt x="-771" y="-600" on="0"/>
        <pt x="-557" y="-600" on="1"/>
        <pt x="-389" y="-600" on="0"/>
      </contour>
    </TTGlyph>
    <TTGlyph name="glyph210" xMin="-1000" yMin="-950" xMax="0" yMax="-100">
      <contour>
        <pt x="-800" y="-708" on="1"/>
        <pt x="-800" y="-781" on="0"/>
        <pt x="-760" y="-803" on="1"/>
        <pt x="-730" y="-803" on="0"/>
        <pt x="-691" y="-727" on="0"/>
        <pt x="-691" y="-686" on="1"/>
        <pt x="-691" y="-627" on="0"/>
        <pt x="-744" y="-627" on="1"/>
        <pt x="-800" y="-627" on="0"/>
      </contour>
      <contour>
        <pt x="-800" y="-520" on="1"/>
        <pt x="-777" y="-488" on="0"/>
        <pt x="-744" y="-488" on="1"/>
        <pt x="-525" y="-488" on="0"/>
        <pt x="-525" y="-686" on="1"/>
        <pt x="-525" y="-770" on="0"/>
        <pt x="-672" y="-950" on="0"/>
        <pt x="-760" y="-950" on="1"/>
        <pt x="-841" y="-950" on="0"/>
        <pt x="-1000" y="-770" on="0"/>
        <pt x="-1000" y="-708" on="1"/>
        <pt x="-1000" y="-372" on="1"/>
        <pt x="-1000" y="-315" on="0"/>
        <pt x="-937" y="-286" on="1"/>
        <pt x="-500" y="-100" on="1"/>
        <pt x="-62" y="-286" on="1"/>
        <pt x="0" y="-315" on="0"/>
        <pt x="0" y="-372" on="1"/>
        <pt x="0" y="-876" on="1"/>
        <pt x="0" y="-950" on="0"/>
        <pt x="-67" y="-950" on="1"/>
        <pt x="-135" y="-950" on="0"/>
        <pt x="-291" y="-869" on="0"/>
        <pt x="-291" y="-808" on="1"/>
        <pt x="-291" y="-747" on="0"/>
        <pt x="-200" y="-642" on="0"/>
        <pt x="-200" y="-583" on="1"/>
        <pt x="-200" y="-409" on="1"/>
        <pt x="-500" y="-283" on="1"/>
        <pt x="-800" y="-409" on="1"/>
      </contour>
    </TTGlyph>
    <TTGlyph name="glyph211" xMin="-1000" yMin="-939" xMax="0" yMax="-89">
      <contour>
        <pt x="-260" y="-198" on="1"/>
        <pt x="-260" y="-144" on="0"/>
        <pt x="-229" y="-116" on="1"/>
        <pt x="-197" y="-89" on="0"/>
        <pt x="-125" y="-89" on="1"/>
        <pt x="-62" y="-89" on="0"/>
        <pt x="-31" y="-144" on="1"/>
        <pt x="0" y="-198" on="0"/>
        <pt x="0" y="-308" on="1"/>
        <pt x="0" y="-802" on="1"/>
        <pt x="0" y="-871" on="0"/>
        <pt x="-33" y="-905" on="1"/>
        <pt x="-66" y="-939" on="0"/>
        <pt x="-133" y="-939" on="1"/>
        <pt x="-491" y="-736" on="1"/>
        <pt x="-620" y="-881" on="1"/>
        <pt x="-668" y="-939" on="0"/>
        <pt x="-694" y="-939" on="1"/>
        <pt x="-720" y="-939" on="0"/>
        <pt x="-755" y="-875" on="1"/>
        <pt x="-968" y="-575" on="1"/>
        <pt x="-1000" y="-521" on="0"/>
        <pt x="-1000" y="-456" on="1"/>
        <pt x="-1000" y="-365" on="0"/>
        <pt x="-889" y="-346" on="1"/>
        <pt x="-775" y="-327" on="0"/>
        <pt x="-684" y="-319" on="1"/>
        <pt x="-591" y="-310" on="0"/>
        <pt x="-513" y="-310" on="1"/>
        <pt x="-201" y="-310" on="1"/>
        <pt x="-229" y="-308" on="0"/>
        <pt x="-244" y="-280" on="1"/>
        <pt x="-260" y="-253" on="0"/>
      </contour>
      <contour>
        <pt x="-201" y="-500" on="1"/>
        <pt x="-529" y="-500" on="1"/>
        <pt x="-579" y="-500" on="0"/>
        <pt x="-718" y="-502" on="0"/>
        <pt x="-787" y="-519" on="1"/>
        <pt x="-674" y="-689" on="1"/>
        <pt x="-499" y="-533" on="1"/>
        <pt x="-201" y="-675" on="1"/>
      </contour>
    </TTGlyph>
    <TTGlyph name="glyph212" xMin="-1000" yMin="-950" xMax="0" yMax="-100">
      <contour>
        <pt x="-803" y="-468" on="1"/>
        <pt x="-765" y="-458" on="0"/>
        <pt x="-765" y="-426" on="1"/>
        <pt x="-765" y="-415" on="0"/>
        <pt x="-769" y="-402" on="1"/>
        <pt x="-756" y="-387" on="0"/>
        <pt x="-704" y="-387" on="1"/>
        <pt x="-697" y="-387" on="1"/>
        <pt x="-606" y="-387" on="0"/>
        <pt x="-606" y="-441" on="1"/>
        <pt x="-606" y="-496" on="0"/>
        <pt x="-765" y="-581" on="0"/>
        <pt x="-803" y="-581" on="1"/>
        <pt x="-900" y="-581" on="0"/>
        <pt x="-1000" y="-496" on="0"/>
        <pt x="-1000" y="-455" on="1"/>
        <pt x="-1000" y="-306" on="1"/>
        <pt x="-1000" y="-263" on="0"/>
        <pt x="-927" y="-221" on="1"/>
        <pt x="-712" y="-100" on="1"/>
        <pt x="-500" y="-200" on="1"/>
        <pt x="-290" y="-100" on="1"/>
        <pt x="-74" y="-221" on="1"/>
        <pt x="0" y="-263" on="0"/>
        <pt x="0" y="-306" on="1"/>
        <pt x="0" y="-324" on="1"/>
        <pt x="0" y="-492" on="0"/>
        <pt x="-617" y="-750" on="1"/>
        <pt x="-573" y="-779" on="1"/>
        <pt x="-166" y="-616" on="1"/>
        <pt x="-119" y="-609" on="0"/>
        <pt x="-86" y="-609" on="1"/>
        <pt x="0" y="-609" on="0"/>
        <pt x="0" y="-656" on="1"/>
        <pt x="0" y="-893" on="1"/>
        <pt x="0" y="-950" on="0"/>
        <pt x="-83" y="-950" on="1"/>
        <pt x="-166" y="-950" on="0"/>
        <pt x="-166" y="-893" on="1"/>
        <pt x="-166" y="-772" on="1"/>
        <pt x="-501" y="-917" on="1"/>
        <pt x="-576" y="-950" on="0"/>
        <pt x="-600" y="-950" on="1"/>
        <pt x="-625" y="-950" on="0"/>
        <pt x="-709" y="-885" on="1"/>
        <pt x="-793" y="-821" on="1"/>
        <pt x="-835" y="-786" on="0"/>
        <pt x="-835" y="-731" on="1"/>
        <pt x="-835" y="-677" on="0"/>
        <pt x="-764" y="-647" on="1"/>
        <pt x="-200" y="-431" on="0"/>
        <pt x="-200" y="-344" on="1"/>
        <pt x="-300" y="-280" on="1"/>
        <pt x="-500" y="-373" on="1"/>
        <pt x="-700" y="-280" on="1"/>
        <pt x="-803" y="-354" on="1"/>
      </contour>
    </TTGlyph>
    <TTGlyph name="glyph213" xMin="-1000" yMin="-950" xMax="0" yMax="-100">
      <contour>
        <pt x="-800" y="-708" on="1"/>
        <pt x="-800" y="-781" on="0"/>
        <pt x="-760" y="-803" on="1"/>
        <pt x="-730" y="-803" on="0"/>
        <pt x="-691" y="-727" on="0"/>
        <pt x="-691" y="-686" on="1"/>
        <pt x="-691" y="-627" on="0"/>
        <pt x="-744" y="-627" on="1"/>
        <pt x="-800" y="-627" on="0"/>
      </contour>
      <contour>
        <pt x="-800" y="-520" on="1"/>
        <pt x="-777" y="-488" on="0"/>
        <pt x="-744" y="-488" on="1"/>
        <pt x="-525" y="-488" on="0"/>
        <pt x="-525" y="-686" on="1"/>
        <pt x="-525" y="-770" on="0"/>
        <pt x="-672" y="-950" on="0"/>
        <pt x="-760" y="-950" on="1"/>
        <pt x="-841" y="-950" on="0"/>
        <pt x="-1000" y="-770" on="0"/>
        <pt x="-1000" y="-708" on="1"/>
        <pt x="-1000" y="-372" on="1"/>
        <pt x="-1000" y="-315" on="0"/>
        <pt x="-937" y="-286" on="1"/>
        <pt x="-500" y="-100" on="1"/>
        <pt x="-62" y="-286" on="1"/>
        <pt x="0" y="-315" on="0"/>
        <pt x="0" y="-372" on="1"/>
        <pt x="0" y="-876" on="1"/>
        <pt x="0" y="-950" on="0"/>
        <pt x="-67" y="-950" on="1"/>
        <pt x="-135" y="-950" on="0"/>
        <pt x="-291" y="-869" on="0"/>
        <pt x="-291" y="-808" on="1"/>
        <pt x="-291" y="-747" on="0"/>
        <pt x="-200" y="-642" on="0"/>
        <pt x="-200" y="-583" on="1"/>
        <pt x="-200" y="-409" on="1"/>
        <pt x="-500" y="-283" on="1"/>
        <pt x="-800" y="-409" on="1"/>
      </contour>
    </TTGlyph>
    <TTGlyph name="glyph214" xMin="-1115" yMin="-900" xMax="0" yMax="-150">
      <contour>
        <pt x="-897" y="-632" on="1"/>
        <pt x="-867" y="-700" on="0"/>
        <pt x="-785" y="-700" on="1"/>
        <pt x="-735" y="-700" on="0"/>
        <pt x="-735" y="-650" on="1"/>
        <pt x="-735" y="-599" on="0"/>
        <pt x="-835" y="-595" on="1"/>
        <pt x="-838" y="-595" on="1"/>
        <pt x="-871" y="-595" on="0"/>
      </contour>
      <contour>
        <pt x="-904" y="-471" on="1"/>
        <pt x="-846" y="-432" on="0"/>
        <pt x="-775" y="-432" on="1"/>
        <pt x="-751" y="-432" on="0"/>
        <pt x="-725" y="-437" on="1"/>
        <pt x="-535" y="-470" on="0"/>
        <pt x="-535" y="-650" on="1"/>
        <pt x="-535" y="-900" on="0"/>
        <pt x="-785" y="-900" on="1"/>
        <pt x="-1115" y="-900" on="0"/>
        <pt x="-1115" y="-532" on="1"/>
        <pt x="-1115" y="-150" on="0"/>
        <pt x="-615" y="-150" on="1"/>
        <pt x="-172" y="-150" on="0"/>
        <pt x="-28" y="-378" on="1"/>
        <pt x="0" y="-424" on="0"/>
        <pt x="0" y="-459" on="1"/>
        <pt x="0" y="-505" on="0"/>
        <pt x="-47" y="-531" on="1"/>
        <pt x="-73" y="-546" on="0"/>
        <pt x="-97" y="-546" on="1"/>
        <pt x="-151" y="-546" on="0"/>
        <pt x="-200" y="-474" on="1"/>
        <pt x="-271" y="-350" on="0"/>
        <pt x="-615" y="-350" on="1"/>
        <pt x="-858" y="-350" on="0"/>
      </contour>
    </TTGlyph>
    <TTGlyph name="glyph215" xMin="-980" yMin="-950" xMax="-80" yMax="-100">
      <contour>
        <pt x="-550" y="-248" on="1"/>
        <pt x="-606" y="-229" on="0"/>
        <pt x="-606" y="-196" on="1"/>
        <pt x="-606" y="-164" on="0"/>
        <pt x="-578" y="-132" on="1"/>
        <pt x="-550" y="-100" on="0"/>
        <pt x="-483" y="-100" on="1"/>
        <pt x="-417" y="-100" on="0"/>
        <pt x="-389" y="-132" on="1"/>
        <pt x="-361" y="-164" on="0"/>
        <pt x="-361" y="-229" on="1"/>
        <pt x="-361" y="-293" on="0"/>
        <pt x="-413" y="-404" on="1"/>
        <pt x="-464" y="-517" on="0"/>
        <pt x="-558" y="-589" on="1"/>
        <pt x="-652" y="-662" on="0"/>
        <pt x="-780" y="-704" on="1"/>
        <pt x="-780" y="-750" on="0"/>
        <pt x="-671" y="-750" on="1"/>
        <pt x="-562" y="-750" on="0"/>
        <pt x="-301" y="-501" on="0"/>
        <pt x="-270" y="-392" on="1"/>
        <pt x="-238" y="-283" on="0"/>
        <pt x="-213" y="-257" on="1"/>
        <pt x="-189" y="-229" on="0"/>
        <pt x="-153" y="-229" on="1"/>
        <pt x="-80" y="-229" on="0"/>
        <pt x="-80" y="-294" on="1"/>
        <pt x="-80" y="-850" on="1"/>
        <pt x="-80" y="-950" on="0"/>
        <pt x="-164" y="-950" on="1"/>
        <pt x="-248" y="-950" on="0"/>
        <pt x="-248" y="-850" on="1"/>
        <pt x="-248" y="-668" on="1"/>
        <pt x="-317" y="-800" on="0"/>
        <pt x="-543" y="-950" on="0"/>
        <pt x="-643" y="-950" on="1"/>
        <pt x="-783" y="-950" on="0"/>
        <pt x="-980" y="-823" on="0"/>
        <pt x="-980" y="-699" on="1"/>
        <pt x="-980" y="-594" on="0"/>
        <pt x="-923" y="-574" on="1"/>
        <pt x="-708" y="-499" on="0"/>
        <pt x="-550" y="-288" on="0"/>
      </contour>
    </TTGlyph>
    <TTGlyph name="glyph216" xMin="-975" yMin="-950" xMax="-25" yMax="-102">
      <contour>
        <pt x="-256" y="-215" on="1"/>
        <pt x="-265" y="-316" on="0"/>
        <pt x="-416" y="-447" on="1"/>
        <pt x="-348" y="-482" on="0"/>
        <pt x="-305" y="-482" on="1"/>
        <pt x="-284" y="-482" on="0"/>
        <pt x="-269" y="-473" on="1"/>
        <pt x="-225" y="-446" on="0"/>
        <pt x="-225" y="-361" on="1"/>
        <pt x="-225" y="-257" on="0"/>
        <pt x="-242" y="-253" on="1"/>
        <pt x="-255" y="-250" on="0"/>
        <pt x="-255" y="-215" on="1"/>
        <pt x="-255" y="-200" on="0"/>
        <pt x="-253" y="-181" on="1"/>
        <pt x="-248" y="-121" on="0"/>
        <pt x="-198" y="-121" on="1"/>
        <pt x="-192" y="-121" on="0"/>
        <pt x="-185" y="-122" on="1"/>
        <pt x="-119" y="-129" on="0"/>
        <pt x="-25" y="-255" on="0"/>
        <pt x="-25" y="-361" on="1"/>
        <pt x="-25" y="-592" on="0"/>
        <pt x="-139" y="-654" on="1"/>
        <pt x="-194" y="-683" on="0"/>
        <pt x="-251" y="-683" on="1"/>
        <pt x="-315" y="-683" on="0"/>
        <pt x="-383" y="-647" on="1"/>
        <pt x="-396" y="-811" on="0"/>
        <pt x="-592" y="-950" on="0"/>
        <pt x="-700" y="-950" on="1"/>
        <pt x="-809" y="-950" on="0"/>
        <pt x="-975" y="-804" on="0"/>
        <pt x="-975" y="-694" on="1"/>
        <pt x="-975" y="-585" on="0"/>
        <pt x="-920" y="-556" on="1"/>
        <pt x="-621" y="-400" on="0"/>
        <pt x="-508" y="-284" on="1"/>
        <pt x="-419" y="-192" on="0"/>
        <pt x="-419" y="-168" on="1"/>
        <pt x="-419" y="-162" on="0"/>
        <pt x="-425" y="-160" on="1"/>
        <pt x="-419" y="-102" on="0"/>
        <pt x="-350" y="-102" on="1"/>
        <pt x="-340" y="-102" on="0"/>
        <pt x="-327" y="-103" on="1"/>
        <pt x="-256" y="-112" on="0"/>
        <pt x="-256" y="-207" on="1"/>
      </contour>
      <contour>
        <pt x="-775" y="-706" on="1"/>
        <pt x="-775" y="-751" on="0"/>
        <pt x="-668" y="-753" on="1"/>
        <pt x="-666" y="-753" on="1"/>
        <pt x="-561" y="-753" on="0"/>
        <pt x="-519" y="-540" on="1"/>
        <pt x="-631" y="-616" on="0"/>
        <pt x="-709" y="-677" on="0"/>
      </contour>
    </TTGlyph>
    <TTGlyph name="glyph217" xMin="-1150" yMin="-950" xMax="200" yMax="-110">
      <contour>
        <pt x="-828" y="-816" on="1"/>
        <pt x="-1150" y="-816" on="0"/>
        <pt x="-1150" y="-533" on="1"/>
        <pt x="-1150" y="-250" on="0"/>
        <pt x="-828" y="-250" on="1"/>
        <pt x="-420" y="-250" on="1"/>
        <pt x="-420" y="-200" on="1"/>
        <pt x="-420" y="-110" on="0"/>
        <pt x="-320" y="-110" on="1"/>
        <pt x="-220" y="-110" on="0"/>
        <pt x="-220" y="-200" on="1"/>
        <pt x="-220" y="-250" on="1"/>
        <pt x="100" y="-250" on="1"/>
        <pt x="200" y="-250" on="0"/>
        <pt x="200" y="-350" on="1"/>
        <pt x="200" y="-450" on="0"/>
        <pt x="100" y="-450" on="1"/>
        <pt x="-220" y="-450" on="1"/>
        <pt x="-220" y="-616" on="1"/>
        <pt x="-142" y="-616" on="0"/>
        <pt x="-110" y="-658" on="1"/>
        <pt x="-78" y="-699" on="0"/>
        <pt x="-78" y="-783" on="1"/>
        <pt x="-78" y="-867" on="0"/>
        <pt x="-118" y="-908" on="1"/>
        <pt x="-159" y="-950" on="0"/>
        <pt x="-239" y="-950" on="1"/>
        <pt x="-319" y="-950" on="0"/>
        <pt x="-420" y="-850" on="0"/>
        <pt x="-420" y="-790" on="1"/>
        <pt x="-584" y="-816" on="0"/>
      </contour>
      <contour>
        <pt x="-950" y="-616" on="0"/>
        <pt x="-828" y="-616" on="1"/>
        <pt x="-420" y="-616" on="1"/>
        <pt x="-420" y="-450" on="1"/>
        <pt x="-828" y="-450" on="1"/>
        <pt x="-950" y="-450" on="0"/>
        <pt x="-950" y="-533" on="1"/>
      </contour>
    </TTGlyph>
    <TTGlyph name="glyph218" xMin="-1200" yMin="-950" xMax="0" yMax="-100">
      <contour>
        <pt x="-183" y="-491" on="1"/>
        <pt x="-185" y="-405" on="0"/>
        <pt x="-238" y="-405" on="1"/>
        <pt x="-275" y="-405" on="0"/>
        <pt x="-275" y="-446" on="1"/>
        <pt x="-275" y="-492" on="0"/>
        <pt x="-201" y="-492" on="1"/>
        <pt x="-193" y="-492" on="0"/>
      </contour>
      <contour>
        <pt x="-205" y="-603" on="1"/>
        <pt x="-412" y="-599" on="0"/>
        <pt x="-412" y="-446" on="1"/>
        <pt x="-412" y="-221" on="0"/>
        <pt x="-238" y="-221" on="1"/>
        <pt x="0" y="-221" on="0"/>
        <pt x="0" y="-498" on="1"/>
        <pt x="0" y="-666" on="0"/>
        <pt x="-195" y="-950" on="0"/>
        <pt x="-307" y="-950" on="1"/>
        <pt x="-368" y="-950" on="0"/>
        <pt x="-560" y="-760" on="1"/>
        <pt x="-803" y="-950" on="1"/>
        <pt x="-913" y="-950" on="0"/>
        <pt x="-1191" y="-632" on="0"/>
        <pt x="-1191" y="-523" on="1"/>
        <pt x="-1010" y="-389" on="1"/>
        <pt x="-1200" y="-282" on="1"/>
        <pt x="-1095" y="-100" on="1"/>
        <pt x="-761" y="-258" on="0"/>
        <pt x="-761" y="-378" on="1"/>
        <pt x="-761" y="-447" on="0"/>
        <pt x="-847" y="-509" on="1"/>
        <pt x="-933" y="-571" on="1"/>
        <pt x="-898" y="-648" on="0"/>
        <pt x="-807" y="-705" on="1"/>
        <pt x="-542" y="-483" on="1"/>
        <pt x="-309" y="-698" on="1"/>
        <pt x="-271" y="-698" on="0"/>
        <pt x="-224" y="-633" on="1"/>
        <pt x="-213" y="-618" on="0"/>
      </contour>
    </TTGlyph>
    <TTGlyph name="glyph219" xMin="-1000" yMin="-950" xMax="0" yMax="-94">
      <contour>
        <pt x="-800" y="-737" on="1"/>
        <pt x="-780" y="-798" on="0"/>
        <pt x="-755" y="-798" on="1"/>
        <pt x="-730" y="-798" on="0"/>
        <pt x="-691" y="-757" on="0"/>
        <pt x="-691" y="-715" on="1"/>
        <pt x="-691" y="-654" on="0"/>
        <pt x="-724" y="-654" on="1"/>
        <pt x="-800" y="-654" on="0"/>
      </contour>
      <contour>
        <pt x="0" y="-874" on="1"/>
        <pt x="0" y="-950" on="0"/>
        <pt x="-67" y="-950" on="1"/>
        <pt x="-135" y="-950" on="0"/>
        <pt x="-291" y="-866" on="0"/>
        <pt x="-291" y="-803" on="1"/>
        <pt x="-291" y="-740" on="0"/>
        <pt x="-200" y="-631" on="0"/>
        <pt x="-200" y="-571" on="1"/>
        <pt x="-200" y="-394" on="1"/>
        <pt x="-300" y="-314" on="1"/>
        <pt x="-500" y="-449" on="1"/>
        <pt x="-700" y="-314" on="1"/>
        <pt x="-800" y="-394" on="1"/>
        <pt x="-800" y="-543" on="1"/>
        <pt x="-767" y="-510" on="0"/>
        <pt x="-724" y="-510" on="1"/>
        <pt x="-525" y="-510" on="0"/>
        <pt x="-525" y="-715" on="1"/>
        <pt x="-525" y="-802" on="0"/>
        <pt x="-672" y="-950" on="0"/>
        <pt x="-760" y="-950" on="1"/>
        <pt x="-841" y="-950" on="0"/>
        <pt x="-1000" y="-802" on="0"/>
        <pt x="-1000" y="-737" on="1"/>
        <pt x="-1000" y="-370" on="1"/>
        <pt x="-1000" y="-312" on="0"/>
        <pt x="-927" y="-256" on="1"/>
        <pt x="-712" y="-94" on="1"/>
        <pt x="-500" y="-228" on="1"/>
        <pt x="-290" y="-94" on="1"/>
        <pt x="-74" y="-256" on="1"/>
        <pt x="0" y="-312" on="0"/>
        <pt x="0" y="-370" on="1"/>
      </contour>
    </TTGlyph>
    <TTGlyph name="glyph220" xMin="-1000" yMin="-950" xMax="0" yMax="-100">
      <contour>
        <pt x="-650" y="-468" on="0"/>
        <pt x="-650" y="-557" on="1"/>
        <pt x="-650" y="-704" on="1"/>
        <pt x="-650" y="-794" on="0"/>
        <pt x="-767" y="-950" on="0"/>
        <pt x="-883" y="-950" on="1"/>
        <pt x="-1000" y="-950" on="0"/>
        <pt x="-1000" y="-789" on="1"/>
        <pt x="-850" y="-721" on="0"/>
        <pt x="-850" y="-639" on="1"/>
        <pt x="-850" y="-557" on="1"/>
        <pt x="-850" y="-468" on="0"/>
        <pt x="-960" y="-404" on="1"/>
        <pt x="-960" y="-340" on="0"/>
        <pt x="-900" y="-308" on="1"/>
        <pt x="-480" y="-100" on="1"/>
        <pt x="-60" y="-308" on="1"/>
        <pt x="0" y="-340" on="0"/>
        <pt x="0" y="-404" on="1"/>
        <pt x="0" y="-868" on="1"/>
        <pt x="0" y="-950" on="0"/>
        <pt x="-64" y="-950" on="1"/>
        <pt x="-130" y="-950" on="0"/>
        <pt x="-310" y="-860" on="0"/>
        <pt x="-310" y="-792" on="1"/>
        <pt x="-310" y="-724" on="0"/>
        <pt x="-200" y="-663" on="0"/>
        <pt x="-200" y="-598" on="1"/>
        <pt x="-200" y="-444" on="1"/>
        <pt x="-480" y="-312" on="1"/>
        <pt x="-706" y="-424" on="1"/>
      </contour>
    </TTGlyph>
    <TTGlyph name="glyph221" xMin="-1330" yMin="-950" xMax="0" yMax="-150">
      <contour>
        <pt x="-190" y="-313" on="1"/>
        <pt x="-300" y="-381" on="0"/>
        <pt x="-300" y="-450" on="1"/>
        <pt x="-250" y="-450" on="1"/>
        <pt x="0" y="-450" on="0"/>
        <pt x="0" y="-700" on="1"/>
        <pt x="0" y="-950" on="0"/>
        <pt x="-250" y="-950" on="1"/>
        <pt x="-500" y="-950" on="0"/>
        <pt x="-500" y="-650" on="1"/>
        <pt x="-535" y="-650" on="0"/>
        <pt x="-659" y="-808" on="0"/>
        <pt x="-770" y="-808" on="1"/>
        <pt x="-860" y="-808" on="0"/>
        <pt x="-1005" y="-650" on="0"/>
        <pt x="-1330" y="-600" on="0"/>
        <pt x="-1330" y="-540" on="1"/>
        <pt x="-1330" y="-480" on="0"/>
        <pt x="-1179" y="-465" on="1"/>
        <pt x="-1155" y="-463" on="0"/>
        <pt x="-1132" y="-463" on="1"/>
        <pt x="-1011" y="-463" on="0"/>
        <pt x="-920" y="-528" on="1"/>
        <pt x="-812" y="-606" on="0"/>
        <pt x="-770" y="-606" on="1"/>
        <pt x="-730" y="-605" on="0"/>
        <pt x="-601" y="-450" on="0"/>
        <pt x="-500" y="-450" on="1"/>
        <pt x="-500" y="-290" on="0"/>
        <pt x="-362" y="-150" on="0"/>
        <pt x="-281" y="-150" on="1"/>
        <pt x="-200" y="-150" on="0"/>
      </contour>
      <contour>
        <pt x="-251" y="-750" on="1"/>
        <pt x="-200" y="-750" on="0"/>
        <pt x="-200" y="-700" on="1"/>
        <pt x="-200" y="-650" on="0"/>
        <pt x="-250" y="-650" on="1"/>
        <pt x="-300" y="-650" on="1"/>
        <pt x="-300" y="-750" on="0"/>
      </contour>
    </TTGlyph>
    <TTGlyph name="glyph222" xMin="-1125" yMin="-950" xMax="0" yMax="-95">
      <contour>
        <pt x="-681" y="-675" on="1"/>
        <pt x="-555" y="-676" on="0"/>
        <pt x="-555" y="-742" on="1"/>
        <pt x="-555" y="-771" on="0"/>
        <pt x="-580" y="-813" on="1"/>
        <pt x="-663" y="-950" on="0"/>
        <pt x="-825" y="-950" on="1"/>
        <pt x="-1125" y="-950" on="0"/>
        <pt x="-1125" y="-659" on="1"/>
        <pt x="-1125" y="-400" on="0"/>
        <pt x="-790" y="-400" on="1"/>
        <pt x="-702" y="-400" on="0"/>
        <pt x="-592" y="-452" on="1"/>
        <pt x="-171" y="-130" on="1"/>
        <pt x="-128" y="-95" on="0"/>
        <pt x="-91" y="-95" on="1"/>
        <pt x="-56" y="-95" on="0"/>
        <pt x="-26" y="-127" on="1"/>
        <pt x="0" y="-154" on="0"/>
        <pt x="0" y="-183" on="1"/>
        <pt x="0" y="-222" on="0"/>
        <pt x="-48" y="-263" on="1"/>
        <pt x="-261" y="-447" on="1"/>
        <pt x="-440" y="-594" on="1"/>
        <pt x="-479" y="-624" on="0"/>
        <pt x="-546" y="-624" on="1"/>
        <pt x="-574" y="-624" on="0"/>
        <pt x="-608" y="-618" on="1"/>
        <pt x="-720" y="-600" on="0"/>
        <pt x="-790" y="-600" on="1"/>
        <pt x="-925" y="-600" on="0"/>
        <pt x="-925" y="-659" on="1"/>
        <pt x="-925" y="-750" on="0"/>
        <pt x="-825" y="-750" on="1"/>
        <pt x="-732" y="-750" on="0"/>
      </contour>
    </TTGlyph>
    <TTGlyph name="glyph223" xMin="-972" yMin="-950" xMax="-28" yMax="-100">
      <contour>
        <pt x="-363" y="-950" on="0"/>
        <pt x="-608" y="-950" on="1"/>
        <pt x="-853" y="-950" on="0"/>
        <pt x="-972" y="-682" on="1"/>
        <pt x="-786" y="-586" on="0"/>
        <pt x="-427" y="-309" on="0"/>
        <pt x="-281" y="-116" on="1"/>
        <pt x="-231" y="-100" on="0"/>
        <pt x="-193" y="-100" on="1"/>
        <pt x="-105" y="-100" on="0"/>
        <pt x="-28" y="-256" on="0"/>
        <pt x="-28" y="-344" on="1"/>
        <pt x="-28" y="-553" on="0"/>
      </contour>
      <contour>
        <pt x="-391" y="-573" on="0"/>
        <pt x="-664" y="-751" on="1"/>
        <pt x="-659" y="-773" on="0"/>
        <pt x="-630" y="-773" on="1"/>
        <pt x="-593" y="-773" on="0"/>
        <pt x="-518" y="-738" on="1"/>
        <pt x="-385" y="-676" on="0"/>
        <pt x="-228" y="-466" on="0"/>
        <pt x="-228" y="-339" on="1"/>
      </contour>
    </TTGlyph>
    <TTGlyph name="glyph224" xMin="-1500" yMin="-950" xMax="0" yMax="-100">
      <contour>
        <pt x="-600" y="-666" on="1"/>
        <pt x="-646" y="-893" on="0"/>
        <pt x="-913" y="-950" on="1"/>
        <pt x="-1165" y="-950" on="1"/>
        <pt x="-1243" y="-950" on="0"/>
        <pt x="-1480" y="-774" on="0"/>
        <pt x="-1500" y="-640" on="1"/>
        <pt x="-1337" y="-499" on="1"/>
        <pt x="-1369" y="-404" on="0"/>
        <pt x="-1500" y="-370" on="1"/>
        <pt x="-1287" y="-100" on="1"/>
        <pt x="-1132" y="-191" on="0"/>
        <pt x="-1070" y="-191" on="1"/>
        <pt x="-1058" y="-191" on="0"/>
        <pt x="-1050" y="-188" on="1"/>
        <pt x="-1055" y="-291" on="0"/>
        <pt x="-1086" y="-321" on="1"/>
        <pt x="-1098" y="-332" on="0"/>
        <pt x="-1123" y="-332" on="1"/>
        <pt x="-1165" y="-332" on="0"/>
        <pt x="-1244" y="-301" on="1"/>
        <pt x="-1274" y="-337" on="1"/>
        <pt x="-1215" y="-371" on="0"/>
        <pt x="-1121" y="-464" on="0"/>
        <pt x="-1121" y="-507" on="1"/>
        <pt x="-1121" y="-549" on="0"/>
        <pt x="-1290" y="-666" on="1"/>
        <pt x="-1165" y="-750" on="1"/>
        <pt x="-913" y="-750" on="1"/>
        <pt x="-800" y="-666" on="1"/>
        <pt x="-800" y="-453" on="1"/>
        <pt x="-800" y="-390" on="0"/>
        <pt x="-817" y="-370" on="1"/>
        <pt x="-839" y="-363" on="0"/>
        <pt x="-839" y="-345" on="1"/>
        <pt x="-839" y="-328" on="0"/>
        <pt x="-815" y="-314" on="1"/>
        <pt x="-459" y="-100" on="0"/>
        <pt x="-422" y="-100" on="1"/>
        <pt x="-383" y="-100" on="0"/>
        <pt x="0" y="-304" on="1"/>
        <pt x="0" y="-893" on="1"/>
        <pt x="0" y="-950" on="0"/>
        <pt x="-54" y="-950" on="1"/>
        <pt x="-108" y="-950" on="0"/>
        <pt x="-299" y="-887" on="0"/>
        <pt x="-299" y="-840" on="1"/>
        <pt x="-299" y="-793" on="0"/>
        <pt x="-200" y="-712" on="0"/>
        <pt x="-200" y="-666" on="1"/>
        <pt x="-200" y="-410" on="1"/>
        <pt x="-425" y="-306" on="1"/>
        <pt x="-637" y="-437" on="1"/>
        <pt x="-600" y="-463" on="0"/>
        <pt x="-600" y="-493" on="1"/>
      </contour>
    </TTGlyph>
    <TTGlyph name="glyph225" xMin="-1250" yMin="-950" xMax="100" yMax="-100">
      <contour>
        <pt x="-900" y="-700" on="1"/>
        <pt x="-900" y="-721" on="1"/>
        <pt x="-900" y="-803" on="0"/>
        <pt x="-1044" y="-950" on="0"/>
        <pt x="-1142" y="-950" on="1"/>
        <pt x="-1250" y="-950" on="0"/>
        <pt x="-1250" y="-840" on="1"/>
        <pt x="-1250" y="-790" on="0"/>
        <pt x="-1100" y="-744" on="0"/>
        <pt x="-1100" y="-684" on="1"/>
        <pt x="-1100" y="-474" on="1"/>
        <pt x="-1100" y="-424" on="0"/>
        <pt x="-1250" y="-397" on="1"/>
        <pt x="-982" y="-100" on="1"/>
        <pt x="-817" y="-208" on="0"/>
        <pt x="-738" y="-208" on="1"/>
        <pt x="-723" y="-208" on="0"/>
        <pt x="-711" y="-204" on="1"/>
        <pt x="-730" y="-299" on="0"/>
        <pt x="-815" y="-315" on="1"/>
        <pt x="-837" y="-319" on="0"/>
        <pt x="-860" y="-319" on="1"/>
        <pt x="-924" y="-319" on="0"/>
        <pt x="-990" y="-286" on="1"/>
        <pt x="-1024" y="-323" on="1"/>
        <pt x="-900" y="-377" on="0"/>
        <pt x="-900" y="-467" on="1"/>
        <pt x="-900" y="-500" on="1"/>
        <pt x="-200" y="-500" on="1"/>
        <pt x="-200" y="-474" on="1"/>
        <pt x="-200" y="-424" on="0"/>
        <pt x="-361" y="-397" on="1"/>
        <pt x="-93" y="-100" on="1"/>
        <pt x="7" y="-208" on="0"/>
        <pt x="75" y="-208" on="1"/>
        <pt x="88" y="-208" on="0"/>
        <pt x="100" y="-204" on="1"/>
        <pt x="82" y="-299" on="0"/>
        <pt x="34" y="-315" on="1"/>
        <pt x="21" y="-319" on="0"/>
        <pt x="6" y="-319" on="1"/>
        <pt x="-38" y="-319" on="0"/>
        <pt x="-101" y="-286" on="1"/>
        <pt x="-135" y="-323" on="1"/>
        <pt x="0" y="-377" on="0"/>
        <pt x="0" y="-467" on="1"/>
        <pt x="0" y="-691" on="1"/>
        <pt x="0" y="-803" on="0"/>
        <pt x="-155" y="-950" on="0"/>
        <pt x="-253" y="-950" on="1"/>
        <pt x="-361" y="-950" on="0"/>
        <pt x="-361" y="-840" on="1"/>
        <pt x="-361" y="-790" on="0"/>
        <pt x="-200" y="-744" on="0"/>
        <pt x="-200" y="-714" on="1"/>
        <pt x="-200" y="-700" on="1"/>
      </contour>
    </TTGlyph>
    <TTGlyph name="glyph226" xMin="-2900" yMin="-950" xMax="-800" yMax="-100">
      <contour>
        <pt x="-800" y="-850" on="1"/>
        <pt x="-800" y="-950" on="0"/>
        <pt x="-881" y="-950" on="1"/>
        <pt x="-963" y="-950" on="0"/>
        <pt x="-1150" y="-870" on="0"/>
        <pt x="-1150" y="-787" on="1"/>
        <pt x="-1150" y="-704" on="0"/>
        <pt x="-1000" y="-620" on="0"/>
        <pt x="-1000" y="-560" on="1"/>
        <pt x="-1000" y="-502" on="1"/>
        <pt x="-1380" y="-303" on="1"/>
        <pt x="-1750" y="-502" on="1"/>
        <pt x="-1750" y="-850" on="1"/>
        <pt x="-1750" y="-950" on="0"/>
        <pt x="-1831" y="-950" on="1"/>
        <pt x="-1913" y="-950" on="0"/>
        <pt x="-2100" y="-890" on="0"/>
        <pt x="-2100" y="-807" on="1"/>
        <pt x="-2100" y="-724" on="0"/>
        <pt x="-1950" y="-620" on="0"/>
        <pt x="-1950" y="-560" on="1"/>
        <pt x="-1950" y="-502" on="1"/>
        <pt x="-2330" y="-303" on="1"/>
        <pt x="-2700" y="-502" on="1"/>
        <pt x="-2700" y="-580" on="1"/>
        <pt x="-2700" y="-620" on="0"/>
        <pt x="-2596" y="-677" on="1"/>
        <pt x="-2522" y="-718" on="0"/>
        <pt x="-2522" y="-786" on="1"/>
        <pt x="-2522" y="-812" on="0"/>
        <pt x="-2533" y="-842" on="1"/>
        <pt x="-2573" y="-950" on="0"/>
        <pt x="-2668" y="-950" on="1"/>
        <pt x="-2763" y="-950" on="0"/>
        <pt x="-2900" y="-800" on="0"/>
        <pt x="-2900" y="-660" on="1"/>
        <pt x="-2900" y="-452" on="1"/>
        <pt x="-2900" y="-374" on="0"/>
        <pt x="-2829" y="-335" on="1"/>
        <pt x="-2330" y="-100" on="1"/>
        <pt x="-1850" y="-324" on="1"/>
        <pt x="-1380" y="-100" on="1"/>
        <pt x="-881" y="-335" on="1"/>
        <pt x="-800" y="-374" on="0"/>
        <pt x="-800" y="-452" on="1"/>
      </contour>
    </TTGlyph>
    <TTGlyph name="glyph227" xMin="-2350" yMin="-950" xMax="-1350" yMax="-80">
      <contour>
        <pt x="-2350" y="-321" on="1"/>
        <pt x="-2350" y="-202" on="0"/>
        <pt x="-2055" y="-80" on="0"/>
        <pt x="-1850" y="-80" on="1"/>
        <pt x="-1644" y="-80" on="0"/>
        <pt x="-1350" y="-196" on="0"/>
        <pt x="-1350" y="-349" on="1"/>
        <pt x="-1350" y="-471" on="0"/>
        <pt x="-1874" y="-745" on="1"/>
        <pt x="-1802" y="-789" on="1"/>
        <pt x="-1440" y="-532" on="1"/>
        <pt x="-1439" y="-543" on="0"/>
        <pt x="-1439" y="-554" on="1"/>
        <pt x="-1439" y="-660" on="0"/>
        <pt x="-1579" y="-796" on="1"/>
        <pt x="-1735" y="-947" on="0"/>
        <pt x="-1810" y="-950" on="1"/>
        <pt x="-1885" y="-950" on="0"/>
        <pt x="-2032" y="-812" on="1"/>
        <pt x="-2111" y="-739" on="0"/>
        <pt x="-2111" y="-689" on="1"/>
        <pt x="-2111" y="-645" on="0"/>
        <pt x="-2050" y="-618" on="1"/>
        <pt x="-1550" y="-414" on="0"/>
        <pt x="-1550" y="-349" on="1"/>
        <pt x="-1550" y="-253" on="0"/>
        <pt x="-1850" y="-253" on="1"/>
        <pt x="-2150" y="-253" on="0"/>
        <pt x="-2150" y="-321" on="1"/>
        <pt x="-2150" y="-394" on="0"/>
        <pt x="-2102" y="-394" on="1"/>
        <pt x="-2102" y="-326" on="0"/>
        <pt x="-2014" y="-315" on="1"/>
        <pt x="-2000" y="-314" on="0"/>
        <pt x="-1987" y="-314" on="1"/>
        <pt x="-1922" y="-314" on="0"/>
        <pt x="-1898" y="-358" on="1"/>
        <pt x="-1889" y="-376" on="0"/>
        <pt x="-1889" y="-396" on="1"/>
        <pt x="-1889" y="-434" on="0"/>
        <pt x="-1924" y="-478" on="1"/>
        <pt x="-1978" y="-546" on="0"/>
        <pt x="-2102" y="-546" on="1"/>
        <pt x="-2350" y="-546" on="0"/>
      </contour>
    </TTGlyph>
    <TTGlyph name="glyph228" xMin="-2350" yMin="-950" xMax="-1350" yMax="-100">
      <contour>
        <pt x="-2350" y="-372" on="1"/>
        <pt x="-2350" y="-315" on="0"/>
        <pt x="-2287" y="-286" on="1"/>
        <pt x="-1850" y="-100" on="1"/>
        <pt x="-1412" y="-286" on="1"/>
        <pt x="-1350" y="-315" on="0"/>
        <pt x="-1350" y="-372" on="1"/>
        <pt x="-1350" y="-876" on="1"/>
        <pt x="-1350" y="-950" on="0"/>
        <pt x="-1417" y="-950" on="1"/>
        <pt x="-1485" y="-950" on="0"/>
        <pt x="-1641" y="-869" on="0"/>
        <pt x="-1641" y="-808" on="1"/>
        <pt x="-1641" y="-747" on="0"/>
        <pt x="-1550" y="-642" on="0"/>
        <pt x="-1550" y="-583" on="1"/>
        <pt x="-1550" y="-429" on="1"/>
        <pt x="-1850" y="-303" on="1"/>
        <pt x="-2150" y="-429" on="1"/>
        <pt x="-2150" y="-598" on="1"/>
        <pt x="-2150" y="-627" on="0"/>
        <pt x="-2080" y="-691" on="1"/>
        <pt x="-2033" y="-734" on="0"/>
        <pt x="-2033" y="-793" on="1"/>
        <pt x="-2033" y="-821" on="0"/>
        <pt x="-2043" y="-852" on="1"/>
        <pt x="-2077" y="-950" on="0"/>
        <pt x="-2156" y="-950" on="1"/>
        <pt x="-2235" y="-950" on="0"/>
        <pt x="-2350" y="-840" on="0"/>
        <pt x="-2350" y="-737" on="1"/>
      </contour>
    </TTGlyph>
    <TTGlyph name="glyph229" xMin="-2384" yMin="-950" xMax="-1316" yMax="-100">
      <contour>
        <pt x="-1983" y="-950" on="1"/>
        <pt x="-2183" y="-950" on="0"/>
        <pt x="-2283" y="-854" on="1"/>
        <pt x="-2384" y="-756" on="0"/>
        <pt x="-2384" y="-613" on="1"/>
        <pt x="-2384" y="-459" on="0"/>
        <pt x="-2334" y="-381" on="1"/>
        <pt x="-2283" y="-304" on="0"/>
        <pt x="-2183" y="-304" on="1"/>
        <pt x="-2117" y="-304" on="0"/>
        <pt x="-2083" y="-343" on="1"/>
        <pt x="-2050" y="-381" on="0"/>
        <pt x="-2050" y="-459" on="1"/>
        <pt x="-2117" y="-459" on="0"/>
        <pt x="-2184" y="-536" on="0"/>
        <pt x="-2184" y="-613" on="1"/>
        <pt x="-2184" y="-750" on="0"/>
        <pt x="-1983" y="-750" on="1"/>
        <pt x="-1773" y="-750" on="0"/>
        <pt x="-1576" y="-457" on="0"/>
        <pt x="-1442" y="-138" on="0"/>
        <pt x="-1426" y="-118" on="1"/>
        <pt x="-1410" y="-100" on="0"/>
        <pt x="-1382" y="-100" on="1"/>
        <pt x="-1316" y="-100" on="0"/>
        <pt x="-1316" y="-177" on="1"/>
        <pt x="-1316" y="-259" on="0"/>
        <pt x="-1432" y="-602" on="0"/>
        <pt x="-1516" y="-718" on="1"/>
        <pt x="-1600" y="-834" on="0"/>
        <pt x="-1716" y="-891" on="1"/>
        <pt x="-1832" y="-950" on="0"/>
      </contour>
    </TTGlyph>
    <TTGlyph name="glyph230" xMin="-2274" yMin="-950" xMax="-1425" yMax="-100">
      <contour>
        <pt x="-1870" y="-100" on="1"/>
        <pt x="-1790" y="-100" on="0"/>
        <pt x="-1790" y="-196" on="1"/>
        <pt x="-1790" y="-222" on="0"/>
        <pt x="-1795" y="-254" on="1"/>
        <pt x="-1823" y="-409" on="0"/>
        <pt x="-1972" y="-653" on="0"/>
        <pt x="-2061" y="-724" on="1"/>
        <pt x="-2061" y="-750" on="0"/>
        <pt x="-1955" y="-750" on="1"/>
        <pt x="-1807" y="-750" on="0"/>
        <pt x="-1732" y="-563" on="1"/>
        <pt x="-1783" y="-543" on="0"/>
        <pt x="-1783" y="-456" on="1"/>
        <pt x="-1783" y="-368" on="0"/>
        <pt x="-1703" y="-301" on="0"/>
        <pt x="-1623" y="-301" on="1"/>
        <pt x="-1554" y="-301" on="0"/>
        <pt x="-1485" y="-378" on="0"/>
        <pt x="-1485" y="-426" on="1"/>
        <pt x="-1485" y="-454" on="0"/>
        <pt x="-1502" y="-497" on="1"/>
        <pt x="-1425" y="-497" on="0"/>
        <pt x="-1425" y="-563" on="1"/>
        <pt x="-1425" y="-629" on="0"/>
        <pt x="-1517" y="-641" on="1"/>
        <pt x="-1531" y="-641" on="0"/>
        <pt x="-1557" y="-640" on="0"/>
        <pt x="-1569" y="-638" on="1"/>
        <pt x="-1583" y="-664" on="0"/>
        <pt x="-1616" y="-723" on="0"/>
        <pt x="-1634" y="-755" on="1"/>
        <pt x="-1668" y="-820" on="0"/>
        <pt x="-1758" y="-885" on="1"/>
        <pt x="-1848" y="-950" on="0"/>
        <pt x="-1955" y="-950" on="1"/>
        <pt x="-2114" y="-950" on="0"/>
        <pt x="-2194" y="-878" on="1"/>
        <pt x="-2274" y="-807" on="0"/>
        <pt x="-2274" y="-724" on="1"/>
        <pt x="-2274" y="-627" on="0"/>
        <pt x="-2151" y="-546" on="0"/>
        <pt x="-2037" y="-375" on="0"/>
        <pt x="-1972" y="-100" on="0"/>
      </contour>
    </TTGlyph>
    <TTGlyph name="glyph231" xMin="-2450" yMin="-950" xMax="-1250" yMax="-100">
      <contour>
        <pt x="-2100" y="-100" on="1"/>
        <pt x="-2100" y="-500" on="1"/>
        <pt x="-2027" y="-500" on="1"/>
        <pt x="-1837" y="-500" on="0"/>
        <pt x="-1726" y="-687" on="1"/>
        <pt x="-1689" y="-750" on="0"/>
        <pt x="-1589" y="-750" on="1"/>
        <pt x="-1450" y="-750" on="0"/>
        <pt x="-1450" y="-550" on="1"/>
        <pt x="-1450" y="-450" on="0"/>
        <pt x="-1510" y="-450" on="1"/>
        <pt x="-1570" y="-450" on="0"/>
        <pt x="-1610" y="-510" on="1"/>
        <pt x="-1700" y="-480" on="0"/>
        <pt x="-1700" y="-410" on="1"/>
        <pt x="-1700" y="-250" on="0"/>
        <pt x="-1510" y="-250" on="1"/>
        <pt x="-1250" y="-250" on="0"/>
        <pt x="-1250" y="-550" on="1"/>
        <pt x="-1250" y="-950" on="0"/>
        <pt x="-1587" y="-950" on="1"/>
        <pt x="-1758" y="-950" on="0"/>
        <pt x="-1859" y="-794" on="1"/>
        <pt x="-1919" y="-700" on="0"/>
        <pt x="-2024" y="-700" on="1"/>
        <pt x="-2100" y="-700" on="1"/>
        <pt x="-2100" y="-825" on="1"/>
        <pt x="-2100" y="-950" on="0"/>
        <pt x="-2200" y="-950" on="1"/>
        <pt x="-2300" y="-950" on="0"/>
        <pt x="-2450" y="-741" on="0"/>
        <pt x="-2450" y="-620" on="1"/>
        <pt x="-2450" y="-500" on="0"/>
        <pt x="-2300" y="-500" on="1"/>
        <pt x="-2300" y="-100" on="1"/>
      </contour>
    </TTGlyph>
    <TTGlyph name="glyph232" xMin="-2488" yMin="-942" xMax="-1211" yMax="-100">
      <contour>
        <pt x="-1611" y="-283" on="1"/>
        <pt x="-1643" y="-283" on="0"/>
        <pt x="-1655" y="-311" on="0"/>
        <pt x="-1655" y="-349" on="1"/>
        <pt x="-1655" y="-406" on="0"/>
        <pt x="-1594" y="-406" on="1"/>
        <pt x="-1546" y="-406" on="1"/>
        <pt x="-1532" y="-406" on="0"/>
        <pt x="-1531" y="-404" on="1"/>
        <pt x="-1565" y="-283" on="0"/>
      </contour>
      <contour>
        <pt x="-1243" y="-341" on="1"/>
        <pt x="-1211" y="-341" on="0"/>
        <pt x="-1211" y="-392" on="1"/>
        <pt x="-1211" y="-461" on="0"/>
        <pt x="-1275" y="-491" on="1"/>
        <pt x="-1289" y="-498" on="0"/>
        <pt x="-1318" y="-510" on="0"/>
        <pt x="-1335" y="-516" on="1"/>
        <pt x="-1335" y="-528" on="1"/>
        <pt x="-1335" y="-658" on="0"/>
        <pt x="-1514" y="-942" on="0"/>
        <pt x="-1644" y="-942" on="1"/>
        <pt x="-1709" y="-942" on="0"/>
        <pt x="-1777" y="-902" on="1"/>
        <pt x="-1845" y="-860" on="0"/>
        <pt x="-1912" y="-756" on="1"/>
        <pt x="-1989" y="-862" on="0"/>
        <pt x="-2053" y="-902" on="1"/>
        <pt x="-2117" y="-942" on="0"/>
        <pt x="-2182" y="-942" on="1"/>
        <pt x="-2310" y="-942" on="0"/>
        <pt x="-2488" y="-657" on="0"/>
        <pt x="-2488" y="-527" on="1"/>
        <pt x="-2488" y="-314" on="0"/>
        <pt x="-2300" y="-100" on="0"/>
        <pt x="-2172" y="-100" on="1"/>
        <pt x="-2108" y="-100" on="0"/>
        <pt x="-2108" y="-176" on="1"/>
        <pt x="-2108" y="-253" on="0"/>
        <pt x="-2172" y="-253" on="1"/>
        <pt x="-2204" y="-253" on="0"/>
        <pt x="-2288" y="-390" on="0"/>
        <pt x="-2288" y="-527" on="1"/>
        <pt x="-2288" y="-580" on="0"/>
        <pt x="-2214" y="-750" on="0"/>
        <pt x="-2182" y="-750" on="1"/>
        <pt x="-2150" y="-750" on="0"/>
        <pt x="-2041" y="-642" on="0"/>
        <pt x="-1912" y="-489" on="1"/>
        <pt x="-1786" y="-642" on="0"/>
        <pt x="-1708" y="-750" on="0"/>
        <pt x="-1641" y="-750" on="1"/>
        <pt x="-1610" y="-750" on="0"/>
        <pt x="-1528" y="-596" on="0"/>
        <pt x="-1527" y="-556" on="1"/>
        <pt x="-1542" y="-557" on="0"/>
        <pt x="-1575" y="-559" on="0"/>
        <pt x="-1591" y="-559" on="1"/>
        <pt x="-1687" y="-559" on="0"/>
        <pt x="-1813" y="-444" on="0"/>
        <pt x="-1813" y="-349" on="1"/>
        <pt x="-1813" y="-214" on="0"/>
        <pt x="-1707" y="-100" on="0"/>
        <pt x="-1611" y="-100" on="1"/>
        <pt x="-1509" y="-100" on="0"/>
        <pt x="-1376" y="-237" on="0"/>
        <pt x="-1345" y="-374" on="1"/>
        <pt x="-1327" y="-367" on="0"/>
        <pt x="-1291" y="-357" on="0"/>
        <pt x="-1275" y="-349" on="1"/>
        <pt x="-1267" y="-348" on="0"/>
        <pt x="-1255" y="-344" on="0"/>
        <pt x="-1252" y="-343" on="1"/>
        <pt x="-1246" y="-341" on="0"/>
      </contour>
    </TTGlyph>
    <TTGlyph name="glyph233" xMin="-2542" yMin="-800" xMax="-1158" yMax="-100">
      <contour>
        <pt x="-1358" y="-449" on="0"/>
        <pt x="-1358" y="-372" on="1"/>
        <pt x="-1358" y="-300" on="0"/>
        <pt x="-1436" y="-300" on="1"/>
        <pt x="-1522" y="-300" on="0"/>
        <pt x="-1522" y="-200" on="1"/>
        <pt x="-1522" y="-100" on="0"/>
        <pt x="-1436" y="-100" on="1"/>
        <pt x="-1158" y="-100" on="0"/>
        <pt x="-1158" y="-372" on="1"/>
        <pt x="-1158" y="-546" on="0"/>
        <pt x="-1451" y="-800" on="0"/>
        <pt x="-1715" y="-800" on="1"/>
        <pt x="-1993" y="-800" on="0"/>
        <pt x="-2387" y="-580" on="0"/>
        <pt x="-2516" y="-344" on="1"/>
        <pt x="-2542" y="-295" on="0"/>
        <pt x="-2542" y="-254" on="1"/>
        <pt x="-2542" y="-229" on="0"/>
        <pt x="-2533" y="-208" on="1"/>
        <pt x="-2508" y="-150" on="0"/>
        <pt x="-2436" y="-150" on="1"/>
        <pt x="-2365" y="-150" on="0"/>
        <pt x="-2327" y="-217" on="1"/>
        <pt x="-2212" y="-421" on="0"/>
        <pt x="-1929" y="-600" on="0"/>
        <pt x="-1715" y="-600" on="1"/>
        <pt x="-1547" y="-600" on="0"/>
      </contour>
    </TTGlyph>
    <TTGlyph name="glyph234" xMin="-2350" yMin="-950" xMax="-1350" yMax="-100">
      <contour>
        <pt x="-2150" y="-708" on="1"/>
        <pt x="-2150" y="-781" on="0"/>
        <pt x="-2110" y="-803" on="1"/>
        <pt x="-2080" y="-803" on="0"/>
        <pt x="-2041" y="-727" on="0"/>
        <pt x="-2041" y="-686" on="1"/>
        <pt x="-2041" y="-627" on="0"/>
        <pt x="-2094" y="-627" on="1"/>
        <pt x="-2150" y="-627" on="0"/>
      </contour>
      <contour>
        <pt x="-2150" y="-520" on="1"/>
        <pt x="-2127" y="-488" on="0"/>
        <pt x="-2094" y="-488" on="1"/>
        <pt x="-1875" y="-488" on="0"/>
        <pt x="-1875" y="-686" on="1"/>
        <pt x="-1875" y="-770" on="0"/>
        <pt x="-2022" y="-950" on="0"/>
        <pt x="-2110" y="-950" on="1"/>
        <pt x="-2191" y="-950" on="0"/>
        <pt x="-2350" y="-770" on="0"/>
        <pt x="-2350" y="-708" on="1"/>
        <pt x="-2350" y="-372" on="1"/>
        <pt x="-2350" y="-315" on="0"/>
        <pt x="-2287" y="-286" on="1"/>
        <pt x="-1850" y="-100" on="1"/>
        <pt x="-1412" y="-286" on="1"/>
        <pt x="-1350" y="-315" on="0"/>
        <pt x="-1350" y="-372" on="1"/>
        <pt x="-1350" y="-876" on="1"/>
        <pt x="-1350" y="-950" on="0"/>
        <pt x="-1417" y="-950" on="1"/>
        <pt x="-1485" y="-950" on="0"/>
        <pt x="-1641" y="-869" on="0"/>
        <pt x="-1641" y="-808" on="1"/>
        <pt x="-1641" y="-747" on="0"/>
        <pt x="-1550" y="-642" on="0"/>
        <pt x="-1550" y="-583" on="1"/>
        <pt x="-1550" y="-409" on="1"/>
        <pt x="-1850" y="-283" on="1"/>
        <pt x="-2150" y="-409" on="1"/>
      </contour>
    </TTGlyph>
    <TTGlyph name="glyph235" xMin="-2350" yMin="-939" xMax="-1350" yMax="-89">
      <contour>
        <pt x="-1610" y="-198" on="1"/>
        <pt x="-1610" y="-144" on="0"/>
        <pt x="-1579" y="-116" on="1"/>
        <pt x="-1547" y="-89" on="0"/>
        <pt x="-1475" y="-89" on="1"/>
        <pt x="-1412" y="-89" on="0"/>
        <pt x="-1381" y="-144" on="1"/>
        <pt x="-1350" y="-198" on="0"/>
        <pt x="-1350" y="-308" on="1"/>
        <pt x="-1350" y="-802" on="1"/>
        <pt x="-1350" y="-871" on="0"/>
        <pt x="-1383" y="-905" on="1"/>
        <pt x="-1416" y="-939" on="0"/>
        <pt x="-1483" y="-939" on="1"/>
        <pt x="-1841" y="-736" on="1"/>
        <pt x="-1970" y="-881" on="1"/>
        <pt x="-2018" y="-939" on="0"/>
        <pt x="-2044" y="-939" on="1"/>
        <pt x="-2070" y="-939" on="0"/>
        <pt x="-2105" y="-875" on="1"/>
        <pt x="-2318" y="-575" on="1"/>
        <pt x="-2350" y="-521" on="0"/>
        <pt x="-2350" y="-456" on="1"/>
        <pt x="-2350" y="-365" on="0"/>
        <pt x="-2239" y="-346" on="1"/>
        <pt x="-2125" y="-327" on="0"/>
        <pt x="-2034" y="-319" on="1"/>
        <pt x="-1941" y="-310" on="0"/>
        <pt x="-1863" y="-310" on="1"/>
        <pt x="-1551" y="-310" on="1"/>
        <pt x="-1579" y="-308" on="0"/>
        <pt x="-1594" y="-280" on="1"/>
        <pt x="-1610" y="-253" on="0"/>
      </contour>
      <contour>
        <pt x="-1551" y="-500" on="1"/>
        <pt x="-1879" y="-500" on="1"/>
        <pt x="-1929" y="-500" on="0"/>
        <pt x="-2068" y="-502" on="0"/>
        <pt x="-2137" y="-519" on="1"/>
        <pt x="-2024" y="-689" on="1"/>
        <pt x="-1849" y="-533" on="1"/>
        <pt x="-1551" y="-675" on="1"/>
      </contour>
    </TTGlyph>
    <TTGlyph name="glyph236" xMin="-2350" yMin="-950" xMax="-1350" yMax="-100">
      <contour>
        <pt x="-2153" y="-468" on="1"/>
        <pt x="-2115" y="-458" on="0"/>
        <pt x="-2115" y="-426" on="1"/>
        <pt x="-2115" y="-415" on="0"/>
        <pt x="-2119" y="-402" on="1"/>
        <pt x="-2106" y="-387" on="0"/>
        <pt x="-2054" y="-387" on="1"/>
        <pt x="-2047" y="-387" on="1"/>
        <pt x="-1956" y="-387" on="0"/>
        <pt x="-1956" y="-441" on="1"/>
        <pt x="-1956" y="-496" on="0"/>
        <pt x="-2115" y="-581" on="0"/>
        <pt x="-2153" y="-581" on="1"/>
        <pt x="-2250" y="-581" on="0"/>
        <pt x="-2350" y="-496" on="0"/>
        <pt x="-2350" y="-455" on="1"/>
        <pt x="-2350" y="-306" on="1"/>
        <pt x="-2350" y="-263" on="0"/>
        <pt x="-2277" y="-221" on="1"/>
        <pt x="-2062" y="-100" on="1"/>
        <pt x="-1850" y="-200" on="1"/>
        <pt x="-1640" y="-100" on="1"/>
        <pt x="-1424" y="-221" on="1"/>
        <pt x="-1350" y="-263" on="0"/>
        <pt x="-1350" y="-306" on="1"/>
        <pt x="-1350" y="-324" on="1"/>
        <pt x="-1350" y="-492" on="0"/>
        <pt x="-1967" y="-750" on="1"/>
        <pt x="-1923" y="-779" on="1"/>
        <pt x="-1516" y="-616" on="1"/>
        <pt x="-1469" y="-609" on="0"/>
        <pt x="-1436" y="-609" on="1"/>
        <pt x="-1350" y="-609" on="0"/>
        <pt x="-1350" y="-656" on="1"/>
        <pt x="-1350" y="-893" on="1"/>
        <pt x="-1350" y="-950" on="0"/>
        <pt x="-1433" y="-950" on="1"/>
        <pt x="-1516" y="-950" on="0"/>
        <pt x="-1516" y="-893" on="1"/>
        <pt x="-1516" y="-772" on="1"/>
        <pt x="-1851" y="-917" on="1"/>
        <pt x="-1926" y="-950" on="0"/>
        <pt x="-1950" y="-950" on="1"/>
        <pt x="-1975" y="-950" on="0"/>
        <pt x="-2059" y="-885" on="1"/>
        <pt x="-2143" y="-821" on="1"/>
        <pt x="-2185" y="-786" on="0"/>
        <pt x="-2185" y="-731" on="1"/>
        <pt x="-2185" y="-677" on="0"/>
        <pt x="-2114" y="-647" on="1"/>
        <pt x="-1550" y="-431" on="0"/>
        <pt x="-1550" y="-344" on="1"/>
        <pt x="-1650" y="-280" on="1"/>
        <pt x="-1850" y="-373" on="1"/>
        <pt x="-2050" y="-280" on="1"/>
        <pt x="-2153" y="-354" on="1"/>
      </contour>
    </TTGlyph>
    <TTGlyph name="glyph237" xMin="-2350" yMin="-950" xMax="-1350" yMax="-100">
      <contour>
        <pt x="-2150" y="-708" on="1"/>
        <pt x="-2150" y="-781" on="0"/>
        <pt x="-2110" y="-803" on="1"/>
        <pt x="-2080" y="-803" on="0"/>
        <pt x="-2041" y="-727" on="0"/>
        <pt x="-2041" y="-686" on="1"/>
        <pt x="-2041" y="-627" on="0"/>
        <pt x="-2094" y="-627" on="1"/>
        <pt x="-2150" y="-627" on="0"/>
      </contour>
      <contour>
        <pt x="-2150" y="-520" on="1"/>
        <pt x="-2127" y="-488" on="0"/>
        <pt x="-2094" y="-488" on="1"/>
        <pt x="-1875" y="-488" on="0"/>
        <pt x="-1875" y="-686" on="1"/>
        <pt x="-1875" y="-770" on="0"/>
        <pt x="-2022" y="-950" on="0"/>
        <pt x="-2110" y="-950" on="1"/>
        <pt x="-2191" y="-950" on="0"/>
        <pt x="-2350" y="-770" on="0"/>
        <pt x="-2350" y="-708" on="1"/>
        <pt x="-2350" y="-372" on="1"/>
        <pt x="-2350" y="-315" on="0"/>
        <pt x="-2287" y="-286" on="1"/>
        <pt x="-1850" y="-100" on="1"/>
        <pt x="-1412" y="-286" on="1"/>
        <pt x="-1350" y="-315" on="0"/>
        <pt x="-1350" y="-372" on="1"/>
        <pt x="-1350" y="-876" on="1"/>
        <pt x="-1350" y="-950" on="0"/>
        <pt x="-1417" y="-950" on="1"/>
        <pt x="-1485" y="-950" on="0"/>
        <pt x="-1641" y="-869" on="0"/>
        <pt x="-1641" y="-808" on="1"/>
        <pt x="-1641" y="-747" on="0"/>
        <pt x="-1550" y="-642" on="0"/>
        <pt x="-1550" y="-583" on="1"/>
        <pt x="-1550" y="-409" on="1"/>
        <pt x="-1850" y="-283" on="1"/>
        <pt x="-2150" y="-409" on="1"/>
      </contour>
    </TTGlyph>
    <TTGlyph name="glyph238" xMin="-2407" yMin="-900" xMax="-1292" yMax="-150">
      <contour>
        <pt x="-2189" y="-632" on="1"/>
        <pt x="-2159" y="-700" on="0"/>
        <pt x="-2077" y="-700" on="1"/>
        <pt x="-2027" y="-700" on="0"/>
        <pt x="-2027" y="-650" on="1"/>
        <pt x="-2027" y="-599" on="0"/>
        <pt x="-2127" y="-595" on="1"/>
        <pt x="-2130" y="-595" on="1"/>
        <pt x="-2163" y="-595" on="0"/>
      </contour>
      <contour>
        <pt x="-2196" y="-471" on="1"/>
        <pt x="-2138" y="-432" on="0"/>
        <pt x="-2067" y="-432" on="1"/>
        <pt x="-2043" y="-432" on="0"/>
        <pt x="-2017" y="-437" on="1"/>
        <pt x="-1827" y="-470" on="0"/>
        <pt x="-1827" y="-650" on="1"/>
        <pt x="-1827" y="-900" on="0"/>
        <pt x="-2077" y="-900" on="1"/>
        <pt x="-2407" y="-900" on="0"/>
        <pt x="-2407" y="-532" on="1"/>
        <pt x="-2407" y="-150" on="0"/>
        <pt x="-1907" y="-150" on="1"/>
        <pt x="-1464" y="-150" on="0"/>
        <pt x="-1320" y="-378" on="1"/>
        <pt x="-1292" y="-424" on="0"/>
        <pt x="-1292" y="-459" on="1"/>
        <pt x="-1292" y="-505" on="0"/>
        <pt x="-1339" y="-531" on="1"/>
        <pt x="-1365" y="-546" on="0"/>
        <pt x="-1389" y="-546" on="1"/>
        <pt x="-1443" y="-546" on="0"/>
        <pt x="-1492" y="-474" on="1"/>
        <pt x="-1563" y="-350" on="0"/>
        <pt x="-1907" y="-350" on="1"/>
        <pt x="-2150" y="-350" on="0"/>
      </contour>
    </TTGlyph>
    <TTGlyph name="glyph239" xMin="-2300" yMin="-950" xMax="-1400" yMax="-100">
      <contour>
        <pt x="-1870" y="-248" on="1"/>
        <pt x="-1926" y="-229" on="0"/>
        <pt x="-1926" y="-196" on="1"/>
        <pt x="-1926" y="-164" on="0"/>
        <pt x="-1898" y="-132" on="1"/>
        <pt x="-1870" y="-100" on="0"/>
        <pt x="-1803" y="-100" on="1"/>
        <pt x="-1737" y="-100" on="0"/>
        <pt x="-1709" y="-132" on="1"/>
        <pt x="-1681" y="-164" on="0"/>
        <pt x="-1681" y="-229" on="1"/>
        <pt x="-1681" y="-293" on="0"/>
        <pt x="-1733" y="-404" on="1"/>
        <pt x="-1784" y="-517" on="0"/>
        <pt x="-1878" y="-589" on="1"/>
        <pt x="-1972" y="-662" on="0"/>
        <pt x="-2100" y="-704" on="1"/>
        <pt x="-2100" y="-750" on="0"/>
        <pt x="-1991" y="-750" on="1"/>
        <pt x="-1882" y="-750" on="0"/>
        <pt x="-1621" y="-501" on="0"/>
        <pt x="-1590" y="-392" on="1"/>
        <pt x="-1558" y="-283" on="0"/>
        <pt x="-1533" y="-257" on="1"/>
        <pt x="-1509" y="-229" on="0"/>
        <pt x="-1473" y="-229" on="1"/>
        <pt x="-1400" y="-229" on="0"/>
        <pt x="-1400" y="-294" on="1"/>
        <pt x="-1400" y="-850" on="1"/>
        <pt x="-1400" y="-950" on="0"/>
        <pt x="-1484" y="-950" on="1"/>
        <pt x="-1568" y="-950" on="0"/>
        <pt x="-1568" y="-850" on="1"/>
        <pt x="-1568" y="-668" on="1"/>
        <pt x="-1637" y="-800" on="0"/>
        <pt x="-1863" y="-950" on="0"/>
        <pt x="-1963" y="-950" on="1"/>
        <pt x="-2103" y="-950" on="0"/>
        <pt x="-2300" y="-823" on="0"/>
        <pt x="-2300" y="-699" on="1"/>
        <pt x="-2300" y="-594" on="0"/>
        <pt x="-2243" y="-574" on="1"/>
        <pt x="-2028" y="-499" on="0"/>
        <pt x="-1870" y="-288" on="0"/>
      </contour>
    </TTGlyph>
    <TTGlyph name="glyph240" xMin="-2325" yMin="-950" xMax="-1375" yMax="-102">
      <contour>
        <pt x="-1606" y="-215" on="1"/>
        <pt x="-1615" y="-316" on="0"/>
        <pt x="-1766" y="-447" on="1"/>
        <pt x="-1698" y="-482" on="0"/>
        <pt x="-1655" y="-482" on="1"/>
        <pt x="-1634" y="-482" on="0"/>
        <pt x="-1619" y="-473" on="1"/>
        <pt x="-1575" y="-446" on="0"/>
        <pt x="-1575" y="-361" on="1"/>
        <pt x="-1575" y="-257" on="0"/>
        <pt x="-1592" y="-253" on="1"/>
        <pt x="-1605" y="-250" on="0"/>
        <pt x="-1605" y="-215" on="1"/>
        <pt x="-1605" y="-200" on="0"/>
        <pt x="-1603" y="-181" on="1"/>
        <pt x="-1598" y="-121" on="0"/>
        <pt x="-1548" y="-121" on="1"/>
        <pt x="-1542" y="-121" on="0"/>
        <pt x="-1535" y="-122" on="1"/>
        <pt x="-1469" y="-129" on="0"/>
        <pt x="-1375" y="-255" on="0"/>
        <pt x="-1375" y="-361" on="1"/>
        <pt x="-1375" y="-592" on="0"/>
        <pt x="-1489" y="-654" on="1"/>
        <pt x="-1544" y="-683" on="0"/>
        <pt x="-1601" y="-683" on="1"/>
        <pt x="-1665" y="-683" on="0"/>
        <pt x="-1733" y="-647" on="1"/>
        <pt x="-1746" y="-811" on="0"/>
        <pt x="-1942" y="-950" on="0"/>
        <pt x="-2050" y="-950" on="1"/>
        <pt x="-2159" y="-950" on="0"/>
        <pt x="-2325" y="-804" on="0"/>
        <pt x="-2325" y="-694" on="1"/>
        <pt x="-2325" y="-585" on="0"/>
        <pt x="-2270" y="-556" on="1"/>
        <pt x="-1971" y="-400" on="0"/>
        <pt x="-1858" y="-284" on="1"/>
        <pt x="-1769" y="-192" on="0"/>
        <pt x="-1769" y="-168" on="1"/>
        <pt x="-1769" y="-162" on="0"/>
        <pt x="-1775" y="-160" on="1"/>
        <pt x="-1769" y="-102" on="0"/>
        <pt x="-1700" y="-102" on="1"/>
        <pt x="-1690" y="-102" on="0"/>
        <pt x="-1677" y="-103" on="1"/>
        <pt x="-1606" y="-112" on="0"/>
        <pt x="-1606" y="-207" on="1"/>
      </contour>
      <contour>
        <pt x="-2125" y="-706" on="1"/>
        <pt x="-2125" y="-751" on="0"/>
        <pt x="-2018" y="-753" on="1"/>
        <pt x="-2016" y="-753" on="1"/>
        <pt x="-1911" y="-753" on="0"/>
        <pt x="-1869" y="-540" on="1"/>
        <pt x="-1981" y="-616" on="0"/>
        <pt x="-2059" y="-677" on="0"/>
      </contour>
    </TTGlyph>
    <TTGlyph name="glyph241" xMin="-2525" yMin="-950" xMax="-1175" yMax="-110">
      <contour>
        <pt x="-2203" y="-816" on="1"/>
        <pt x="-2525" y="-816" on="0"/>
        <pt x="-2525" y="-533" on="1"/>
        <pt x="-2525" y="-250" on="0"/>
        <pt x="-2203" y="-250" on="1"/>
        <pt x="-1795" y="-250" on="1"/>
        <pt x="-1795" y="-200" on="1"/>
        <pt x="-1795" y="-110" on="0"/>
        <pt x="-1695" y="-110" on="1"/>
        <pt x="-1595" y="-110" on="0"/>
        <pt x="-1595" y="-200" on="1"/>
        <pt x="-1595" y="-250" on="1"/>
        <pt x="-1275" y="-250" on="1"/>
        <pt x="-1175" y="-250" on="0"/>
        <pt x="-1175" y="-350" on="1"/>
        <pt x="-1175" y="-450" on="0"/>
        <pt x="-1275" y="-450" on="1"/>
        <pt x="-1595" y="-450" on="1"/>
        <pt x="-1595" y="-616" on="1"/>
        <pt x="-1517" y="-616" on="0"/>
        <pt x="-1485" y="-658" on="1"/>
        <pt x="-1453" y="-699" on="0"/>
        <pt x="-1453" y="-783" on="1"/>
        <pt x="-1453" y="-867" on="0"/>
        <pt x="-1493" y="-908" on="1"/>
        <pt x="-1534" y="-950" on="0"/>
        <pt x="-1614" y="-950" on="1"/>
        <pt x="-1694" y="-950" on="0"/>
        <pt x="-1795" y="-850" on="0"/>
        <pt x="-1795" y="-790" on="1"/>
        <pt x="-1959" y="-816" on="0"/>
      </contour>
      <contour>
        <pt x="-2325" y="-616" on="0"/>
        <pt x="-2203" y="-616" on="1"/>
        <pt x="-1795" y="-616" on="1"/>
        <pt x="-1795" y="-450" on="1"/>
        <pt x="-2203" y="-450" on="1"/>
        <pt x="-2325" y="-450" on="0"/>
        <pt x="-2325" y="-533" on="1"/>
      </contour>
    </TTGlyph>
    <TTGlyph name="glyph242" xMin="-2450" yMin="-950" xMax="-1250" yMax="-100">
      <contour>
        <pt x="-1433" y="-491" on="1"/>
        <pt x="-1435" y="-405" on="0"/>
        <pt x="-1488" y="-405" on="1"/>
        <pt x="-1525" y="-405" on="0"/>
        <pt x="-1525" y="-446" on="1"/>
        <pt x="-1525" y="-492" on="0"/>
        <pt x="-1451" y="-492" on="1"/>
        <pt x="-1443" y="-492" on="0"/>
      </contour>
      <contour>
        <pt x="-1455" y="-603" on="1"/>
        <pt x="-1662" y="-599" on="0"/>
        <pt x="-1662" y="-446" on="1"/>
        <pt x="-1662" y="-221" on="0"/>
        <pt x="-1488" y="-221" on="1"/>
        <pt x="-1250" y="-221" on="0"/>
        <pt x="-1250" y="-498" on="1"/>
        <pt x="-1250" y="-666" on="0"/>
        <pt x="-1445" y="-950" on="0"/>
        <pt x="-1557" y="-950" on="1"/>
        <pt x="-1618" y="-950" on="0"/>
        <pt x="-1810" y="-760" on="1"/>
        <pt x="-2053" y="-950" on="1"/>
        <pt x="-2163" y="-950" on="0"/>
        <pt x="-2441" y="-632" on="0"/>
        <pt x="-2441" y="-523" on="1"/>
        <pt x="-2260" y="-389" on="1"/>
        <pt x="-2450" y="-282" on="1"/>
        <pt x="-2345" y="-100" on="1"/>
        <pt x="-2011" y="-258" on="0"/>
        <pt x="-2011" y="-378" on="1"/>
        <pt x="-2011" y="-447" on="0"/>
        <pt x="-2097" y="-509" on="1"/>
        <pt x="-2183" y="-571" on="1"/>
        <pt x="-2148" y="-648" on="0"/>
        <pt x="-2057" y="-705" on="1"/>
        <pt x="-1792" y="-483" on="1"/>
        <pt x="-1559" y="-698" on="1"/>
        <pt x="-1521" y="-698" on="0"/>
        <pt x="-1474" y="-633" on="1"/>
        <pt x="-1463" y="-618" on="0"/>
      </contour>
    </TTGlyph>
    <TTGlyph name="glyph243" xMin="-2350" yMin="-950" xMax="-1350" yMax="-94">
      <contour>
        <pt x="-2150" y="-737" on="1"/>
        <pt x="-2130" y="-798" on="0"/>
        <pt x="-2105" y="-798" on="1"/>
        <pt x="-2080" y="-798" on="0"/>
        <pt x="-2041" y="-757" on="0"/>
        <pt x="-2041" y="-715" on="1"/>
        <pt x="-2041" y="-654" on="0"/>
        <pt x="-2074" y="-654" on="1"/>
        <pt x="-2150" y="-654" on="0"/>
      </contour>
      <contour>
        <pt x="-1350" y="-874" on="1"/>
        <pt x="-1350" y="-950" on="0"/>
        <pt x="-1417" y="-950" on="1"/>
        <pt x="-1485" y="-950" on="0"/>
        <pt x="-1641" y="-866" on="0"/>
        <pt x="-1641" y="-803" on="1"/>
        <pt x="-1641" y="-740" on="0"/>
        <pt x="-1550" y="-631" on="0"/>
        <pt x="-1550" y="-571" on="1"/>
        <pt x="-1550" y="-394" on="1"/>
        <pt x="-1650" y="-314" on="1"/>
        <pt x="-1850" y="-449" on="1"/>
        <pt x="-2050" y="-314" on="1"/>
        <pt x="-2150" y="-394" on="1"/>
        <pt x="-2150" y="-543" on="1"/>
        <pt x="-2117" y="-510" on="0"/>
        <pt x="-2074" y="-510" on="1"/>
        <pt x="-1875" y="-510" on="0"/>
        <pt x="-1875" y="-715" on="1"/>
        <pt x="-1875" y="-802" on="0"/>
        <pt x="-2022" y="-950" on="0"/>
        <pt x="-2110" y="-950" on="1"/>
        <pt x="-2191" y="-950" on="0"/>
        <pt x="-2350" y="-802" on="0"/>
        <pt x="-2350" y="-737" on="1"/>
        <pt x="-2350" y="-370" on="1"/>
        <pt x="-2350" y="-312" on="0"/>
        <pt x="-2277" y="-256" on="1"/>
        <pt x="-2062" y="-94" on="1"/>
        <pt x="-1850" y="-228" on="1"/>
        <pt x="-1640" y="-94" on="1"/>
        <pt x="-1424" y="-256" on="1"/>
        <pt x="-1350" y="-312" on="0"/>
        <pt x="-1350" y="-370" on="1"/>
      </contour>
    </TTGlyph>
    <TTGlyph name="glyph244" xMin="-2350" yMin="-950" xMax="-1350" yMax="-100">
      <contour>
        <pt x="-2000" y="-468" on="0"/>
        <pt x="-2000" y="-557" on="1"/>
        <pt x="-2000" y="-704" on="1"/>
        <pt x="-2000" y="-794" on="0"/>
        <pt x="-2117" y="-950" on="0"/>
        <pt x="-2233" y="-950" on="1"/>
        <pt x="-2350" y="-950" on="0"/>
        <pt x="-2350" y="-789" on="1"/>
        <pt x="-2200" y="-721" on="0"/>
        <pt x="-2200" y="-639" on="1"/>
        <pt x="-2200" y="-557" on="1"/>
        <pt x="-2200" y="-468" on="0"/>
        <pt x="-2310" y="-404" on="1"/>
        <pt x="-2310" y="-340" on="0"/>
        <pt x="-2250" y="-308" on="1"/>
        <pt x="-1830" y="-100" on="1"/>
        <pt x="-1410" y="-308" on="1"/>
        <pt x="-1350" y="-340" on="0"/>
        <pt x="-1350" y="-404" on="1"/>
        <pt x="-1350" y="-868" on="1"/>
        <pt x="-1350" y="-950" on="0"/>
        <pt x="-1414" y="-950" on="1"/>
        <pt x="-1480" y="-950" on="0"/>
        <pt x="-1660" y="-860" on="0"/>
        <pt x="-1660" y="-792" on="1"/>
        <pt x="-1660" y="-724" on="0"/>
        <pt x="-1550" y="-663" on="0"/>
        <pt x="-1550" y="-598" on="1"/>
        <pt x="-1550" y="-444" on="1"/>
        <pt x="-1830" y="-312" on="1"/>
        <pt x="-2056" y="-424" on="1"/>
      </contour>
    </TTGlyph>
    <TTGlyph name="glyph245" xMin="-2515" yMin="-950" xMax="-1185" yMax="-150">
      <contour>
        <pt x="-1375" y="-313" on="1"/>
        <pt x="-1485" y="-381" on="0"/>
        <pt x="-1485" y="-450" on="1"/>
        <pt x="-1435" y="-450" on="1"/>
        <pt x="-1185" y="-450" on="0"/>
        <pt x="-1185" y="-700" on="1"/>
        <pt x="-1185" y="-950" on="0"/>
        <pt x="-1435" y="-950" on="1"/>
        <pt x="-1685" y="-950" on="0"/>
        <pt x="-1685" y="-650" on="1"/>
        <pt x="-1720" y="-650" on="0"/>
        <pt x="-1844" y="-808" on="0"/>
        <pt x="-1955" y="-808" on="1"/>
        <pt x="-2045" y="-808" on="0"/>
        <pt x="-2190" y="-650" on="0"/>
        <pt x="-2515" y="-600" on="0"/>
        <pt x="-2515" y="-540" on="1"/>
        <pt x="-2515" y="-480" on="0"/>
        <pt x="-2364" y="-465" on="1"/>
        <pt x="-2340" y="-463" on="0"/>
        <pt x="-2317" y="-463" on="1"/>
        <pt x="-2196" y="-463" on="0"/>
        <pt x="-2105" y="-528" on="1"/>
        <pt x="-1997" y="-606" on="0"/>
        <pt x="-1955" y="-606" on="1"/>
        <pt x="-1915" y="-605" on="0"/>
        <pt x="-1786" y="-450" on="0"/>
        <pt x="-1685" y="-450" on="1"/>
        <pt x="-1685" y="-290" on="0"/>
        <pt x="-1547" y="-150" on="0"/>
        <pt x="-1466" y="-150" on="1"/>
        <pt x="-1385" y="-150" on="0"/>
      </contour>
      <contour>
        <pt x="-1436" y="-750" on="1"/>
        <pt x="-1385" y="-750" on="0"/>
        <pt x="-1385" y="-700" on="1"/>
        <pt x="-1385" y="-650" on="0"/>
        <pt x="-1435" y="-650" on="1"/>
        <pt x="-1485" y="-650" on="1"/>
        <pt x="-1485" y="-750" on="0"/>
      </contour>
    </TTGlyph>
    <TTGlyph name="glyph246" xMin="-2412" yMin="-950" xMax="-1287" yMax="-95">
      <contour>
        <pt x="-1968" y="-675" on="1"/>
        <pt x="-1842" y="-676" on="0"/>
        <pt x="-1842" y="-742" on="1"/>
        <pt x="-1842" y="-771" on="0"/>
        <pt x="-1867" y="-813" on="1"/>
        <pt x="-1950" y="-950" on="0"/>
        <pt x="-2112" y="-950" on="1"/>
        <pt x="-2412" y="-950" on="0"/>
        <pt x="-2412" y="-659" on="1"/>
        <pt x="-2412" y="-400" on="0"/>
        <pt x="-2077" y="-400" on="1"/>
        <pt x="-1989" y="-400" on="0"/>
        <pt x="-1879" y="-452" on="1"/>
        <pt x="-1458" y="-130" on="1"/>
        <pt x="-1415" y="-95" on="0"/>
        <pt x="-1378" y="-95" on="1"/>
        <pt x="-1343" y="-95" on="0"/>
        <pt x="-1313" y="-127" on="1"/>
        <pt x="-1287" y="-154" on="0"/>
        <pt x="-1287" y="-183" on="1"/>
        <pt x="-1287" y="-222" on="0"/>
        <pt x="-1335" y="-263" on="1"/>
        <pt x="-1548" y="-447" on="1"/>
        <pt x="-1727" y="-594" on="1"/>
        <pt x="-1766" y="-624" on="0"/>
        <pt x="-1833" y="-624" on="1"/>
        <pt x="-1861" y="-624" on="0"/>
        <pt x="-1895" y="-618" on="1"/>
        <pt x="-2007" y="-600" on="0"/>
        <pt x="-2077" y="-600" on="1"/>
        <pt x="-2212" y="-600" on="0"/>
        <pt x="-2212" y="-659" on="1"/>
        <pt x="-2212" y="-750" on="0"/>
        <pt x="-2112" y="-750" on="1"/>
        <pt x="-2019" y="-750" on="0"/>
      </contour>
    </TTGlyph>
    <TTGlyph name="glyph247" xMin="-2322" yMin="-950" xMax="-1378" yMax="-100">
      <contour>
        <pt x="-1713" y="-950" on="0"/>
        <pt x="-1958" y="-950" on="1"/>
        <pt x="-2203" y="-950" on="0"/>
        <pt x="-2322" y="-682" on="1"/>
        <pt x="-2136" y="-586" on="0"/>
        <pt x="-1777" y="-309" on="0"/>
        <pt x="-1631" y="-116" on="1"/>
        <pt x="-1581" y="-100" on="0"/>
        <pt x="-1543" y="-100" on="1"/>
        <pt x="-1455" y="-100" on="0"/>
        <pt x="-1378" y="-256" on="0"/>
        <pt x="-1378" y="-344" on="1"/>
        <pt x="-1378" y="-553" on="0"/>
      </contour>
      <contour>
        <pt x="-1741" y="-573" on="0"/>
        <pt x="-2014" y="-751" on="1"/>
        <pt x="-2009" y="-773" on="0"/>
        <pt x="-1980" y="-773" on="1"/>
        <pt x="-1943" y="-773" on="0"/>
        <pt x="-1868" y="-738" on="1"/>
        <pt x="-1735" y="-676" on="0"/>
        <pt x="-1578" y="-466" on="0"/>
        <pt x="-1578" y="-339" on="1"/>
      </contour>
    </TTGlyph>
    <TTGlyph name="glyph248" xMin="-2750" yMin="-950" xMax="-1250" yMax="-100">
      <contour>
        <pt x="-1850" y="-666" on="1"/>
        <pt x="-1896" y="-893" on="0"/>
        <pt x="-2163" y="-950" on="1"/>
        <pt x="-2415" y="-950" on="1"/>
        <pt x="-2493" y="-950" on="0"/>
        <pt x="-2730" y="-774" on="0"/>
        <pt x="-2750" y="-640" on="1"/>
        <pt x="-2587" y="-499" on="1"/>
        <pt x="-2619" y="-404" on="0"/>
        <pt x="-2750" y="-370" on="1"/>
        <pt x="-2537" y="-100" on="1"/>
        <pt x="-2382" y="-191" on="0"/>
        <pt x="-2320" y="-191" on="1"/>
        <pt x="-2308" y="-191" on="0"/>
        <pt x="-2300" y="-188" on="1"/>
        <pt x="-2305" y="-291" on="0"/>
        <pt x="-2336" y="-321" on="1"/>
        <pt x="-2348" y="-332" on="0"/>
        <pt x="-2373" y="-332" on="1"/>
        <pt x="-2415" y="-332" on="0"/>
        <pt x="-2494" y="-301" on="1"/>
        <pt x="-2524" y="-337" on="1"/>
        <pt x="-2465" y="-371" on="0"/>
        <pt x="-2371" y="-464" on="0"/>
        <pt x="-2371" y="-507" on="1"/>
        <pt x="-2371" y="-549" on="0"/>
        <pt x="-2540" y="-666" on="1"/>
        <pt x="-2415" y="-750" on="1"/>
        <pt x="-2163" y="-750" on="1"/>
        <pt x="-2050" y="-666" on="1"/>
        <pt x="-2050" y="-453" on="1"/>
        <pt x="-2050" y="-390" on="0"/>
        <pt x="-2067" y="-370" on="1"/>
        <pt x="-2089" y="-363" on="0"/>
        <pt x="-2089" y="-345" on="1"/>
        <pt x="-2089" y="-328" on="0"/>
        <pt x="-2065" y="-314" on="1"/>
        <pt x="-1709" y="-100" on="0"/>
        <pt x="-1672" y="-100" on="1"/>
        <pt x="-1633" y="-100" on="0"/>
        <pt x="-1250" y="-304" on="1"/>
        <pt x="-1250" y="-893" on="1"/>
        <pt x="-1250" y="-950" on="0"/>
        <pt x="-1304" y="-950" on="1"/>
        <pt x="-1358" y="-950" on="0"/>
        <pt x="-1549" y="-887" on="0"/>
        <pt x="-1549" y="-840" on="1"/>
        <pt x="-1549" y="-793" on="0"/>
        <pt x="-1450" y="-712" on="0"/>
        <pt x="-1450" y="-666" on="1"/>
        <pt x="-1450" y="-410" on="1"/>
        <pt x="-1675" y="-306" on="1"/>
        <pt x="-1887" y="-437" on="1"/>
        <pt x="-1850" y="-463" on="0"/>
        <pt x="-1850" y="-493" on="1"/>
      </contour>
    </TTGlyph>
    <TTGlyph name="glyph249" xMin="-2525" yMin="-950" xMax="-1175" yMax="-100">
      <contour>
        <pt x="-2175" y="-700" on="1"/>
        <pt x="-2175" y="-721" on="1"/>
        <pt x="-2175" y="-803" on="0"/>
        <pt x="-2319" y="-950" on="0"/>
        <pt x="-2417" y="-950" on="1"/>
        <pt x="-2525" y="-950" on="0"/>
        <pt x="-2525" y="-840" on="1"/>
        <pt x="-2525" y="-790" on="0"/>
        <pt x="-2375" y="-744" on="0"/>
        <pt x="-2375" y="-684" on="1"/>
        <pt x="-2375" y="-474" on="1"/>
        <pt x="-2375" y="-424" on="0"/>
        <pt x="-2525" y="-397" on="1"/>
        <pt x="-2257" y="-100" on="1"/>
        <pt x="-2092" y="-208" on="0"/>
        <pt x="-2013" y="-208" on="1"/>
        <pt x="-1998" y="-208" on="0"/>
        <pt x="-1986" y="-204" on="1"/>
        <pt x="-2005" y="-299" on="0"/>
        <pt x="-2090" y="-315" on="1"/>
        <pt x="-2112" y="-319" on="0"/>
        <pt x="-2135" y="-319" on="1"/>
        <pt x="-2199" y="-319" on="0"/>
        <pt x="-2265" y="-286" on="1"/>
        <pt x="-2299" y="-323" on="1"/>
        <pt x="-2175" y="-377" on="0"/>
        <pt x="-2175" y="-467" on="1"/>
        <pt x="-2175" y="-500" on="1"/>
        <pt x="-1475" y="-500" on="1"/>
        <pt x="-1475" y="-474" on="1"/>
        <pt x="-1475" y="-424" on="0"/>
        <pt x="-1636" y="-397" on="1"/>
        <pt x="-1368" y="-100" on="1"/>
        <pt x="-1268" y="-208" on="0"/>
        <pt x="-1200" y="-208" on="1"/>
        <pt x="-1187" y="-208" on="0"/>
        <pt x="-1175" y="-204" on="1"/>
        <pt x="-1193" y="-299" on="0"/>
        <pt x="-1241" y="-315" on="1"/>
        <pt x="-1254" y="-319" on="0"/>
        <pt x="-1269" y="-319" on="1"/>
        <pt x="-1313" y="-319" on="0"/>
        <pt x="-1376" y="-286" on="1"/>
        <pt x="-1410" y="-323" on="1"/>
        <pt x="-1275" y="-377" on="0"/>
        <pt x="-1275" y="-467" on="1"/>
        <pt x="-1275" y="-691" on="1"/>
        <pt x="-1275" y="-803" on="0"/>
        <pt x="-1430" y="-950" on="0"/>
        <pt x="-1528" y="-950" on="1"/>
        <pt x="-1636" y="-950" on="0"/>
        <pt x="-1636" y="-840" on="1"/>
        <pt x="-1636" y="-790" on="0"/>
        <pt x="-1475" y="-744" on="0"/>
        <pt x="-1475" y="-714" on="1"/>
        <pt x="-1475" y="-700" on="1"/>
      </contour>
    </TTGlyph>
    <TTGlyph name="glyph250" xMin="-2185" yMin="1850" xMax="-1515" yMax="2500">
      <contour>
        <pt x="-1515" y="1984" on="1"/>
        <pt x="-1515" y="1877" on="0"/>
        <pt x="-1615" y="1850" on="1"/>
        <pt x="-1715" y="1877" on="0"/>
        <pt x="-1715" y="1984" on="1"/>
        <pt x="-1715" y="2270" on="1"/>
        <pt x="-1715" y="2310" on="0"/>
        <pt x="-1785" y="2350" on="0"/>
        <pt x="-1785" y="2425" on="1"/>
        <pt x="-1785" y="2500" on="0"/>
        <pt x="-1685" y="2500" on="1"/>
        <pt x="-1515" y="2500" on="0"/>
        <pt x="-1515" y="2270" on="1"/>
      </contour>
      <contour>
        <pt x="-1915" y="1984" on="1"/>
        <pt x="-1915" y="1877" on="0"/>
        <pt x="-2015" y="1850" on="1"/>
        <pt x="-2115" y="1877" on="0"/>
        <pt x="-2115" y="1984" on="1"/>
        <pt x="-2115" y="2270" on="1"/>
        <pt x="-2115" y="2310" on="0"/>
        <pt x="-2185" y="2350" on="0"/>
        <pt x="-2185" y="2425" on="1"/>
        <pt x="-2185" y="2500" on="0"/>
        <pt x="-2085" y="2500" on="1"/>
        <pt x="-1915" y="2500" on="0"/>
        <pt x="-1915" y="2270" on="1"/>
      </contour>
    </TTGlyph>
    <TTGlyph name="glyph251" xMin="-2550" yMin="1750" xMax="-1150" yMax="2076">
      <contour>
        <pt x="-2550" y="1798" on="1"/>
        <pt x="-2550" y="1846" on="0"/>
        <pt x="-2487" y="1889" on="1"/>
        <pt x="-2300" y="2016" on="1"/>
        <pt x="-2216" y="2076" on="0"/>
        <pt x="-2180" y="2076" on="1"/>
        <pt x="-2143" y="2076" on="0"/>
        <pt x="-1853" y="1960" on="1"/>
        <pt x="-1615" y="2076" on="0"/>
        <pt x="-1577" y="2076" on="1"/>
        <pt x="-1541" y="2076" on="0"/>
        <pt x="-1326" y="1955" on="0"/>
        <pt x="-1150" y="1896" on="1"/>
        <pt x="-1242" y="1750" on="0"/>
        <pt x="-1320" y="1750" on="1"/>
        <pt x="-1334" y="1750" on="0"/>
        <pt x="-1348" y="1755" on="1"/>
        <pt x="-1439" y="1785" on="0"/>
        <pt x="-1587" y="1883" on="1"/>
        <pt x="-1853" y="1750" on="1"/>
        <pt x="-2161" y="1866" on="1"/>
        <pt x="-2237" y="1808" on="1"/>
        <pt x="-2313" y="1750" on="0"/>
        <pt x="-2431" y="1750" on="1"/>
        <pt x="-2550" y="1750" on="0"/>
      </contour>
    </TTGlyph>
    <TTGlyph name="glyph252" xMin="-2275" yMin="1850" xMax="-1325" yMax="2800">
      <contour>
        <pt x="-2048" y="1920" on="1"/>
        <pt x="-2132" y="1850" on="0"/>
        <pt x="-2185" y="1850" on="1"/>
        <pt x="-2229" y="1850" on="0"/>
        <pt x="-2257" y="1885" on="1"/>
        <pt x="-2275" y="1909" on="0"/>
        <pt x="-2275" y="1934" on="1"/>
        <pt x="-2275" y="1987" on="0"/>
        <pt x="-2186" y="2045" on="1"/>
        <pt x="-2056" y="2128" on="1"/>
        <pt x="-1860" y="2253" on="0"/>
        <pt x="-1782" y="2434" on="1"/>
        <pt x="-1700" y="2615" on="0"/>
        <pt x="-1700" y="2671" on="1"/>
        <pt x="-1700" y="2800" on="0"/>
        <pt x="-1601" y="2800" on="1"/>
        <pt x="-1500" y="2800" on="0"/>
        <pt x="-1500" y="2671" on="1"/>
        <pt x="-1500" y="2576" on="0"/>
        <pt x="-1585" y="2430" on="1"/>
        <pt x="-1671" y="2284" on="0"/>
        <pt x="-1753" y="2183" on="1"/>
        <pt x="-1677" y="2178" on="0"/>
        <pt x="-1556" y="2154" on="1"/>
        <pt x="-1436" y="2129" on="0"/>
        <pt x="-1352" y="2023" on="1"/>
        <pt x="-1325" y="1978" on="0"/>
        <pt x="-1325" y="1943" on="1"/>
        <pt x="-1325" y="1894" on="0"/>
        <pt x="-1377" y="1867" on="1"/>
        <pt x="-1406" y="1850" on="0"/>
        <pt x="-1434" y="1850" on="1"/>
        <pt x="-1486" y="1850" on="0"/>
        <pt x="-1527" y="1915" on="1"/>
        <pt x="-1588" y="2012" on="0"/>
        <pt x="-1682" y="2024" on="1"/>
        <pt x="-1739" y="2029" on="0"/>
        <pt x="-1784" y="2029" on="1"/>
        <pt x="-1866" y="2029" on="0"/>
        <pt x="-1904" y="2013" on="1"/>
        <pt x="-1964" y="1988" on="0"/>
      </contour>
    </TTGlyph>
    <TTGlyph name="glyph253" xMin="-2100" yMin="1850" xMax="-1500" yMax="2449">
      <contour>
        <pt x="-1900" y="2049" on="1"/>
        <pt x="-2100" y="2049" on="1"/>
        <pt x="-2100" y="2250" on="1"/>
        <pt x="-1900" y="2250" on="1"/>
        <pt x="-1900" y="2449" on="1"/>
        <pt x="-1700" y="2449" on="1"/>
        <pt x="-1700" y="2250" on="1"/>
        <pt x="-1500" y="2250" on="1"/>
        <pt x="-1500" y="2049" on="1"/>
        <pt x="-1700" y="2049" on="1"/>
        <pt x="-1700" y="1850" on="1"/>
        <pt x="-1900" y="1850" on="1"/>
      </contour>
    </TTGlyph>
    <TTGlyph name="glyph254" xMin="300" yMin="0" xMax="3300" yMax="1500">
      <contour>
        <pt x="1000" y="1230" on="1"/>
        <pt x="1599" y="1500" on="0"/>
        <pt x="1659" y="1500" on="1"/>
        <pt x="1719" y="1500" on="0"/>
        <pt x="2145" y="1314" on="1"/>
        <pt x="2576" y="1500" on="0"/>
        <pt x="2638" y="1500" on="1"/>
        <pt x="2698" y="1500" on="0"/>
        <pt x="3010" y="1339" on="0"/>
        <pt x="3300" y="1280" on="1"/>
        <pt x="3277" y="1109" on="0"/>
        <pt x="3165" y="1109" on="1"/>
        <pt x="3159" y="1109" on="0"/>
        <pt x="3153" y="1110" on="1"/>
        <pt x="3029" y="1120" on="0"/>
        <pt x="2632" y="1297" on="1"/>
        <pt x="2145" y="1091" on="1"/>
        <pt x="1661" y="1300" on="1"/>
        <pt x="1309" y="1149" on="1"/>
        <pt x="1362" y="1089" on="1"/>
        <pt x="1194" y="1011" on="1"/>
        <pt x="1000" y="1175" on="1"/>
      </contour>
      <contour>
        <pt x="3200" y="100" on="1"/>
        <pt x="3200" y="0" on="0"/>
        <pt x="3119" y="0" on="1"/>
        <pt x="3037" y="0" on="0"/>
        <pt x="2850" y="110" on="0"/>
        <pt x="2850" y="193" on="1"/>
        <pt x="2850" y="276" on="0"/>
        <pt x="3000" y="420" on="0"/>
        <pt x="3000" y="500" on="1"/>
        <pt x="3000" y="728" on="1"/>
        <pt x="2620" y="927" on="1"/>
        <pt x="2250" y="728" on="1"/>
        <pt x="2250" y="100" on="1"/>
        <pt x="2250" y="0" on="0"/>
        <pt x="2169" y="0" on="1"/>
        <pt x="2087" y="0" on="0"/>
        <pt x="1900" y="110" on="0"/>
        <pt x="1900" y="193" on="1"/>
        <pt x="1900" y="276" on="0"/>
        <pt x="2050" y="420" on="0"/>
        <pt x="2050" y="500" on="1"/>
        <pt x="2050" y="728" on="1"/>
        <pt x="1670" y="927" on="1"/>
        <pt x="1300" y="728" on="1"/>
        <pt x="1300" y="480" on="1"/>
        <pt x="1300" y="440" on="0"/>
        <pt x="1404" y="353" on="1"/>
        <pt x="1478" y="290" on="0"/>
        <pt x="1478" y="203" on="1"/>
        <pt x="1478" y="170" on="0"/>
        <pt x="1467" y="133" on="1"/>
        <pt x="1427" y="0" on="0"/>
        <pt x="1332" y="0" on="1"/>
        <pt x="1237" y="0" on="0"/>
        <pt x="1100" y="150" on="0"/>
        <pt x="1100" y="290" on="1"/>
        <pt x="1100" y="778" on="1"/>
        <pt x="1100" y="856" on="0"/>
        <pt x="1171" y="895" on="1"/>
        <pt x="1670" y="1130" on="1"/>
        <pt x="2150" y="906" on="1"/>
        <pt x="2620" y="1130" on="1"/>
        <pt x="3119" y="895" on="1"/>
        <pt x="3200" y="856" on="0"/>
        <pt x="3200" y="778" on="1"/>
      </contour>
      <contour>
        <pt x="500" y="1143" on="1"/>
        <pt x="500" y="500" on="1"/>
        <pt x="500" y="410" on="0"/>
        <pt x="700" y="240" on="0"/>
        <pt x="700" y="165" on="1"/>
        <pt x="700" y="0" on="0"/>
        <pt x="585" y="0" on="1"/>
        <pt x="480" y="0" on="0"/>
        <pt x="300" y="170" on="0"/>
        <pt x="300" y="400" on="1"/>
        <pt x="300" y="1500" on="1"/>
        <pt x="386" y="1500" on="1"/>
        <pt x="591" y="1268" on="0"/>
        <pt x="678" y="1268" on="1"/>
        <pt x="690" y="1268" on="0"/>
        <pt x="700" y="1273" on="1"/>
        <pt x="680" y="1130" on="0"/>
        <pt x="608" y="1106" on="1"/>
        <pt x="598" y="1103" on="0"/>
        <pt x="588" y="1103" on="1"/>
        <pt x="550" y="1103" on="0"/>
      </contour>
    </TTGlyph>
    <TTGlyph name="glyph255" xMin="300" yMin="0" xMax="2300" yMax="1500">
      <contour>
        <pt x="1100" y="1110" on="1"/>
        <pt x="1100" y="1320" on="0"/>
        <pt x="1453" y="1500" on="0"/>
        <pt x="1700" y="1500" on="1"/>
        <pt x="1947" y="1500" on="0"/>
        <pt x="2300" y="1330" on="0"/>
        <pt x="2300" y="1060" on="1"/>
        <pt x="2300" y="703" on="0"/>
        <pt x="1636" y="356" on="1"/>
        <pt x="1730" y="245" on="1"/>
        <pt x="2191" y="702" on="1"/>
        <pt x="2193" y="686" on="0"/>
        <pt x="2193" y="669" on="1"/>
        <pt x="2193" y="510" on="0"/>
        <pt x="2024" y="270" on="1"/>
        <pt x="1837" y="4" on="0"/>
        <pt x="1747" y="0" on="1"/>
        <pt x="1658" y="0" on="0"/>
        <pt x="1481" y="199" on="1"/>
        <pt x="1386" y="304" on="0"/>
        <pt x="1386" y="382" on="1"/>
        <pt x="1386" y="450" on="0"/>
        <pt x="1459" y="496" on="1"/>
        <pt x="2100" y="803" on="0"/>
        <pt x="2100" y="1060" on="1"/>
        <pt x="2100" y="1300" on="0"/>
        <pt x="1700" y="1300" on="1"/>
        <pt x="1300" y="1300" on="0"/>
        <pt x="1300" y="1110" on="1"/>
        <pt x="1300" y="980" on="0"/>
        <pt x="1396" y="980" on="1"/>
        <pt x="1396" y="1100" on="0"/>
        <pt x="1502" y="1119" on="1"/>
        <pt x="1519" y="1122" on="0"/>
        <pt x="1535" y="1122" on="1"/>
        <pt x="1613" y="1122" on="0"/>
        <pt x="1642" y="1045" on="1"/>
        <pt x="1653" y="1012" on="0"/>
        <pt x="1653" y="982" on="1"/>
        <pt x="1653" y="925" on="0"/>
        <pt x="1611" y="876" on="1"/>
        <pt x="1545" y="800" on="0"/>
        <pt x="1396" y="800" on="1"/>
        <pt x="1100" y="800" on="0"/>
      </contour>
      <contour>
        <pt x="500" y="1143" on="1"/>
        <pt x="500" y="500" on="1"/>
        <pt x="500" y="410" on="0"/>
        <pt x="700" y="240" on="0"/>
        <pt x="700" y="165" on="1"/>
        <pt x="700" y="0" on="0"/>
        <pt x="585" y="0" on="1"/>
        <pt x="480" y="0" on="0"/>
        <pt x="300" y="170" on="0"/>
        <pt x="300" y="400" on="1"/>
        <pt x="300" y="1500" on="1"/>
        <pt x="386" y="1500" on="1"/>
        <pt x="591" y="1268" on="0"/>
        <pt x="678" y="1268" on="1"/>
        <pt x="690" y="1268" on="0"/>
        <pt x="700" y="1273" on="1"/>
        <pt x="680" y="1130" on="0"/>
        <pt x="608" y="1106" on="1"/>
        <pt x="598" y="1103" on="0"/>
        <pt x="588" y="1103" on="1"/>
        <pt x="550" y="1103" on="0"/>
      </contour>
    </TTGlyph>
    <TTGlyph name="glyph256" xMin="300" yMin="0" xMax="2400" yMax="1500">
      <contour>
        <pt x="1000" y="1270" on="1"/>
        <pt x="1250" y="1440" on="1"/>
        <pt x="1334" y="1500" on="0"/>
        <pt x="1370" y="1500" on="1"/>
        <pt x="1407" y="1500" on="0"/>
        <pt x="1697" y="1394" on="1"/>
        <pt x="1935" y="1500" on="0"/>
        <pt x="1973" y="1500" on="1"/>
        <pt x="2009" y="1500" on="0"/>
        <pt x="2224" y="1379" on="0"/>
        <pt x="2400" y="1320" on="1"/>
        <pt x="2308" y="1174" on="0"/>
        <pt x="2230" y="1174" on="1"/>
        <pt x="2216" y="1174" on="0"/>
        <pt x="2202" y="1179" on="1"/>
        <pt x="2111" y="1209" on="0"/>
        <pt x="1963" y="1307" on="1"/>
        <pt x="1697" y="1181" on="1"/>
        <pt x="1389" y="1290" on="1"/>
        <pt x="1237" y="1189" on="1"/>
        <pt x="1287" y="1109" on="1"/>
        <pt x="1173" y="1051" on="1"/>
        <pt x="1000" y="1215" on="1"/>
      </contour>
      <contour>
        <pt x="1100" y="788" on="1"/>
        <pt x="1100" y="866" on="0"/>
        <pt x="1175" y="905" on="1"/>
        <pt x="1700" y="1160" on="1"/>
        <pt x="2225" y="905" on="1"/>
        <pt x="2300" y="866" on="0"/>
        <pt x="2300" y="788" on="1"/>
        <pt x="2300" y="100" on="1"/>
        <pt x="2300" y="0" on="0"/>
        <pt x="2219" y="0" on="1"/>
        <pt x="2137" y="0" on="0"/>
        <pt x="1950" y="110" on="0"/>
        <pt x="1950" y="193" on="1"/>
        <pt x="1950" y="276" on="0"/>
        <pt x="2100" y="420" on="0"/>
        <pt x="2100" y="500" on="1"/>
        <pt x="2100" y="738" on="1"/>
        <pt x="1700" y="937" on="1"/>
        <pt x="1300" y="738" on="1"/>
        <pt x="1300" y="480" on="1"/>
        <pt x="1300" y="440" on="0"/>
        <pt x="1404" y="353" on="1"/>
        <pt x="1478" y="290" on="0"/>
        <pt x="1478" y="203" on="1"/>
        <pt x="1478" y="170" on="0"/>
        <pt x="1467" y="133" on="1"/>
        <pt x="1427" y="0" on="0"/>
        <pt x="1332" y="0" on="1"/>
        <pt x="1237" y="0" on="0"/>
        <pt x="1100" y="150" on="0"/>
        <pt x="1100" y="290" on="1"/>
      </contour>
      <contour>
        <pt x="500" y="1143" on="1"/>
        <pt x="500" y="500" on="1"/>
        <pt x="500" y="410" on="0"/>
        <pt x="700" y="240" on="0"/>
        <pt x="700" y="165" on="1"/>
        <pt x="700" y="0" on="0"/>
        <pt x="585" y="0" on="1"/>
        <pt x="480" y="0" on="0"/>
        <pt x="300" y="170" on="0"/>
        <pt x="300" y="400" on="1"/>
        <pt x="300" y="1500" on="1"/>
        <pt x="386" y="1500" on="1"/>
        <pt x="591" y="1268" on="0"/>
        <pt x="678" y="1268" on="1"/>
        <pt x="690" y="1268" on="0"/>
        <pt x="700" y="1273" on="1"/>
        <pt x="680" y="1130" on="0"/>
        <pt x="608" y="1106" on="1"/>
        <pt x="598" y="1103" on="0"/>
        <pt x="588" y="1103" on="1"/>
        <pt x="550" y="1103" on="0"/>
      </contour>
    </TTGlyph>
    <TTGlyph name="glyph257" xMin="300" yMin="0" xMax="3450" yMax="1500">
      <contour>
        <pt x="2227" y="186" on="1"/>
        <pt x="2114" y="52" on="0"/>
        <pt x="1900" y="0" on="1"/>
        <pt x="1514" y="0" on="1"/>
        <pt x="1394" y="0" on="0"/>
        <pt x="1030" y="310" on="0"/>
        <pt x="1000" y="476" on="1"/>
        <pt x="1333" y="882" on="1"/>
        <pt x="1342" y="950" on="1"/>
        <pt x="1343" y="955" on="0"/>
        <pt x="1343" y="960" on="1"/>
        <pt x="1343" y="1028" on="0"/>
        <pt x="1250" y="1170" on="1"/>
        <pt x="1225" y="1208" on="0"/>
        <pt x="1201" y="1208" on="1"/>
        <pt x="1194" y="1208" on="0"/>
        <pt x="1186" y="1204" on="1"/>
        <pt x="1175" y="1197" on="0"/>
        <pt x="1175" y="1187" on="1"/>
        <pt x="1175" y="1170" on="0"/>
        <pt x="1205" y="1145" on="1"/>
        <pt x="1239" y="1116" on="0"/>
        <pt x="1239" y="1071" on="1"/>
        <pt x="1239" y="1051" on="0"/>
        <pt x="1233" y="1029" on="1"/>
        <pt x="1214" y="960" on="0"/>
        <pt x="1123" y="960" on="1"/>
        <pt x="1115" y="960" on="0"/>
        <pt x="1106" y="961" on="1"/>
        <pt x="1000" y="968" on="0"/>
        <pt x="1000" y="1111" on="1"/>
        <pt x="1000" y="1254" on="0"/>
        <pt x="1213" y="1500" on="0"/>
        <pt x="1261" y="1500" on="1"/>
        <pt x="1309" y="1500" on="0"/>
        <pt x="1413" y="1309" on="1"/>
        <pt x="1540" y="1069" on="0"/>
        <pt x="1540" y="977" on="1"/>
        <pt x="1540" y="884" on="1"/>
        <pt x="1540" y="809" on="0"/>
        <pt x="1261" y="429" on="1"/>
        <pt x="1340" y="297" on="0"/>
        <pt x="1514" y="200" on="1"/>
        <pt x="1900" y="200" on="1"/>
        <pt x="2100" y="280" on="0"/>
        <pt x="2150" y="500" on="1"/>
        <pt x="2150" y="876" on="1"/>
        <pt x="2110" y="1012" on="0"/>
        <pt x="1890" y="1052" on="1"/>
        <pt x="2216" y="1500" on="1"/>
        <pt x="2429" y="1337" on="0"/>
        <pt x="2520" y="1337" on="1"/>
        <pt x="2537" y="1337" on="0"/>
        <pt x="2550" y="1343" on="1"/>
        <pt x="2530" y="1200" on="0"/>
        <pt x="2468" y="1176" on="1"/>
        <pt x="2455" y="1171" on="0"/>
        <pt x="2438" y="1171" on="1"/>
        <pt x="2370" y="1171" on="0"/>
        <pt x="2229" y="1249" on="1"/>
        <pt x="2151" y="1154" on="1"/>
        <pt x="2330" y="1072" on="0"/>
        <pt x="2350" y="896" on="1"/>
        <pt x="2350" y="500" on="1"/>
        <pt x="2344" y="443" on="0"/>
        <pt x="2331" y="393" on="1"/>
        <pt x="2420" y="281" on="0"/>
        <pt x="2564" y="200" on="1"/>
        <pt x="2800" y="200" on="1"/>
        <pt x="3000" y="280" on="0"/>
        <pt x="3050" y="500" on="1"/>
        <pt x="3050" y="876" on="1"/>
        <pt x="3010" y="1012" on="0"/>
        <pt x="2790" y="1052" on="1"/>
        <pt x="3116" y="1500" on="1"/>
        <pt x="3329" y="1337" on="0"/>
        <pt x="3420" y="1337" on="1"/>
        <pt x="3437" y="1337" on="0"/>
        <pt x="3450" y="1343" on="1"/>
        <pt x="3430" y="1200" on="0"/>
        <pt x="3368" y="1176" on="1"/>
        <pt x="3355" y="1171" on="0"/>
        <pt x="3338" y="1171" on="1"/>
        <pt x="3270" y="1171" on="0"/>
        <pt x="3129" y="1249" on="1"/>
        <pt x="3051" y="1154" on="1"/>
        <pt x="3230" y="1072" on="0"/>
        <pt x="3250" y="896" on="1"/>
        <pt x="3250" y="500" on="1"/>
        <pt x="3210" y="100" on="0"/>
        <pt x="2830" y="0" on="1"/>
        <pt x="2524" y="0" on="1"/>
        <pt x="2398" y="0" on="0"/>
      </contour>
      <contour>
        <pt x="500" y="1143" on="1"/>
        <pt x="500" y="500" on="1"/>
        <pt x="500" y="410" on="0"/>
        <pt x="700" y="240" on="0"/>
        <pt x="700" y="165" on="1"/>
        <pt x="700" y="0" on="0"/>
        <pt x="585" y="0" on="1"/>
        <pt x="480" y="0" on="0"/>
        <pt x="300" y="170" on="0"/>
        <pt x="300" y="400" on="1"/>
        <pt x="300" y="1500" on="1"/>
        <pt x="386" y="1500" on="1"/>
        <pt x="591" y="1268" on="0"/>
        <pt x="678" y="1268" on="1"/>
        <pt x="690" y="1268" on="0"/>
        <pt x="700" y="1273" on="1"/>
        <pt x="680" y="1130" on="0"/>
        <pt x="608" y="1106" on="1"/>
        <pt x="598" y="1103" on="0"/>
        <pt x="588" y="1103" on="1"/>
        <pt x="550" y="1103" on="0"/>
      </contour>
    </TTGlyph>
    <TTGlyph name="glyph258" xMin="300" yMin="0" xMax="2300" yMax="2332">
      <contour>
        <pt x="1342" y="1899" on="1"/>
        <pt x="1431" y="1888" on="0"/>
        <pt x="1431" y="1840" on="1"/>
        <pt x="1431" y="1836" on="1"/>
        <pt x="1431" y="1788" on="0"/>
        <pt x="1510" y="1746" on="0"/>
        <pt x="1621" y="1746" on="1"/>
        <pt x="1759" y="1746" on="0"/>
        <pt x="1931" y="1972" on="0"/>
        <pt x="2010" y="2156" on="0"/>
        <pt x="2050" y="2332" on="0"/>
        <pt x="2105" y="2332" on="1"/>
        <pt x="2160" y="2332" on="0"/>
        <pt x="2160" y="2225" on="1"/>
        <pt x="2160" y="2118" on="0"/>
        <pt x="2071" y="1801" on="0"/>
        <pt x="1820" y="1556" on="0"/>
        <pt x="1621" y="1556" on="1"/>
        <pt x="1481" y="1556" on="0"/>
        <pt x="1241" y="1686" on="0"/>
        <pt x="1241" y="1806" on="1"/>
        <pt x="1248" y="1899" on="0"/>
        <pt x="1325" y="1899" on="1"/>
      </contour>
      <contour>
        <pt x="1244" y="1071" on="1"/>
        <pt x="1322" y="1023" on="0"/>
        <pt x="1470" y="839" on="0"/>
        <pt x="1470" y="764" on="1"/>
        <pt x="1470" y="689" on="0"/>
        <pt x="1395" y="617" on="1"/>
        <pt x="1239" y="453" on="1"/>
        <pt x="1290" y="297" on="0"/>
        <pt x="1390" y="235" on="1"/>
        <pt x="1723" y="499" on="1"/>
        <pt x="1963" y="240" on="1"/>
        <pt x="2004" y="240" on="0"/>
        <pt x="2107" y="374" on="0"/>
        <pt x="2213" y="500" on="0"/>
        <pt x="2257" y="500" on="1"/>
        <pt x="2300" y="500" on="0"/>
        <pt x="2300" y="414" on="1"/>
        <pt x="2300" y="328" on="0"/>
        <pt x="2087" y="0" on="0"/>
        <pt x="1965" y="0" on="1"/>
        <pt x="1899" y="0" on="0"/>
        <pt x="1709" y="226" on="1"/>
        <pt x="1424" y="0" on="1"/>
        <pt x="1304" y="0" on="0"/>
        <pt x="1000" y="349" on="0"/>
        <pt x="1000" y="517" on="1"/>
        <pt x="1258" y="752" on="1"/>
        <pt x="1163" y="937" on="0"/>
        <pt x="1000" y="1006" on="1"/>
        <pt x="1000" y="1089" on="0"/>
        <pt x="1087" y="1205" on="1"/>
        <pt x="1306" y="1500" on="0"/>
        <pt x="1556" y="1500" on="1"/>
        <pt x="1771" y="1500" on="1"/>
        <pt x="1987" y="1500" on="0"/>
        <pt x="2144" y="1394" on="1"/>
        <pt x="2300" y="1288" on="0"/>
        <pt x="2300" y="1119" on="1"/>
        <pt x="2300" y="870" on="0"/>
        <pt x="2132" y="870" on="1"/>
        <pt x="1964" y="870" on="0"/>
        <pt x="1960" y="970" on="1"/>
        <pt x="1960" y="980" on="1"/>
        <pt x="1960" y="1070" on="0"/>
        <pt x="2030" y="1070" on="1"/>
        <pt x="2103" y="1070" on="0"/>
        <pt x="2103" y="1118" on="1"/>
        <pt x="2103" y="1119" on="1"/>
        <pt x="2101" y="1167" on="0"/>
        <pt x="2002" y="1234" on="1"/>
        <pt x="1904" y="1300" on="0"/>
        <pt x="1771" y="1300" on="1"/>
        <pt x="1556" y="1300" on="1"/>
        <pt x="1404" y="1300" on="0"/>
      </contour>
      <contour>
        <pt x="500" y="1143" on="1"/>
        <pt x="500" y="500" on="1"/>
        <pt x="500" y="410" on="0"/>
        <pt x="700" y="240" on="0"/>
        <pt x="700" y="165" on="1"/>
        <pt x="700" y="0" on="0"/>
        <pt x="585" y="0" on="1"/>
        <pt x="480" y="0" on="0"/>
        <pt x="300" y="170" on="0"/>
        <pt x="300" y="400" on="1"/>
        <pt x="300" y="1500" on="1"/>
        <pt x="386" y="1500" on="1"/>
        <pt x="591" y="1268" on="0"/>
        <pt x="678" y="1268" on="1"/>
        <pt x="690" y="1268" on="0"/>
        <pt x="700" y="1273" on="1"/>
        <pt x="680" y="1130" on="0"/>
        <pt x="608" y="1106" on="1"/>
        <pt x="598" y="1103" on="0"/>
        <pt x="588" y="1103" on="1"/>
        <pt x="550" y="1103" on="0"/>
      </contour>
    </TTGlyph>
</ttFont>
